<svg width="480" height="480" viewBox="0 0 480 480" fill="none" xmlns="http://www.w3.org/2000/svg">
<path d="M198.796 92.499H108.209C89.9622 92.499 75.0339 107.427 75.0339 125.673C75.0339 143.92 88.861 158.848 107.108 158.848H199.571L198.796 92.499Z" fill="#073042"/>
<path d="M405 388.024H108.175C89.9283 388.024 75 373.095 75 354.849V125.572C75 125.572 74.9004 158.85 110.352 158.85H356.534C356.534 158.85 405 154.678 405 190.826V388.024Z" fill="#4285F4"/>
<path d="M266.5 270.567C273.594 265.09 278.189 256.529 278.189 246.896C278.189 230.769 265.354 217.615 249.366 217.029C249.71 217.017 250.044 216.973 250.39 216.973C252.181 216.973 253.926 217.16 255.632 217.463V198.483C255.632 196.958 255.026 195.496 253.948 194.417C252.869 193.339 251.407 192.733 249.882 192.733C248.357 192.733 246.894 193.339 245.816 194.417C244.738 195.496 244.132 196.958 244.131 198.483V217.294C229.587 219.318 218.344 231.803 218.344 246.896C218.344 256.955 223.349 265.85 230.982 271.278L176.283 388.024H212.029L237.284 333.96C241.958 324.032 256.066 323.99 260.799 333.89L286.841 388.024H322.879L266.5 270.566V270.567ZM248.266 265.32C238.09 265.32 229.842 257.072 229.842 246.896C229.842 236.72 238.091 228.471 248.266 228.471C258.441 228.471 266.691 236.721 266.691 246.897C266.691 257.072 258.441 265.32 248.266 265.32Z" fill="#3870B2"/>
<path d="M238.384 228.471C248.56 228.471 256.809 236.721 256.809 246.897C256.809 257.072 248.56 265.32 238.384 265.32C228.208 265.32 219.959 257.072 219.959 246.896C219.959 236.72 228.208 228.471 238.384 228.471ZM245.749 217.463V198.483C245.749 196.958 245.143 195.496 244.065 194.417C242.987 193.339 241.524 192.733 239.999 192.733C238.474 192.733 237.012 193.339 235.933 194.417C234.855 195.496 234.249 196.958 234.249 198.483V217.294C219.706 219.318 208.462 231.803 208.462 246.896C208.462 256.955 213.467 265.85 221.099 271.278L152.033 418.447C147.023 429.203 154.875 441.525 166.742 441.525C169.833 441.525 172.86 440.642 175.466 438.981C178.072 437.319 180.15 434.947 181.454 432.145L227.402 333.96C232.075 324.032 246.184 323.99 250.916 333.89L297.904 431.546C299.23 434.293 301.303 436.61 303.886 438.231C306.468 439.853 309.456 440.713 312.506 440.713C324.453 440.713 332.296 428.229 327.112 417.465L256.619 270.567C263.712 265.09 268.307 256.529 268.307 246.896C268.307 232.94 258.695 221.21 245.747 217.926" fill="#073042"/>
<path d="M179.159 108.793H306.159V132.047H179.159V108.793Z" fill="white"/>
<path d="M287.738 129.32C282.975 129.32 279.1 125.443 279.1 120.679C279.1 115.915 282.975 112.041 287.738 112.041C292.502 112.041 296.376 115.916 296.376 120.679C296.376 125.443 292.502 129.32 287.738 129.32ZM192.261 129.32C187.497 129.32 183.624 125.443 183.624 120.679C183.624 115.915 187.497 112.041 192.261 112.041C197.025 112.041 200.899 115.916 200.899 120.679C200.899 125.443 197.024 129.32 192.261 129.32ZM290.837 77.2868L308.101 47.3871C308.576 46.5619 308.704 45.5819 308.458 44.6622C308.211 43.7425 307.61 42.9582 306.785 42.4815C305.96 42.0066 304.98 41.8784 304.061 42.125C303.141 42.3716 302.357 42.9728 301.88 43.7969L284.4 74.0734C271.032 67.9726 256.019 64.5741 240 64.5741C223.98 64.5741 208.967 67.9726 195.601 74.0734L178.12 43.795C177.643 42.9707 176.859 42.3693 175.939 42.1227C175.019 41.8761 174.039 42.0044 173.214 42.4796C172.389 42.956 171.787 43.7405 171.54 44.6605C171.294 45.5806 171.422 46.561 171.898 47.3861L189.163 77.2859C159.519 93.4093 139.243 123.421 136.277 158.877H343.722C340.753 123.421 320.478 93.4102 290.837 77.2868Z" fill="#3DDC84"/>
<path d="M375.148 222.533H361.438C360.529 222.533 359.786 223.276 359.786 224.184L359.453 439.342C359.453 440.251 360.196 440.995 361.105 440.995L375.148 441.073C391.567 441.073 405 427.64 405 411.223V192.648C405 209.066 391.567 222.532 375.149 222.532L375.148 222.533Z" fill="#073042"/>
</svg>
