<svg width="120" height="120" viewBox="0 0 120 120" fill="none" xmlns="http://www.w3.org/2000/svg">
<g clip-path="url(#clip0_2827_876)">
<path d="M60.0049 83.7401C64.7032 83.7401 69.2901 82.486 73.3001 80.1429C73.4159 76.5802 73.4855 73.0871 73.5274 69.6882C72.6562 67.4272 72.3654 64.7562 72.2937 62.6731C71.0519 64.1194 69.7488 65.3293 68.5036 66.2961C66.0773 68.1802 63.0837 69.2035 60 69.2035C56.9166 69.2035 53.9226 68.1802 51.4966 66.2961C50.2514 65.3293 48.948 64.1192 47.7063 62.6731C47.6344 64.7649 47.3412 67.4494 46.4615 69.7165C46.477 73.1122 46.5276 76.5788 46.6268 80.0958C50.6809 82.483 55.3002 83.7413 60.0049 83.7401Z" fill="#FFD9A1"/>
<path d="M60.1472 69.2007C60.098 69.2012 60.0492 69.2037 60 69.2037C56.9166 69.2037 53.9226 68.1805 51.4966 66.2963C50.2514 65.3295 48.948 64.1194 47.7063 62.6733C47.6344 64.7651 47.3412 67.4497 46.4615 69.7168C46.477 73.1124 46.5276 76.579 46.6268 80.0961C48.2421 81.0463 49.9543 81.8211 51.7343 82.4072C52.0999 82.3869 52.4638 82.342 52.8234 82.2729C59.4314 80.9958 60.2023 73.2272 60.1472 69.2007Z" fill="#F9C98A"/>
<path d="M46.6139 79.6202C46.9601 92.4314 47.958 105.933 50.3571 119.19C56.7027 120.264 63.1832 120.27 69.5308 119.208C71.9416 105.856 72.9176 92.3126 73.3148 79.6659C69.2768 82.0277 64.6829 83.2721 60.0049 83.2713C55.2952 83.2726 50.6712 82.0119 46.6139 79.6202Z" fill="#DEEEFF"/>
<path d="M60.0068 89.662C64.5855 89.662 69.063 88.5237 73.0474 86.3892C73.1571 84.1247 73.2452 81.8812 73.3148 79.6659C69.2768 82.0277 64.6829 83.272 60.0049 83.2713C55.2952 83.2726 50.6711 82.0117 46.6139 79.62C46.6739 81.8381 46.754 84.0778 46.8569 86.3325C50.8953 88.5182 55.4149 89.6625 60.0068 89.662Z" fill="#D3DCFB"/>
<path d="M101.324 82.1182C100.495 81.7209 99.6052 81.3816 98.6571 81.1005L83.3876 75.2733C82.5623 74.9341 81.7285 74.6158 80.887 74.3189C80.2224 75.1638 79.2567 76.2602 77.9787 77.4122C76.8002 92.7302 72.8353 109.002 70.0013 119.13C87.071 116.132 101.544 105.595 109.86 91.0788C108.118 87.4005 105.435 84.0907 101.324 82.1182ZM40.2138 75.6204L33.926 87.9457C32.6606 88.3491 23.9121 91.4435 23.9121 99.8102V107.239C31.2966 113.213 40.1897 117.397 49.9341 119.12C47.1558 107.022 45.708 91.5124 44.9625 79.7081C43.2214 78.5409 41.6271 77.1685 40.2138 75.6204Z" fill="#49B1F7"/>
<path d="M24.2637 99.81C24.2637 90.9996 34.1717 88.238 34.1717 88.238L40.4682 75.8953C39.9927 75.3901 39.5393 74.8646 39.1092 74.3203C38.2712 74.6161 37.4408 74.933 36.6188 75.2707L21.3331 81.1034C20.393 81.3825 19.5101 81.7191 18.6879 82.1126C14.5695 84.0844 11.8835 87.3973 10.1403 91.0793C13.7666 97.4047 18.559 102.985 24.2637 107.526V99.81Z" fill="#1FA2EA"/>
<path d="M31.3597 87.567L37.2329 88.9688C37.9262 89.1342 38.57 89.4629 39.1107 89.9274L41.9635 92.3785L41.4359 92.7668L41.9635 92.8472L47.3876 88.6514C46.9294 80.8198 46.9259 68.3133 46.9259 68.3133L43.7236 69.5334C40.9936 70.5738 38.6589 72.4446 37.0486 74.8824L30.3528 85.0195C29.7134 85.9882 30.2309 87.2977 31.3597 87.567Z" fill="#73C3F9"/>
<path d="M47.3621 88.2028L41.9637 92.3787L34.3034 98.0173C32.4615 99.3729 31.707 101.77 32.4568 103.931C33.8119 107.836 35.4127 111.683 37.0238 115.214C41.4459 117.148 46.0957 118.512 50.8615 119.273C48.8166 107.835 47.8334 96.4655 47.3621 88.2028Z" fill="#9BD8F9"/>
<path d="M88.5349 87.567L82.6615 88.9688C81.9681 89.1342 81.3244 89.4629 80.7837 89.9274L77.9309 92.3785L78.4587 92.7668L77.9309 92.8472L72.5067 88.6514C72.9652 80.8198 73.0737 68.3133 73.0737 68.3133L76.2129 69.5267C78.9166 70.5717 81.2278 72.4329 82.8253 74.8517L89.5416 85.0198C90.1812 85.9882 89.6637 87.2977 88.5349 87.567Z" fill="#73C3F9"/>
<path d="M85.5914 98.0173L77.9311 92.3787L72.5328 88.2028C72.061 96.4699 71.0771 107.847 69.03 119.291C73.7863 118.54 78.4283 117.189 82.845 115.271C84.4648 111.725 86.0754 107.857 87.4381 103.931C88.1878 101.77 87.4332 99.3729 85.5914 98.0173Z" fill="#9BD8F9"/>
<path d="M102.564 101.114C101.428 96.4168 98.531 93.7041 96.1877 92.2226C94.7227 91.2964 92.8125 92.3389 92.8125 94.0723V109.702C96.3759 107.215 99.6473 104.334 102.564 101.114Z" fill="#1FA2EA"/>
<path d="M38.6557 36.9085H81.6098C81.686 33.8135 82.2021 25.6217 85.4367 19.7862C85.6593 19.3855 85.7939 18.9418 85.8313 18.4849C85.8687 18.0281 85.8082 17.5684 85.6537 17.1368C84.48 13.8645 80.9742 6.21448 73.3284 4.17401C72.9211 4.06526 72.8135 3.53839 73.1449 3.278L74.2908 2.37776C74.8104 1.96948 74.6107 1.14026 73.962 1.01511C68.321 -0.0726263 49.5862 -2.67606 43.7665 9.29042C43.4191 10.0046 42.7645 10.5188 41.9958 10.7178C40.3024 11.156 37.2567 12.477 35.2716 16.4353C35.0787 16.8184 34.9637 17.2359 34.9335 17.6637C34.9032 18.0915 34.9582 18.5211 35.0953 18.9275C36.0602 21.7707 38.4105 29.4052 38.6557 36.9085Z" fill="#EAB049"/>
<path d="M57.8756 17.9935C51.015 7.53826 63.0155 0.00427246 63.0155 0.00427246C55.7376 0.0984912 47.3304 1.96201 43.7665 9.29044C43.4191 10.0046 42.7645 10.5188 41.9958 10.7178C40.3024 11.1561 37.2567 12.477 35.2716 16.4354C35.0787 16.8184 34.9637 17.2359 34.9335 17.6637C34.9032 18.0915 34.9582 18.5211 35.0953 18.9275C36.06 21.7707 38.4105 29.4052 38.6557 36.9085H48.6541C54.9823 31.7825 61.9523 24.2063 57.8756 17.9935Z" fill="#EA9939"/>
<path d="M83.2772 35.6567C82.3156 34.7754 80.1657 35.2221 79.3374 35.7617C79.5188 36.8916 79.5291 38.0475 79.3723 39.1889L78.395 46.3074C78.395 46.8811 78.3769 47.4441 78.3436 47.9972C80.727 48.716 82.1452 46.5764 82.3446 45.1081C82.4302 44.4759 82.5711 43.8525 82.7656 43.245C83.3996 41.2655 85.6866 37.8647 83.2772 35.6567Z" fill="#FFD9A1"/>
<path d="M36.751 35.6567C37.7127 34.7754 39.8626 35.2221 40.6909 35.7617C40.5101 36.8961 40.4984 38.051 40.6559 39.1889L41.6333 46.3074C41.6333 46.8811 41.6513 47.4441 41.6846 47.9972C39.3013 48.716 37.8831 46.5764 37.6836 45.1081C37.598 44.4759 37.4571 43.8525 37.2627 43.245C36.6287 41.2655 34.3416 37.8647 36.751 35.6567Z" fill="#F9C98A"/>
<path d="M78.9835 33.5625C78.7634 32.9885 78.4862 32.4073 78.1367 31.8591C77.5449 30.9307 77.2845 29.8324 77.364 28.7372C77.592 25.5877 77.4699 19.4276 73.3351 17.5671C69.8223 15.9865 65.5135 16.9017 62.7657 17.8156C61.0468 18.3859 59.193 18.4075 57.4613 17.8772C54.3305 20.28 54.2569 25.6901 54.4686 28.571C54.5494 29.6721 54.2785 30.7737 53.6834 31.7072C53.3405 32.2453 53.0661 32.8149 52.8467 33.3785C52.1349 35.2071 51.9273 37.1904 52.194 39.1324L53.1844 46.3467C53.1844 56.7183 58.7208 63.7678 63.4304 67.425C64.1255 67.9648 64.8692 68.4291 65.6457 68.8254C66.669 68.3725 67.6333 67.7967 68.5175 67.1107C73.1654 63.5016 78.6294 56.5439 78.6294 46.3078L79.6067 39.1894C79.8676 37.2912 79.67 35.3531 78.9835 33.5625Z" fill="#FCE6CA"/>
<path d="M63.4638 67.1103C58.8159 63.5011 53.3519 56.5435 53.3519 46.3074L52.3744 39.1875C52.1112 37.271 52.316 35.3135 53.0187 33.5089C53.2352 32.9524 53.5059 32.3904 53.8446 31.8593C54.4295 30.938 54.7014 29.8524 54.6197 28.7642C54.4041 25.8307 54.488 20.2402 57.8761 17.9935C57.6695 17.9417 57.4649 17.8823 57.2627 17.8153C54.5147 16.9017 50.2059 15.9865 46.6934 17.5669C42.5468 19.4325 42.4357 25.6226 42.6666 28.7639C42.7484 29.8522 42.4765 30.9378 41.8915 31.8591C41.553 32.3902 41.2821 32.9522 41.0655 33.5086C40.3631 35.3133 40.1583 37.2708 40.4212 39.1873L41.3988 46.3071C41.3988 56.5432 46.863 63.5007 51.5107 67.11C53.9367 68.9939 56.9306 70.0172 60.0141 70.0172C62.082 70.017 64.1239 69.5552 65.9906 68.6653C65.0947 68.2397 64.2475 67.7183 63.4638 67.1103Z" fill="#FFD9A1"/>
</g>
<defs>
<clipPath id="clip0_2827_876">
<rect width="120" height="120" fill="white"/>
</clipPath>
</defs>
</svg>
