<svg width="512" height="344" viewBox="0 0 512 344" fill="none" xmlns="http://www.w3.org/2000/svg">
<path d="M381.64 37.5691L397.211 22.0001L376 0.789062L324.789 52.0001L376 103.211L397.211 82.0001L382.91 67.6991C437.534 71.3341 481 116.475 481 172C481 229.891 433.891 277 376 277C318.109 277 271 229.891 271 172C271 142.747 282.748 115.589 304.047 95.5501L314.975 85.2671L294.409 63.4261L283.481 73.6951C271.96 84.5401 263.039 97.5521 256.019 111.484C233.738 67.5091 188.581 37.0001 136 37.0001C61.557 37.0001 0 97.5571 0 172C0 209.075 16.498 244.92 43.48 270.32L54.408 280.589L74.974 258.748L64.046 248.465C42.748 228.426 31 201.268 31 172C31 114.109 78.109 67.0001 136 67.0001C193.891 67.0001 241 114.109 241 172C241 227.525 197.534 272.666 142.91 276.301L157.211 262L136 240.789L84.789 292L136 343.211L157.211 322L141.64 306.431C191.767 304.314 234.533 274.891 256 232.55C278.288 276.506 323.434 307 376 307C450.443 307 512 246.443 512 172C512 99.4881 453.421 40.6001 381.64 37.5691Z" fill="#F37A3D"/>
<path d="M181 172C181 169.19 180.729 166.443 180.233 163.774L195.443 154.979L180.443 129.007L165.214 137.813C161.022 134.22 156.203 131.429 151 129.58V112H121V129.58C115.797 131.429 110.979 134.22 106.786 137.813L91.5571 129.007L76.5571 154.979L91.7671 163.774C91.2721 166.443 91.0001 169.19 91.0001 172C91.0001 174.81 91.2721 177.557 91.7671 180.226L76.5571 189.021L91.5571 214.993L106.786 206.187C110.979 209.78 115.797 212.571 121 214.42V232H151V214.42C156.203 212.571 161.021 209.78 165.214 206.187L180.443 214.993L195.443 189.021L180.233 180.226C180.729 177.557 181 174.81 181 172Z" fill="#4D5E80"/>
<path d="M381.64 37.5691L397.211 22.0001L376 0.789062L324.789 52.0001L376 103.211L397.211 82.0001L382.91 67.6991C437.534 71.3341 481 116.475 481 172C481 229.891 433.891 277 376 277C318.109 277 271 229.891 271 172C271 142.747 282.748 115.589 304.047 95.5501L314.975 85.2671L294.409 63.4261L283.481 73.6951C271.96 84.5401 263.039 97.5521 256.019 111.484C256.015 111.473 256.008 111.464 256.001 111.453V232.55C278.288 276.506 323.434 307 376 307C450.443 307 512 246.443 512 172C512 99.4881 453.421 40.6001 381.64 37.5691Z" fill="#EC5436"/>
<path d="M421 172C421 169.19 420.729 166.443 420.233 163.774L435.443 154.979L420.443 129.007L405.214 137.813C401.022 134.22 396.203 131.429 391 129.58V112H361V129.58C355.797 131.429 350.979 134.22 346.786 137.813L331.557 129.007L316.557 154.979L331.767 163.774C331.271 166.443 331 169.19 331 172C331 174.81 331.271 177.557 331.767 180.226L316.557 189.021L331.557 214.993L346.786 206.187C350.979 209.78 355.797 212.571 361 214.42V232H391V214.42C396.203 212.571 401.021 209.78 405.214 206.187L420.443 214.993L435.443 189.021L420.233 180.226C420.729 177.557 421 174.81 421 172Z" fill="#3D4B66"/>
<path d="M376 187C384.284 187 391 180.284 391 172C391 163.716 384.284 157 376 157C367.716 157 361 163.716 361 172C361 180.284 367.716 187 376 187Z" fill="#F0E6E1"/>
<path d="M136 187C144.284 187 151 180.284 151 172C151 163.716 144.284 157 136 157C127.716 157 121 163.716 121 172C121 180.284 127.716 187 136 187Z" fill="#F9F4F3"/>
</svg>
