<svg width="101" height="100" viewBox="0 0 101 100" fill="none" xmlns="http://www.w3.org/2000/svg">
<path d="M59.875 43.75C66.7786 43.75 72.375 42.3509 72.375 40.625C72.375 38.8991 66.7786 37.5 59.875 37.5C52.9714 37.5 47.375 38.8991 47.375 40.625C47.375 42.3509 52.9714 43.75 59.875 43.75Z" fill="#222222"/>
<path d="M47.375 50C47.375 50.7969 51.6719 53.125 59.875 53.125C68.0781 53.125 72.375 50.7969 72.375 50V44.5625C68.4261 46.2333 64.1603 47.0224 59.875 46.875C55.5897 47.0224 51.3239 46.2333 47.375 44.5625V50ZM47.375 59.375C47.375 60.1719 51.6719 62.5 59.875 62.5C68.0781 62.5 72.375 60.1719 72.375 59.375V53.9375C68.4261 55.6083 64.1603 56.3974 59.875 56.25C55.5897 56.3974 51.3239 55.6083 47.375 53.9375V59.375ZM47.375 68.75C47.375 69.5469 51.6719 71.875 59.875 71.875C68.0781 71.875 72.375 69.5469 72.375 68.75V63.3125C68.4261 64.9833 64.1603 65.7724 59.875 65.625C55.5897 65.7724 51.3239 64.9833 47.375 63.3125V68.75Z" fill="#222222"/>
<path d="M42.6875 31.25C44.4134 31.25 45.8125 29.8509 45.8125 28.125C45.8125 26.3991 44.4134 25 42.6875 25C40.9616 25 39.5625 26.3991 39.5625 28.125C39.5625 29.8509 40.9616 31.25 42.6875 31.25Z" fill="#222222"/>
<path d="M83.3125 21.875H80.0938C79.8267 19.4359 78.9244 17.1095 77.4771 15.1281C76.0297 13.1468 74.088 11.5797 71.8456 10.5835C69.6033 9.58724 67.1388 9.19664 64.6983 9.45069C62.2578 9.70474 59.9266 10.5945 57.9375 12.0313C55.1683 8.52299 51.4525 5.88082 47.2295 4.41702C43.0065 2.95322 38.4526 2.72899 34.1062 3.77081C29.7598 4.81264 25.8024 7.07698 22.7019 10.2962C19.6014 13.5155 17.4873 17.555 16.6094 21.9375C12.9848 22.2137 9.60827 23.8839 7.18908 26.5971C4.76989 29.3103 3.49632 32.8555 3.63587 36.4879C3.77542 40.1203 5.31725 43.5573 7.93747 46.077C10.5577 48.5966 14.0524 50.0027 17.6875 50H44.25V40.625C44.25 36.625 51.2657 34.6563 58.3125 34.4063V31.25C58.3125 30.8356 58.1479 30.4382 57.8549 30.1452C57.5619 29.8521 57.1644 29.6875 56.75 29.6875H48.7188C48.3385 31.1604 47.434 32.4441 46.175 33.2978C44.916 34.1516 43.3888 34.5169 41.8797 34.3252C40.3706 34.1335 38.9833 33.398 37.9776 32.2566C36.972 31.1152 36.4172 29.6462 36.4172 28.125C36.4172 26.6038 36.972 25.1348 37.9776 23.9934C38.9833 22.852 40.3706 22.1165 41.8797 21.9248C43.3888 21.7332 44.916 22.0984 46.175 22.9522C47.434 23.806 48.3385 25.0896 48.7188 26.5625H56.75C57.9921 26.5662 59.1822 27.0613 60.0605 27.9396C60.9388 28.8178 61.4338 30.008 61.4375 31.25V34.4063C68.4844 34.6563 75.5 36.625 75.5 40.625H78.625V34.375C78.625 33.9606 78.7896 33.5632 79.0827 33.2702C79.3757 32.9771 79.7731 32.8125 80.1875 32.8125H83.3125V35.9375H81.75V42.1875C81.75 42.6019 81.5854 42.9994 81.2924 43.2924C80.9994 43.5854 80.6019 43.75 80.1875 43.75H75.5V50H83.3125C87.0421 50 90.619 48.5184 93.2562 45.8812C95.8934 43.244 97.375 39.6671 97.375 35.9375C97.375 32.2079 95.8934 28.6311 93.2562 25.9938C90.619 23.3566 87.0421 21.875 83.3125 21.875ZM89.5625 35.9375H86.4375V32.8125H89.5625V35.9375ZM86.4375 90.625C86.4394 92.1446 85.8865 93.6127 84.8828 94.7536C83.879 95.8946 82.4934 96.63 80.9859 96.8218C79.4784 97.0135 77.9528 96.6486 76.6953 95.7953C75.4378 94.9421 74.535 93.6592 74.1563 92.1875H59.875C59.4606 92.1875 59.0632 92.0229 58.7702 91.7299C58.4771 91.4368 58.3125 91.0394 58.3125 90.625V75H61.4375V89.0625H74.1563C74.535 87.5908 75.4378 86.308 76.6953 85.4547C77.9528 84.6015 79.4784 84.2365 80.9859 84.4283C82.4934 84.6201 83.879 85.3554 84.8828 86.4964C85.8865 87.6373 86.4394 89.1054 86.4375 90.625ZM44.25 56.25V59.375H36.4375C35.1955 59.3787 34.0053 59.8738 33.1271 60.7521C32.2488 61.6303 31.7537 62.8205 31.75 64.0625V84.375C31.75 86.447 30.9269 88.4342 29.4618 89.8993C27.9967 91.3644 26.0095 92.1875 23.9375 92.1875H15.9063C15.526 93.6604 14.6215 94.9441 13.3625 95.7978C12.1035 96.6516 10.5763 97.0169 9.06721 96.8252C7.55813 96.6335 6.17075 95.898 5.16514 94.7566C4.15954 93.6152 3.60474 92.1462 3.60474 90.625C3.60474 89.1038 4.15954 87.6348 5.16514 86.4934C6.17075 85.352 7.55813 84.6165 9.06721 84.4248C10.5763 84.2331 12.1035 84.5984 13.3625 85.4522C14.6215 86.306 15.526 87.5896 15.9063 89.0625H23.9375C25.1796 89.0588 26.3697 88.5638 27.248 87.6855C28.1263 86.8072 28.6213 85.6171 28.625 84.375V64.0625C28.625 61.9905 29.4481 60.0034 30.9133 58.5382C32.3784 57.0731 34.3655 56.25 36.4375 56.25H44.25ZM84.875 67.1875C84.875 65.9443 84.3812 64.752 83.5021 63.873C82.623 62.9939 81.4307 62.5 80.1875 62.5H75.5V65.625H80.1875C80.6019 65.625 80.9994 65.7896 81.2924 66.0827C81.5854 66.3757 81.75 66.7731 81.75 67.1875V79.6875C81.75 80.1019 81.9146 80.4993 82.2077 80.7924C82.5007 81.0854 82.8981 81.25 83.3125 81.25H91.125V78.125H84.875V67.1875ZM48.9375 93.75H44.25V96.875H50.5C50.9144 96.875 51.3119 96.7104 51.6049 96.4174C51.8979 96.1243 52.0625 95.7269 52.0625 95.3125V73.4375H48.9375V93.75ZM94.25 78.125H97.375V81.25H94.25V78.125ZM38 93.75H41.125V96.875H38V93.75Z" fill="#222222"/>
</svg>
