<svg width="30" height="30" viewBox="0 0 30 30" fill="none" xmlns="http://www.w3.org/2000/svg">
<path fill-rule="evenodd" clip-rule="evenodd" d="M3.75 13C3.75 10.2 3.75 8.8 4.295 7.73C4.77436 6.78923 5.53923 6.02436 6.48 5.545C7.55 5 8.95 5 11.75 5H18.25C21.05 5 22.45 5 23.52 5.545C24.4608 6.02436 25.2256 6.78923 25.705 7.73C26.25 8.8 26.25 10.2 26.25 13V14.5C26.25 17.3 26.25 18.7 25.705 19.77C25.2256 20.7108 24.4608 21.4756 23.52 21.955C22.45 22.5 21.05 22.5 18.25 22.5H9.2675C8.93601 22.5001 8.61812 22.6318 8.38375 22.8662L5.88375 25.3662C5.09625 26.1537 3.75 25.5963 3.75 24.4825V16.25V13ZM11.25 10C10.9185 10 10.6005 10.1317 10.3661 10.3661C10.1317 10.6005 10 10.9185 10 11.25C10 11.5815 10.1317 11.8995 10.3661 12.1339C10.6005 12.3683 10.9185 12.5 11.25 12.5H18.75C19.0815 12.5 19.3995 12.3683 19.6339 12.1339C19.8683 11.8995 20 11.5815 20 11.25C20 10.9185 19.8683 10.6005 19.6339 10.3661C19.3995 10.1317 19.0815 10 18.75 10H11.25ZM11.25 15C10.9185 15 10.6005 15.1317 10.3661 15.3661C10.1317 15.6005 10 15.9185 10 16.25C10 16.5815 10.1317 16.8995 10.3661 17.1339C10.6005 17.3683 10.9185 17.5 11.25 17.5H15C15.3315 17.5 15.6495 17.3683 15.8839 17.1339C16.1183 16.8995 16.25 16.5815 16.25 16.25C16.25 15.9185 16.1183 15.6005 15.8839 15.3661C15.6495 15.1317 15.3315 15 15 15H11.25Z" fill="#B4B4B4"/>
</svg>
