<svg width="60" height="60" viewBox="0 0 60 60" fill="none" xmlns="http://www.w3.org/2000/svg">
<path d="M30 27.75C27.1075 27.75 24.2799 28.6077 21.8748 30.2148C19.4697 31.8218 17.5952 34.1059 16.4883 36.7783C15.3813 39.4506 15.0917 42.3912 15.656 45.2282C16.2203 48.0652 17.6132 50.6711 19.6586 52.7164C21.7039 54.7618 24.3098 56.1547 27.1468 56.719C29.9838 57.2833 32.9244 56.9937 35.5968 55.8867C38.2691 54.7798 40.5532 52.9053 42.1602 50.5002C43.7673 48.0951 44.625 45.2676 44.625 42.375C44.625 38.4962 43.0842 34.7763 40.3414 32.0336C37.5987 29.2908 33.8788 27.75 30 27.75ZM30 51.375C28.22 51.375 26.4799 50.8472 24.9999 49.8582C23.5198 48.8693 22.3663 47.4637 21.6851 45.8191C21.0039 44.1746 20.8257 42.365 21.1729 40.6192C21.5202 38.8734 22.3774 37.2697 23.636 36.011C24.8947 34.7524 26.4984 33.8952 28.2442 33.5479C29.99 33.2007 31.7996 33.3789 33.4442 34.0601C35.0887 34.7413 36.4943 35.8948 37.4832 37.3749C38.4722 38.8549 39 40.595 39 42.375C39 44.7619 38.0518 47.0511 36.364 48.739C34.6761 50.4268 32.387 51.375 30 51.375Z" fill="#ED632B"/>
<path d="M30 49.125C33.7279 49.125 36.75 46.1029 36.75 42.375C36.75 38.6471 33.7279 35.625 30 35.625C26.2721 35.625 23.25 38.6471 23.25 42.375C23.25 46.1029 26.2721 49.125 30 49.125Z" fill="#ED632B"/>
<path d="M55.875 3H4.125C3.82663 3 3.54048 3.11853 3.3295 3.3295C3.11853 3.54048 3 3.82663 3 4.125V15.375C3 15.6734 3.11853 15.9595 3.3295 16.1705C3.54048 16.3815 3.82663 16.5 4.125 16.5H8.625V14.25H5.25V5.25H54.75V14.25H51.375V16.5H55.875C56.1734 16.5 56.4595 16.3815 56.6705 16.1705C56.8815 15.9595 57 15.6734 57 15.375V4.125C57 3.82663 56.8815 3.54048 56.6705 3.3295C56.4595 3.11853 56.1734 3 55.875 3Z" fill="#ED632B"/>
<path d="M23.25 26.9175V12C23.25 11.7016 23.1315 11.4155 22.9205 11.2045C22.7095 10.9935 22.4234 10.875 22.125 10.875H12C11.7016 10.875 11.4155 10.9935 11.2045 11.2045C10.9935 11.4155 10.875 11.7016 10.875 12V23.25C10.8746 23.4412 10.923 23.6293 11.0155 23.7966C11.108 23.9639 11.2416 24.1049 11.4038 24.2063L19.4475 29.235C20.6064 28.2969 21.8851 27.5176 23.25 26.9175ZM34.5 26.13V10.875H25.5V26.13C28.4412 25.2903 31.5588 25.2903 34.5 26.13ZM48 10.875H37.875C37.5766 10.875 37.2905 10.9935 37.0795 11.2045C36.8685 11.4155 36.75 11.7016 36.75 12V26.9175C38.1149 27.5176 39.3936 28.2969 40.5525 29.235L48.5963 24.2063C48.7584 24.1049 48.892 23.9639 48.9845 23.7966C49.077 23.6293 49.1254 23.4412 49.125 23.25V12C49.125 11.7016 49.0065 11.4155 48.7955 11.2045C48.5845 10.9935 48.2984 10.875 48 10.875Z" fill="#ED632B"/>
</svg>
