<svg width="100" height="101" viewBox="0 0 100 101" fill="none" xmlns="http://www.w3.org/2000/svg">
<g clip-path="url(#clip0_313_1358)">
<path d="M79.1668 50.2781C79.1668 59.2781 75.0835 67.6115 68.0418 73.1948C65.1668 75.4448 63.2918 78.4031 62.7085 81.5698C62.6251 81.5281 62.5835 81.5281 62.5001 81.5281H37.5001C37.4168 81.5281 37.2918 81.5281 37.2085 81.5698C36.6251 78.2781 34.9168 75.4031 32.4585 73.5698C23.3751 66.6948 19.1251 55.4448 21.4585 44.1115C23.7501 33.0698 32.7085 24.0698 43.7501 21.7781C52.5418 19.9031 61.5418 22.0698 68.3751 27.6115C71.7545 30.3422 74.4782 33.7961 76.3459 37.7189C78.2136 41.6417 79.1775 45.9334 79.1668 50.2781Z" fill="#ED632B"/>
<path d="M62.708 81.569C62.583 82.2773 62.4997 82.9857 62.4997 83.7357V92.9857C62.4997 96.9857 59.208 100.277 55.208 100.277H44.7913C41.2913 100.277 37.4997 97.6107 37.4997 91.7773V84.4023C37.4997 83.444 37.4163 82.4857 37.208 81.569C37.2913 81.5273 37.4163 81.5273 37.4997 81.5273H62.4997C62.583 81.5273 62.6247 81.5273 62.708 81.569Z" fill="#222222"/>
<path d="M59.375 87.7773H40.625C39.7962 87.7773 39.0013 87.4481 38.4153 86.8621C37.8292 86.276 37.5 85.4811 37.5 84.6523C37.5 83.8235 37.8292 83.0287 38.4153 82.4426C39.0013 81.8566 39.7962 81.5273 40.625 81.5273H59.375C60.2038 81.5273 60.9987 81.8566 61.5847 82.4426C62.1708 83.0287 62.5 83.8235 62.5 84.6523C62.5 85.4811 62.1708 86.276 61.5847 86.8621C60.9987 87.4481 60.2038 87.7773 59.375 87.7773ZM50 14.6815C49.1712 14.6815 48.3763 14.3523 47.7903 13.7662C47.2042 13.1802 46.875 12.3853 46.875 11.5565V3.40234C46.875 2.57354 47.2042 1.77869 47.7903 1.19263C48.3763 0.606584 49.1712 0.277344 50 0.277344C50.8288 0.277344 51.6237 0.606584 52.2097 1.19263C52.7958 1.77869 53.125 2.57354 53.125 3.40234V11.5565C53.125 12.3853 52.7958 13.1802 52.2097 13.7662C51.6237 14.3523 50.8288 14.6815 50 14.6815ZM77.3792 26.0232C76.7606 26.0235 76.1559 25.8402 75.6417 25.4966C75.1274 25.1529 74.7266 24.6644 74.4901 24.0929C74.2537 23.5214 74.1921 22.8925 74.3133 22.286C74.4345 21.6794 74.7329 21.1225 75.1708 20.6857L80.9375 14.919C81.2278 14.6287 81.5724 14.3985 81.9516 14.2414C82.3309 14.0843 82.7374 14.0034 83.1479 14.0034C83.5584 14.0034 83.9649 14.0843 84.3442 14.2414C84.7234 14.3985 85.0681 14.6287 85.3583 14.919C85.6486 15.2093 85.8789 15.5539 86.036 15.9332C86.1931 16.3124 86.2739 16.7189 86.2739 17.1294C86.2739 17.5399 86.1931 17.9464 86.036 18.3257C85.8789 18.705 85.6486 19.0496 85.3583 19.3398L79.5917 25.1065C79.0046 25.693 78.2089 26.0226 77.3792 26.0232ZM96.875 53.4023H88.7208C87.892 53.4023 87.0972 53.0731 86.5111 52.487C85.9251 51.901 85.5958 51.1061 85.5958 50.2773C85.5958 49.4485 85.9251 48.6537 86.5111 48.0676C87.0972 47.4816 87.892 47.1523 88.7208 47.1523H96.875C97.7038 47.1523 98.4987 47.4816 99.0847 48.0676C99.6708 48.6537 100 49.4485 100 50.2773C100 51.1061 99.6708 51.901 99.0847 52.487C98.4987 53.0731 97.7038 53.4023 96.875 53.4023ZM83.1458 86.5482C82.7354 86.5492 82.3288 86.4687 81.9497 86.3113C81.5706 86.154 81.2266 85.9229 80.9375 85.6315L75.1708 79.8648C74.8806 79.5746 74.6503 79.23 74.4932 78.8507C74.3361 78.4714 74.2552 78.0649 74.2552 77.6544C74.2552 77.2439 74.3361 76.8374 74.4932 76.4582C74.6503 76.0789 74.8806 75.7343 75.1708 75.444C75.4611 75.1537 75.8057 74.9235 76.185 74.7664C76.5642 74.6093 76.9707 74.5284 77.3812 74.5284C77.7918 74.5284 78.1982 74.6093 78.5775 74.7664C78.9568 74.9235 79.3014 75.1537 79.5917 75.444L85.3583 81.2107C85.7965 81.6477 86.095 82.2051 86.2161 82.812C86.3371 83.4189 86.2752 84.0481 86.0382 84.6198C85.8012 85.1915 85.3998 85.68 84.8849 86.0233C84.37 86.3666 83.7647 86.5493 83.1458 86.5482ZM16.8542 86.5482C16.2356 86.5485 15.6309 86.3652 15.1167 86.0216C14.6024 85.6779 14.2016 85.1894 13.9651 84.6179C13.7287 84.0463 13.6671 83.4175 13.7883 82.811C13.9095 82.2044 14.2079 81.6475 14.6458 81.2107L20.4125 75.444C20.7028 75.1537 21.0474 74.9235 21.4266 74.7664C21.8059 74.6093 22.2124 74.5284 22.6229 74.5284C23.0334 74.5284 23.4399 74.6093 23.8192 74.7664C24.1985 74.9235 24.5431 75.1537 24.8333 75.444C25.1236 75.7343 25.3539 76.0789 25.511 76.4582C25.6681 76.8374 25.7489 77.2439 25.7489 77.6544C25.7489 78.0649 25.6681 78.4714 25.511 78.8507C25.3539 79.23 25.1236 79.5746 24.8333 79.8648L19.0667 85.6315C18.7765 85.9226 18.4317 86.1535 18.052 86.3108C17.6723 86.4682 17.2652 86.5488 16.8542 86.5482ZM11.2792 53.4023H3.125C2.2962 53.4023 1.50134 53.0731 0.915291 52.487C0.32924 51.901 0 51.1061 0 50.2773C0 49.4485 0.32924 48.6537 0.915291 48.0676C1.50134 47.4816 2.2962 47.1523 3.125 47.1523H11.2792C12.108 47.1523 12.9028 47.4816 13.4889 48.0676C14.0749 48.6537 14.4042 49.4485 14.4042 50.2773C14.4042 51.1061 14.0749 51.901 13.4889 52.487C12.9028 53.0731 12.108 53.4023 11.2792 53.4023ZM22.6208 26.0232C22.2104 26.0242 21.8038 25.9437 21.4247 25.7863C21.0456 25.629 20.7016 25.3979 20.4125 25.1065L14.6458 19.3398C14.3556 19.0496 14.1253 18.705 13.9682 18.3257C13.8111 17.9464 13.7302 17.5399 13.7302 17.1294C13.7302 16.7189 13.8111 16.3124 13.9682 15.9332C14.1253 15.5539 14.3556 15.2093 14.6458 14.919C14.9361 14.6287 15.2807 14.3985 15.66 14.2414C16.0392 14.0843 16.4457 14.0034 16.8562 14.0034C17.2668 14.0034 17.6733 14.0843 18.0525 14.2414C18.4318 14.3985 18.7764 14.6287 19.0667 14.919L24.8333 20.6857C25.2715 21.1227 25.57 21.6801 25.6911 22.287C25.8121 22.8939 25.7502 23.5231 25.5132 24.0948C25.2763 24.6665 24.8748 25.155 24.3599 25.4983C23.845 25.8416 23.2397 26.0243 22.6208 26.0232ZM65.625 52.3607C64.7962 52.3607 64.0013 52.0314 63.4153 51.4454C62.8292 50.8593 62.5 50.0645 62.5 49.2357C62.4978 46.1974 61.2899 43.2842 59.1415 41.1358C56.9931 38.9875 54.0799 37.7795 51.0417 37.7773C50.2129 37.7773 49.418 37.4481 48.832 36.862C48.2459 36.276 47.9167 35.4811 47.9167 34.6523C47.9167 33.8235 48.2459 33.0287 48.832 32.4426C49.418 31.8566 50.2129 31.5273 51.0417 31.5273C55.7365 31.5329 60.2375 33.4003 63.5573 36.7201C66.877 40.0398 68.7445 44.5408 68.75 49.2357C68.75 50.0645 68.4208 50.8593 67.8347 51.4454C67.2487 52.0314 66.4538 52.3607 65.625 52.3607Z" fill="black"/>
<path d="M55.2084 100.278H44.7917C41.2792 100.278 37.5 97.6113 37.5 91.7612V84.4113C37.5 79.9904 35.6167 75.9321 32.4625 73.5571C23.3584 66.7029 19.1459 55.4279 21.4667 44.1321C23.7375 33.0654 32.6917 24.0779 43.7459 21.7654C52.5375 19.9154 61.5292 22.0571 68.3875 27.6321C71.7611 30.3624 74.4804 33.8136 76.3457 37.7324C78.211 41.6511 79.1749 45.9379 79.1667 50.2779C79.1768 54.6931 78.1778 59.0523 76.2461 63.0226C74.3145 66.9928 71.5011 70.4692 68.0209 73.1862C64.5125 75.9446 62.5 79.7863 62.5 83.7238V92.9863C62.5 97.0071 59.2292 100.278 55.2084 100.278ZM49.9417 27.3696C48.3084 27.3696 46.6625 27.5404 45.0167 27.8821C36.3667 29.6904 29.3625 36.7238 27.5834 45.3863C25.7542 54.2904 29.0625 63.1738 36.2167 68.5613C40.9292 72.1113 43.7459 78.0363 43.7459 84.4113V91.7612C43.7459 92.1404 43.7959 94.0279 44.7875 94.0279H55.2042C55.4805 94.0279 55.7454 93.9182 55.9408 93.7228C56.1361 93.5275 56.2459 93.2625 56.2459 92.9863V83.7238C56.2459 77.8529 59.1292 72.2238 64.1542 68.2696C66.8896 66.1371 69.1013 63.4073 70.62 60.289C72.1387 57.1707 72.9243 53.7464 72.9167 50.2779C72.9221 46.8671 72.1637 43.4984 70.6972 40.419C69.2306 37.3396 67.0932 34.6276 64.4417 32.4821C60.3406 29.1602 55.2193 27.3545 49.9417 27.3696Z" fill="black"/>
</g>
<defs>
<clipPath id="clip0_313_1358">
<rect width="100" height="100" fill="white" transform="translate(0 0.277344)"/>
</clipPath>
</defs>
</svg>
