<svg width="50" height="50" viewBox="0 0 50 50" fill="none" xmlns="http://www.w3.org/2000/svg">
<path d="M49.7247 12.93C49.9997 16.0825 49.9997 20.015 49.9997 25C49.9997 35.335 49.9997 41.1375 47.5322 44.8775L32.6497 30L49.7247 12.93ZM44.8797 47.53L29.9997 32.65L12.9297 49.725C16.0822 50 20.0147 50 24.9997 50C35.3347 50 41.1397 50 44.8797 47.53Z" fill="#ED632B"/>
<path fill-rule="evenodd" clip-rule="evenodd" d="M25 0C36.785 0 42.6775 0 46.3375 3.66C47.5975 4.92 48.425 6.445 48.9675 8.3825L8.3825 48.9675C6.445 48.425 4.92 47.5975 3.66 46.3375C0 42.68 0 36.785 0 25C0 13.215 0 7.3225 3.66 3.66C7.325 0 13.215 0 25 0ZM8.75 16.8925C8.75 21.355 11.5425 26.5625 15.9 28.425C16.915 28.8575 18.085 28.8575 19.1 28.425C23.4575 26.5625 26.25 21.355 26.25 16.8925C26.25 12.395 22.3325 8.75 17.5 8.75C12.6675 8.75 8.75 12.395 8.75 16.8925Z" fill="#ED632B"/>
<path d="M21.25 17.5C21.25 18.4946 20.8549 19.4484 20.1517 20.1517C19.4484 20.8549 18.4946 21.25 17.5 21.25C16.5054 21.25 15.5516 20.8549 14.8483 20.1517C14.1451 19.4484 13.75 18.4946 13.75 17.5C13.75 16.5054 14.1451 15.5516 14.8483 14.8483C15.5516 14.1451 16.5054 13.75 17.5 13.75C18.4946 13.75 19.4484 14.1451 20.1517 14.8483C20.8549 15.5516 21.25 16.5054 21.25 17.5Z" fill="#ED632B"/>
</svg>
