<svg width="1095" height="422" viewBox="0 0 1095 422" fill="none" xmlns="http://www.w3.org/2000/svg">
<g clip-path="url(#clip0_465_842)">
<path d="M173.386 173.385L300 46.7737C233.591 -15.593 113.181 -15.5894 46.7725 46.7737L173.386 173.385Z" fill="#ED632B"/>
<path d="M173.386 173.385L46.7725 299.998C113.181 362.368 233.595 362.36 300 299.998L173.386 173.385Z" fill="#ED632B"/>
<path d="M173.386 173.385L46.7724 46.7739C-15.5926 113.183 -15.589 233.595 46.7724 299.999L173.386 173.385Z" fill="#ED632B"/>
<path d="M461.963 97.0645C465.921 97.0645 470.065 97.3737 474.395 97.9922C478.724 98.487 481.94 98.9199 484.043 99.291L477.549 167.758C475.199 167.139 472.168 166.645 468.457 166.273C464.746 165.779 459.551 165.531 452.871 165.531C448.294 165.531 443.408 165.964 438.213 166.83C433.018 167.696 428.07 169.551 423.369 172.396C418.792 175.118 415.02 179.324 412.051 185.014C409.082 190.58 407.598 198.126 407.598 207.65V311H335.049V100.775H389.043L400.361 134.359H403.887C407.721 127.432 412.607 121.186 418.545 115.619C424.606 109.929 431.348 105.414 438.77 102.074C446.315 98.7344 454.046 97.0645 461.963 97.0645ZM608.174 97.0645C628.584 97.0645 646.211 100.652 661.055 107.826C675.898 114.877 687.34 125.515 695.381 139.74C703.421 153.965 707.441 171.778 707.441 193.178V225.463H577.744C578.363 236.472 582.445 245.502 589.99 252.553C597.66 259.604 608.916 263.129 623.76 263.129C636.872 263.129 648.87 261.83 659.756 259.232C670.765 256.635 682.083 252.615 693.711 247.172V299.311C683.568 304.63 672.497 308.526 660.498 311C648.499 313.474 633.346 314.711 615.039 314.711C593.887 314.711 574.961 310.938 558.262 303.393C541.562 295.847 528.389 284.158 518.74 268.324C509.215 252.491 504.453 232.143 504.453 207.279C504.453 182.045 508.783 161.326 517.441 145.121C526.1 128.793 538.223 116.732 553.809 108.939C569.395 101.023 587.516 97.0645 608.174 97.0645ZM610.771 146.42C602.236 146.42 595.062 149.141 589.248 154.584C583.558 159.903 580.218 168.314 579.229 179.818H641.572C641.449 173.633 640.212 168.005 637.861 162.934C635.511 157.862 632.048 153.842 627.471 150.873C623.018 147.904 617.451 146.42 610.771 146.42ZM904.678 246.43C904.678 259.789 901.709 271.602 895.771 281.869C889.834 292.136 880.309 300.176 867.197 305.99C854.209 311.804 837.077 314.711 815.801 314.711C800.833 314.711 787.412 313.907 775.537 312.299C763.786 310.691 751.849 307.598 739.727 303.021V244.945C752.962 251.007 766.445 255.398 780.176 258.119C793.906 260.717 804.73 262.016 812.646 262.016C820.811 262.016 826.748 261.15 830.459 259.418C834.294 257.562 836.211 254.841 836.211 251.254C836.211 248.161 834.912 245.564 832.314 243.461C829.84 241.234 825.326 238.699 818.77 235.854C812.337 233.008 803.245 229.174 791.494 224.35C779.867 219.525 770.156 214.268 762.363 208.578C754.694 202.888 748.942 196.085 745.107 188.168C741.273 180.251 739.355 170.541 739.355 159.037C739.355 138.503 747.272 123.041 763.105 112.65C778.939 102.26 799.906 97.0645 826.006 97.0645C839.86 97.0645 852.91 98.6107 865.156 101.703C877.402 104.672 890.081 109.063 903.193 114.877L883.34 161.635C872.949 156.934 862.435 153.161 851.797 150.316C841.159 147.471 832.686 146.049 826.377 146.049C820.687 146.049 816.296 146.791 813.203 148.275C810.111 149.76 808.564 151.924 808.564 154.77C808.564 157.367 809.616 159.656 811.719 161.635C813.945 163.614 818.089 165.902 824.15 168.5C830.212 171.098 839.056 174.747 850.684 179.447C862.93 184.395 873.011 189.714 880.928 195.404C888.968 200.971 894.906 207.774 898.74 215.814C902.699 223.855 904.678 234.06 904.678 246.43ZM1048.11 257.377C1054.66 257.377 1060.66 256.697 1066.1 255.336C1071.55 253.975 1077.24 252.243 1083.17 250.141V303.021C1075.26 306.485 1066.85 309.268 1057.94 311.371C1049.16 313.598 1037.9 314.711 1024.17 314.711C1010.56 314.711 998.564 312.608 988.174 308.402C977.783 304.073 969.681 296.651 963.867 286.137C958.177 275.499 955.332 260.717 955.332 241.791V155.141H929.912V125.639L962.197 102.816L980.938 58.6562H1028.44V100.775H1080.02V155.141H1028.44V236.967C1028.44 243.77 1030.17 248.904 1033.63 252.367C1037.1 255.707 1041.92 257.377 1048.11 257.377Z" fill="#ED632B"/>
<rect width="340" height="6" transform="translate(0 390.272)" fill="#ED632B"/>
<path d="M383.226 406.107C383.226 408.9 382.527 411.296 381.131 413.294C379.756 415.271 377.812 416.785 375.298 417.838C372.784 418.891 369.798 419.417 366.339 419.417C364.599 419.417 362.934 419.32 361.344 419.127C359.775 418.955 358.314 418.697 356.961 418.354C355.607 418.01 354.383 417.58 353.287 417.064V410.812C355.07 411.543 357.133 412.23 359.475 412.875C361.816 413.498 364.233 413.81 366.726 413.81C368.896 413.81 370.711 413.52 372.172 412.939C373.654 412.338 374.771 411.5 375.523 410.426C376.275 409.352 376.651 408.062 376.651 406.559C376.651 405.055 376.286 403.798 375.556 402.788C374.825 401.757 373.665 400.812 372.075 399.952C370.507 399.093 368.444 398.18 365.888 397.213C364.104 396.568 362.482 395.838 361.021 395.021C359.561 394.184 358.293 393.228 357.219 392.153C356.166 391.079 355.35 389.822 354.77 388.383C354.189 386.922 353.899 385.246 353.899 383.355C353.899 380.756 354.533 378.532 355.801 376.685C357.09 374.837 358.884 373.43 361.183 372.463C363.481 371.475 366.146 370.98 369.175 370.98C371.667 370.98 373.987 371.228 376.136 371.722C378.306 372.216 380.368 372.893 382.323 373.752L380.229 379.23C378.402 378.479 376.565 377.866 374.718 377.394C372.87 376.921 370.958 376.685 368.981 376.685C367.155 376.685 365.608 376.953 364.341 377.49C363.095 378.027 362.139 378.79 361.473 379.778C360.828 380.767 360.506 381.938 360.506 383.291C360.506 384.816 360.85 386.084 361.537 387.094C362.225 388.104 363.31 389.017 364.792 389.833C366.274 390.649 368.208 391.52 370.593 392.443C373.278 393.475 375.556 394.57 377.425 395.73C379.315 396.891 380.755 398.287 381.743 399.92C382.731 401.553 383.226 403.615 383.226 406.107ZM431.505 418.772H423.803L407.979 396.633L403.146 400.758V418.772H396.539V371.657H403.146V394.667C404.241 393.378 405.348 392.1 406.465 390.832C407.604 389.564 408.731 388.286 409.849 386.997L423.352 371.657H430.925L412.749 392.186L431.505 418.772ZM441.854 418.772V371.657H448.46V418.772H441.854ZM465.189 418.772V371.657H471.796V413.036H492.26V418.772H465.189ZM504.381 418.772V371.657H510.987V413.036H531.451V418.772H504.381ZM570.481 406.107C570.481 408.9 569.783 411.296 568.387 413.294C567.012 415.271 565.067 416.785 562.554 417.838C560.04 418.891 557.054 419.417 553.595 419.417C551.854 419.417 550.189 419.32 548.6 419.127C547.031 418.955 545.57 418.697 544.217 418.354C542.863 418.01 541.639 417.58 540.543 417.064V410.812C542.326 411.543 544.389 412.23 546.73 412.875C549.072 413.498 551.489 413.81 553.981 413.81C556.151 413.81 557.967 413.52 559.428 412.939C560.91 412.338 562.027 411.5 562.779 410.426C563.531 409.352 563.907 408.062 563.907 406.559C563.907 405.055 563.542 403.798 562.812 402.788C562.081 401.757 560.921 400.812 559.331 399.952C557.763 399.093 555.7 398.18 553.144 397.213C551.36 396.568 549.738 395.838 548.277 395.021C546.816 394.184 545.549 393.228 544.475 392.153C543.422 391.079 542.605 389.822 542.025 388.383C541.445 386.922 541.155 385.246 541.155 383.355C541.155 380.756 541.789 378.532 543.057 376.685C544.346 374.837 546.14 373.43 548.438 372.463C550.737 371.475 553.401 370.98 556.431 370.98C558.923 370.98 561.243 371.228 563.392 371.722C565.562 372.216 567.624 372.893 569.579 373.752L567.484 379.23C565.658 378.479 563.821 377.866 561.974 377.394C560.126 376.921 558.214 376.685 556.237 376.685C554.411 376.685 552.864 376.953 551.597 377.49C550.351 378.027 549.395 378.79 548.729 379.778C548.084 380.767 547.762 381.938 547.762 383.291C547.762 384.816 548.105 386.084 548.793 387.094C549.48 388.104 550.565 389.017 552.048 389.833C553.53 390.649 555.464 391.52 557.849 392.443C560.534 393.475 562.812 394.57 564.681 395.73C566.571 396.891 568.011 398.287 568.999 399.92C569.987 401.553 570.481 403.615 570.481 406.107ZM610.253 418.772H583.795V371.657H610.253V377.329H590.401V391.348H609.061V396.955H590.401V413.068H610.253V418.772ZM637.521 371.657C641.495 371.657 644.771 372.151 647.35 373.14C649.949 374.106 651.883 375.589 653.15 377.587C654.418 379.563 655.052 382.077 655.052 385.128C655.052 387.534 654.611 389.564 653.73 391.219C652.85 392.873 651.689 394.227 650.25 395.279C648.832 396.332 647.307 397.159 645.674 397.761L658.854 418.772H651.281L639.809 399.501H631.14V418.772H624.533V371.657H637.521ZM637.102 377.265H631.14V393.99H637.553C641.27 393.99 643.987 393.271 645.706 391.831C647.425 390.37 648.284 388.222 648.284 385.386C648.284 382.442 647.371 380.358 645.545 379.134C643.719 377.888 640.904 377.265 637.102 377.265ZM703.911 371.657L687.218 418.772H680.354L663.66 371.657H670.492L680.966 401.95C681.353 403.003 681.718 404.12 682.062 405.302C682.405 406.462 682.728 407.622 683.028 408.782C683.329 409.942 683.576 411.006 683.77 411.973C683.963 411.006 684.199 409.942 684.479 408.782C684.779 407.622 685.112 406.451 685.478 405.27C685.843 404.066 686.208 402.928 686.573 401.854L697.015 371.657H703.911ZM740.718 418.772H714.26V371.657H740.718V377.329H720.866V391.348H739.525V396.955H720.866V413.068H740.718V418.772Z" fill="#ED632B"/>
<rect width="340" height="6" transform="translate(755 390.272)" fill="#ED632B"/>
</g>
<defs>
<clipPath id="clip0_465_842">
<rect width="1095" height="421.772" fill="white"/>
</clipPath>
</defs>
</svg>
