<svg width="60" height="60" viewBox="0 0 60 60" fill="none" xmlns="http://www.w3.org/2000/svg">
<g clip-path="url(#clip0_353_1338)">
<path fill-rule="evenodd" clip-rule="evenodd" d="M21.6387 1.18286C15.839 2.86986 10.6829 6.26681 6.84395 10.93C3.00501 15.5931 0.661696 21.3057 0.120117 27.3214H13.8344C14.6294 18.1674 17.2836 9.27173 21.6344 1.17858L21.6387 1.18286ZM13.8344 32.6786H0.120117C0.660564 38.6945 3.00287 44.4077 6.84106 49.0716C10.6793 53.7355 15.8349 57.1334 21.6344 58.8214C17.2836 50.7283 14.6294 41.8326 13.8344 32.6786ZM28.5087 59.9657C23.3092 51.7263 20.1233 42.3783 19.2087 32.6786H40.7873C39.8727 42.3783 36.6867 51.7263 31.4873 59.9657C30.495 60.0139 29.501 60.0139 28.5087 59.9657ZM38.3658 58.8171C44.1647 57.1294 49.3199 53.7322 53.158 49.0691C56.9962 44.406 59.3388 38.6938 59.8801 32.6786H46.1658C45.3708 41.8326 42.7167 50.7283 38.3658 58.8214V58.8171ZM46.1658 27.3214H59.8801C59.3397 21.3055 56.9974 15.5923 53.1592 10.9284C49.321 6.26448 44.1654 2.86657 38.3658 1.17858C42.7168 9.27168 45.3709 18.1674 46.1658 27.3214ZM28.5087 0.0342929C29.5024 -0.0143606 30.4979 -0.0143606 31.4915 0.0342929C36.6895 8.27405 39.874 17.6221 40.7873 27.3214H19.213C20.143 17.5629 23.3358 8.20715 28.5087 0.0342929Z" fill="#ED632B"/>
</g>
<defs>
<clipPath id="clip0_353_1338">
<rect width="60" height="60" fill="white"/>
</clipPath>
</defs>
</svg>
