<svg width="60" height="60" viewBox="0 0 60 60" fill="none" xmlns="http://www.w3.org/2000/svg">
<g clip-path="url(#clip0_118_898)">
<path d="M54.2036 33.5099L40.8262 40.8261L33.51 54.2035C31.9912 56.9801 28.0087 56.9796 26.4901 54.2035L19.1739 40.8261L5.7965 33.5099C3.0199 31.991 3.0204 28.0086 5.7965 26.49L19.1739 19.1738L26.4901 5.79638C28.0089 3.0199 31.9914 3.02015 33.51 5.79638L40.8262 19.1738L54.2036 26.49C56.9802 28.0088 56.9797 31.9913 54.2036 33.5099Z" fill="#ED632B"/>
<path d="M20.8176 47.9998L15.3676 49.596C12.3283 50.4865 9.51404 47.6696 10.4039 44.6323L12.0001 39.1824L17.7001 42.2999L20.8176 47.9998ZM44.6324 49.596L39.1824 47.9998L42.2999 42.2999L47.9998 39.1824L49.5961 44.6323C50.4799 47.6489 47.6946 50.4865 44.6324 49.596ZM49.5961 15.3676L47.9998 20.8175L42.2999 17.7001L39.1824 12.0001L44.6324 10.4039C47.6707 9.51375 50.4859 12.3304 49.5961 15.3676ZM20.8176 12.0001L17.7001 17.7001L12.0001 20.8175L10.4039 15.3676C9.51341 12.3282 12.3304 9.514 15.3676 10.4039L20.8176 12.0001ZM17.9876 60C17.2807 60 16.79 59.2786 17.0641 58.6171L18.3758 55.4502C18.4261 55.3289 18.4998 55.2187 18.5926 55.1258C18.6855 55.0329 18.7957 54.9593 18.917 54.909C19.0384 54.8588 19.1684 54.8329 19.2997 54.8329C19.4311 54.8329 19.5611 54.8587 19.6825 54.909C19.8038 54.9593 19.914 55.0329 20.0069 55.1258C20.0998 55.2186 20.1734 55.3289 20.2237 55.4502C20.2739 55.5715 20.2998 55.7016 20.2998 55.8329C20.2998 55.9642 20.274 56.0943 20.2237 56.2156L18.912 59.3825C18.8362 59.5652 18.7079 59.7214 18.5434 59.8313C18.3789 59.9412 18.1854 59.9999 17.9876 60ZM40.7 5.16729C39.9927 5.16729 39.5027 4.44542 39.7765 3.78442L41.0883 0.617449C41.1375 0.494723 41.2107 0.382988 41.3034 0.288711C41.3961 0.194435 41.5067 0.11949 41.6286 0.0682151C41.7505 0.0169401 41.8813 -0.00964667 42.0136 -0.0100061C42.1458 -0.0103655 42.2768 0.0155096 42.399 0.0661213C42.5212 0.116733 42.6321 0.191076 42.7253 0.284847C42.8186 0.378618 42.8923 0.489954 42.9423 0.612411C42.9922 0.734867 43.0173 0.866012 43.0162 0.998252C43.0151 1.13049 42.9878 1.2612 42.9359 1.38282L41.6241 4.54967C41.5485 4.73248 41.4203 4.88874 41.2558 4.99868C41.0913 5.10861 40.8979 5.16729 40.7 5.16729ZM1.00061 43.0123C0.769278 43.0123 0.545128 42.932 0.366324 42.7852C0.187521 42.6385 0.0651175 42.4342 0.0199572 42.2074C-0.0252032 41.9805 0.00967133 41.745 0.118643 41.5409C0.227614 41.3369 0.403944 41.1769 0.61761 41.0882L3.78446 39.7765C4.0295 39.675 4.30482 39.675 4.54986 39.7765C4.7949 39.878 4.98958 40.0727 5.09107 40.3177C5.19257 40.5628 5.19256 40.8381 5.09106 41.0831C4.98955 41.3282 4.79487 41.5229 4.54983 41.6244C1.1456 43.0342 1.27548 43.0123 1.00061 43.0123ZM55.8333 20.2998C55.6018 20.3 55.3774 20.2199 55.1983 20.0732C55.0193 19.9264 54.8967 19.7221 54.8515 19.4951C54.8063 19.268 54.8413 19.0323 54.9504 18.8282C55.0596 18.6241 55.2362 18.4641 55.4502 18.3757L58.617 17.0639C58.862 16.9624 59.1374 16.9624 59.3824 17.0639C59.6274 17.1655 59.8221 17.3601 59.9236 17.6052C60.0251 17.8502 60.0251 18.1255 59.9236 18.3706C59.8221 18.6156 59.6274 18.8103 59.3824 18.9118C55.9784 20.3218 56.1081 20.2998 55.8333 20.2998ZM19.3001 5.16729C19.1022 5.16731 18.9088 5.10866 18.7443 4.99874C18.5798 4.88883 18.4515 4.73259 18.3758 4.54979L17.0641 1.38294C16.9626 1.1379 16.9626 0.862578 17.0641 0.61754C17.1656 0.372503 17.3603 0.177823 17.6053 0.0763288C17.8504 -0.0251654 18.1257 -0.0251603 18.3707 0.0763429C18.6158 0.177846 18.8105 0.372533 18.912 0.617574L20.2237 3.78442C20.4978 4.44629 20.0066 5.16729 19.3001 5.16729ZM42.0125 60C41.8146 60 41.6212 59.9414 41.4567 59.8315C41.2922 59.7215 41.164 59.5653 41.0883 59.3825L39.7765 56.2156C39.7246 56.094 39.6973 55.9633 39.6962 55.831C39.6951 55.6988 39.7202 55.5677 39.7702 55.4452C39.8201 55.3227 39.8938 55.2114 39.9871 55.1176C40.0803 55.0239 40.1912 54.9495 40.3134 54.8989C40.4356 54.8483 40.5666 54.8224 40.6988 54.8228C40.8311 54.8231 40.962 54.8497 41.0839 54.901C41.2058 54.9523 41.3163 55.0272 41.409 55.1215C41.5018 55.2158 41.5749 55.3275 41.6241 55.4502L42.9359 58.6171C43.21 59.2783 42.7196 60 42.0125 60ZM4.1667 20.2998C3.88383 20.2998 4.00033 20.3129 0.617485 18.9117C0.372443 18.8102 0.177756 18.6155 0.0762531 18.3705C-0.0252501 18.1254 -0.0252551 17.8501 0.076239 17.6051C0.177733 17.36 0.372413 17.1653 0.61745 17.0638C0.862488 16.9623 1.13781 16.9623 1.38285 17.0638L4.5497 18.3756C4.7637 18.4639 4.9404 18.6239 5.04963 18.828C5.15887 19.0322 5.19387 19.2679 5.14867 19.495C5.10347 19.7221 4.98087 19.9265 4.80179 20.0732C4.62271 20.22 4.39825 20.3001 4.1667 20.2998ZM58.9994 43.0123C58.7165 43.0123 58.833 43.0255 55.4502 41.6242C55.3288 41.574 55.2186 41.5003 55.1257 41.4074C55.0329 41.3146 54.9592 41.2043 54.909 41.083C54.8587 40.9617 54.8329 40.8316 54.8329 40.7003C54.8329 40.569 54.8588 40.4389 54.909 40.3176C55.0106 40.0726 55.2052 39.878 55.4502 39.7765C55.6952 39.675 55.9705 39.675 56.2155 39.7764L59.3824 41.0881C59.5037 41.1384 59.6139 41.212 59.7068 41.3049C59.7996 41.3978 59.8733 41.508 59.9235 41.6293C59.9738 41.7507 59.9996 41.8807 59.9996 42.012C59.9996 42.1434 59.9738 42.2734 59.9235 42.3947C59.8478 42.5775 59.7196 42.7338 59.5551 42.8438C59.3906 42.9537 59.1972 43.0124 58.9994 43.0123Z" fill="#ED632B"/>
</g>
<defs>
<clipPath id="clip0_118_898">
<rect width="60" height="60" fill="white"/>
</clipPath>
</defs>
</svg>
