<svg width="60" height="60" viewBox="0 0 60 60" fill="none" xmlns="http://www.w3.org/2000/svg">
<g clip-path="url(#clip0_20_309)">
<path d="M15.8195 45.6207L13.9582 48.4138H40.0159L38.1547 45.6207H15.8195Z" fill="#ED632B"/>
<path d="M40.9466 50.2758H13.0276C12.5136 50.2758 12.0969 50.6926 12.0969 51.2068V53.0689C12.0969 53.5831 12.5136 53.9999 13.0276 53.9999H40.9466C41.4605 53.9999 41.8772 53.5831 41.8772 53.0689V51.2068C41.8772 50.6926 41.4605 50.2758 40.9466 50.2758Z" fill="#ED632B"/>
<path d="M53.673 18.9345C52.7702 18.3982 51.5679 18.6626 49.9663 19.8813C49.5456 20.1979 49.1464 20.5424 48.7723 20.9148C48.9593 20.2593 49.1333 19.6039 49.2897 18.9484C50.426 17.456 51.0866 15.6557 51.1854 13.7821C51.5241 10.5226 50.7573 7.75369 49.8201 7.31331C48.8635 7.74438 48.0063 10.2517 47.5401 13.2244C47.225 14.8892 47.2306 16.5988 47.5568 18.2613C47.5503 18.2809 47.5364 18.2958 47.5317 18.3172C47.3725 18.9873 47.1971 19.6535 47.0059 20.3152C46.8847 19.8111 46.7132 19.3205 46.4941 18.8507C45.6472 17.0445 44.5956 16.39 43.5933 16.3695C43.4517 16.3832 43.3177 16.4395 43.2087 16.5309C43.0998 16.6223 43.021 16.7445 42.9828 16.8816C42.5409 18.3587 42.6657 19.9475 43.3327 21.3375C43.5234 21.9468 43.8349 22.5115 44.2485 22.9978C44.6622 23.4841 45.1695 23.882 45.7402 24.1678C45.2779 25.4099 44.7606 26.6307 44.1898 27.8268C44.1353 27.2255 44.0104 26.6327 43.8176 26.0606C43.1475 24.0775 42.094 23.1996 41.0136 22.9593C40.8688 22.9368 40.7206 22.9607 40.5902 23.0276C40.4598 23.0945 40.3539 23.201 40.2877 23.3318C39.9575 24.0352 39.7708 24.7973 39.7383 25.5738C39.7059 26.3502 39.8284 27.1253 40.0987 27.8538C40.3838 29.2481 41.2085 30.473 42.3928 31.2614C41.7353 32.4002 41.0298 33.5107 40.2784 34.5898C40.3115 33.9119 40.2548 33.2326 40.1099 32.5695C39.6446 30.4309 38.6302 29.3295 37.5116 28.8593C37.37 28.8042 37.2145 28.7962 37.068 28.8365C36.9215 28.8767 36.7918 28.9631 36.6982 29.0828C35.9491 30.0669 35.5908 31.5035 35.9584 33.6132C36.1113 35.1538 36.8511 36.5764 38.0244 37.5859C37.3953 38.3391 36.4702 39.3772 35.8793 40.0345H34.4321V39.6528C34.4321 38.9648 34.2023 38.2972 33.7807 37.7535C33.3521 37.2111 32.7568 36.825 32.0869 36.6549C31.6541 36.5477 31.2499 36.3472 30.9027 36.0674C30.5554 35.7875 30.2736 35.4351 30.0768 35.0349L29.779 34.4483V29.7931C29.6114 29.9049 29.4346 30.0073 29.2578 30.1097C28.5687 30.5121 27.785 30.7242 26.9871 30.7242C26.1891 30.7242 25.4054 30.5121 24.7163 30.1097C24.5395 30.0073 24.3627 29.9049 24.1952 29.7931V34.4483L23.8974 35.0349C23.7006 35.4351 23.4187 35.7875 23.0714 36.0674C22.7242 36.3472 22.32 36.5477 21.8872 36.6549C21.2183 36.8218 20.6244 37.2075 20.1995 37.7506C19.7747 38.2937 19.5432 38.9631 19.542 39.6528V40.0345H18.0949C17.503 39.3772 16.5779 38.3391 15.9497 37.5859C17.123 36.5764 17.8628 35.1538 18.0157 33.6132C18.3833 31.5035 18.0251 30.0678 17.2759 29.0837C17.1823 28.964 17.0526 28.8776 16.9061 28.8374C16.7597 28.7971 16.6041 28.8052 16.4625 28.8602C15.343 29.3295 14.3304 30.4309 13.8642 32.5695C13.7196 33.2326 13.6633 33.9119 13.6967 34.5898C12.9455 33.5104 12.2397 32.3999 11.5814 31.2614C12.7656 30.473 13.5903 29.2481 13.8754 27.8538C14.1455 27.1252 14.2679 26.3501 14.2353 25.5737C14.2027 24.7972 14.0158 24.0351 13.6855 23.3318C13.6194 23.2008 13.5136 23.0942 13.3832 23.0271C13.2528 22.96 13.1045 22.936 12.9596 22.9584C11.8801 23.1986 10.8266 24.0766 10.1556 26.0588C9.96266 26.6315 9.83772 27.2249 9.78337 27.8268C9.21325 26.6298 8.69594 25.4084 8.23293 24.166C8.80374 23.8803 9.31119 23.4826 9.72499 22.9965C10.1388 22.5103 10.4505 21.9458 10.6414 21.3366C11.3087 19.9465 11.4324 18.3572 10.9913 16.8806C10.9531 16.7435 10.8741 16.6211 10.765 16.5297C10.6559 16.4383 10.5216 16.3821 10.3799 16.3686C9.37854 16.389 8.32693 17.0436 7.47912 18.8498C7.25998 19.3196 7.0885 19.8102 6.96727 20.3143C6.77636 19.6526 6.60135 18.9864 6.44239 18.3163C6.43774 18.2958 6.42378 18.2809 6.41726 18.2604C6.74299 16.5976 6.74857 14.8882 6.43402 13.2235C5.96684 10.2517 5.11066 7.74345 4.15396 7.31238C3.21589 7.75276 2.45091 10.5217 2.78873 13.7812C2.88747 15.6547 3.54807 17.4551 4.68443 18.9475C4.84077 19.603 5.0148 20.2584 5.20186 20.9139C4.82774 20.5414 4.42943 20.197 4.00786 19.8804C2.40717 18.6617 1.20386 18.3973 0.301143 18.9336C0.0405658 19.1691 -0.069249 19.5276 0.014508 19.8692C0.151184 20.7715 0.477367 21.6347 0.971578 22.4017C1.46579 23.1688 2.11682 23.8224 2.88179 24.3196C4.38942 25.3 5.63833 25.3335 6.52057 24.8996C7.007 26.1987 7.55103 27.4755 8.15104 28.7262C7.64337 28.3878 7.10788 28.0931 6.55035 27.8454C4.6472 26.9851 3.29778 26.9907 2.39786 27.7197C2.1559 27.9897 2.08889 28.3742 2.22569 28.7103C2.51892 29.5865 3.00716 30.3847 3.65361 31.0447C4.30005 31.7046 5.08783 32.2091 5.95753 32.5201C6.59792 32.8316 7.30815 32.9713 8.01874 32.9258C8.72932 32.8803 9.41593 32.651 10.0114 32.2604C10.7021 33.4522 11.443 34.6142 12.2319 35.7434C11.5967 35.4725 10.9365 35.2646 10.2608 35.1224C8.12498 34.6522 6.68063 34.9418 5.81794 35.8635C5.70966 36.012 5.64713 36.189 5.63804 36.3726C5.62894 36.5562 5.67368 36.7384 5.76675 36.8969C6.2129 37.7286 6.85123 38.4416 7.62857 38.9765C8.40591 39.5114 9.29975 39.8528 10.2357 39.9721C10.9939 40.1552 11.7859 40.1447 12.539 39.9415C13.2921 39.7383 13.982 39.3489 14.5454 38.8093C14.8665 39.1929 15.2462 39.6314 15.6343 40.0718C15.4259 40.1116 15.2377 40.2224 15.1018 40.3853C14.9659 40.5483 14.8906 40.7533 14.8888 40.9656V42.8276C14.8888 43.0746 14.9869 43.3114 15.1614 43.486C15.3359 43.6606 15.5726 43.7587 15.8195 43.7587H38.1547C38.4015 43.7587 38.6382 43.6606 38.8127 43.486C38.9872 43.3114 39.0853 43.0746 39.0853 42.8276V40.9656C39.0835 40.7533 39.0082 40.5483 38.8723 40.3853C38.7364 40.2224 38.5482 40.1116 38.3399 40.0718C38.7279 39.6314 39.1076 39.1919 39.4287 38.8093C39.9921 39.3489 40.682 39.7383 41.4351 39.9415C42.1882 40.1447 42.9802 40.1552 43.7385 39.9721C44.6742 39.8526 45.5678 39.5112 46.345 38.9763C47.1222 38.4414 47.7604 37.7285 48.2064 36.8969C48.2996 36.7385 48.3445 36.5563 48.3356 36.3727C48.3267 36.1891 48.2643 36.0121 48.1562 35.8635C47.2935 34.9418 45.8482 34.6522 43.7143 35.1224C43.0377 35.2639 42.3769 35.4725 41.7413 35.7443C42.5311 34.615 43.2726 33.4527 43.9637 32.2604C44.5591 32.651 45.2457 32.8803 45.9563 32.9258C46.6669 32.9713 47.3771 32.8316 48.0175 32.5201C48.8872 32.2091 49.675 31.7046 50.3214 31.0447C50.9679 30.3847 51.4561 29.5865 51.7493 28.7103C51.8862 28.3742 51.8191 27.9897 51.5772 27.7197C50.6773 26.9907 49.3278 26.9851 47.4247 27.8454C46.8663 28.0931 46.3312 28.3882 45.824 28.7271C46.4236 27.4764 46.9673 26.1996 47.4535 24.9006C48.3358 25.3344 49.5856 25.3009 51.0923 24.3196C51.8573 23.8224 52.5083 23.1688 53.0025 22.4017C53.4967 21.6347 53.8229 20.7715 53.9596 19.8692C54.0004 19.7021 53.9953 19.5269 53.9449 19.3624C53.8944 19.1979 53.8005 19.05 53.673 18.9345Z" fill="#ED632B"/>
<path d="M12.5622 12.1034H14.1908C14.2374 12.0979 14.2839 12.0886 14.3295 12.0755L14.3304 12.0848C14.8507 15.5009 16.1407 18.7538 18.1028 21.5975C20.065 24.4412 22.6479 26.8012 25.6562 28.499C26.4771 28.9831 27.497 28.9831 28.3179 28.499C31.3262 26.8012 33.9091 24.4412 35.8713 21.5975C37.8334 18.7538 39.1234 15.5009 39.6437 12.0848L39.6446 12.0755C39.69 12.0885 39.7364 12.0978 39.7833 12.1034H41.4119C42.7689 12.102 44.07 11.562 45.0295 10.602C45.9891 9.642 46.5289 8.3404 46.5303 6.98276C46.5289 5.62512 45.9891 4.32351 45.0295 3.36352C44.07 2.40352 42.7689 1.86355 41.4119 1.86207H39.746C39.6931 1.86785 39.6407 1.87844 39.5897 1.89372L39.5878 1.88069C39.5041 1.39655 39.4203 0.996207 39.3366 0.661034C39.289 0.472333 39.1798 0.304886 39.0265 0.185169C38.8731 0.0654526 38.6842 0.000295596 38.4897 0L15.4844 0C15.2899 0.000295596 15.101 0.0654526 14.9476 0.185169C14.7943 0.304886 14.6851 0.472333 14.6375 0.661034C14.5538 0.996207 14.47 1.39655 14.3863 1.88069L14.3844 1.89372C14.3334 1.87844 14.281 1.86785 14.2281 1.86207H12.5622C11.2052 1.86355 9.90414 2.40352 8.94456 3.36352C7.98498 4.32351 7.44523 5.62512 7.44376 6.98276C7.44523 8.3404 7.98498 9.642 8.94456 10.602C9.90414 11.562 11.2052 12.102 12.5622 12.1034ZM41.4119 3.72414C42.2753 3.72562 43.1029 4.06941 43.7134 4.6802C44.324 5.29099 44.6676 6.11897 44.6691 6.98276C44.6681 7.8467 44.3246 8.67497 43.714 9.28586C43.1033 9.89676 42.2754 10.2404 41.4119 10.2414H39.8949C40.1183 8.07393 40.1062 5.88879 39.8577 3.72414H41.4119ZM10.2645 4.67566C10.5648 4.37182 10.9227 4.13113 11.3173 3.96772C11.7119 3.80431 12.1352 3.7215 12.5622 3.72414H14.1164C13.868 5.88879 13.8555 8.07403 14.0792 10.2414H12.5622C11.6987 10.2404 10.8708 9.89676 10.2601 9.28586C9.64949 8.67497 9.30601 7.8467 9.30502 6.98276C9.30277 6.55358 9.38652 6.1283 9.55132 5.73204C9.71611 5.33578 9.95862 4.97658 10.2645 4.67566Z" fill="#ED632B"/>
</g>
<defs>
<clipPath id="clip0_20_309">
<rect width="60" height="60" fill="white"/>
</clipPath>
</defs>
</svg>
