<svg width="14" height="28" viewBox="0 0 14 28" fill="none" xmlns="http://www.w3.org/2000/svg">
<path d="M13.97 11.395L13.5275 15.2275C13.5091 15.4024 13.4272 15.5644 13.2972 15.6829C13.1673 15.8013 12.9983 15.8679 12.8225 15.87H8.8225L8.8025 27.2325C8.80385 27.3671 8.75216 27.4969 8.65859 27.5938C8.56503 27.6906 8.43711 27.7467 8.3025 27.75H4.25C4.18262 27.7501 4.11592 27.7365 4.05392 27.7101C3.99192 27.6838 3.93588 27.6451 3.88918 27.5966C3.84248 27.548 3.80608 27.4905 3.78216 27.4275C3.75824 27.3645 3.7473 27.2973 3.75 27.23V15.87H0.749998C0.655773 15.869 0.562664 15.8495 0.475987 15.8125C0.389311 15.7756 0.310764 15.7219 0.244834 15.6546C0.178903 15.5872 0.12688 15.5076 0.0917338 15.4202C0.0565878 15.3327 0.0390078 15.2392 0.0399979 15.145L0.0249975 11.3125C0.0236752 11.2179 0.0409922 11.1241 0.075959 11.0362C0.110926 10.9483 0.162858 10.8682 0.228789 10.8004C0.294721 10.7326 0.37336 10.6785 0.460216 10.6411C0.547072 10.6037 0.640443 10.5838 0.734998 10.5825H3.75V6.8825C3.75 2.5875 6.3 0.25 10.04 0.25H13.105C13.1998 0.250978 13.2934 0.270655 13.3805 0.307903C13.4677 0.345151 13.5466 0.399237 13.6128 0.467058C13.679 0.53488 13.7312 0.615102 13.7663 0.703125C13.8014 0.791148 13.8188 0.885238 13.8175 0.98V4.205C13.8188 4.29976 13.8014 4.39385 13.7663 4.48188C13.7312 4.5699 13.679 4.65012 13.6128 4.71794C13.5466 4.78576 13.4677 4.83985 13.3805 4.8771C13.2934 4.91435 13.1998 4.93402 13.105 4.935H11.225C9.1925 4.935 8.7975 5.935 8.7975 7.38V10.5825H13.265C13.3666 10.5838 13.4668 10.6065 13.5589 10.6493C13.6511 10.692 13.7332 10.7538 13.7998 10.8306C13.8664 10.9073 13.916 10.9973 13.9453 11.0946C13.9746 11.1918 13.9831 11.2942 13.97 11.395Z" fill="#3A559F"/>
</svg>
