<svg width="101" height="100" viewBox="0 0 101 100" fill="none" xmlns="http://www.w3.org/2000/svg">
<path d="M94.7188 93.2812C94.7188 94.2188 93.9375 94.8438 93.1562 94.8438H56.9062C56.2812 97.8125 53.625 100 50.5 100C47.375 100 44.7188 97.8125 44.0938 94.8438H8C7.0625 94.8438 6.4375 94.0625 6.4375 93.2812C6.4375 92.3438 7.21875 91.7188 8 91.7188H44.0938C44.7188 89.375 46.5938 87.5 48.9375 86.875V80.7812C48.9375 79.8438 49.7188 79.2188 50.5 79.2188C51.2812 79.2188 52.0625 80 52.0625 80.7812V86.875C54.4062 87.5 56.2812 89.375 56.9062 91.7188H93C93.9375 91.7188 94.7188 92.3438 94.7188 93.2812ZM16.2812 7.34375C15.3438 7.34375 14.7188 8.125 14.7188 8.90625C14.7188 9.84375 15.5 10.4688 16.2812 10.4688C17.2188 10.4688 17.8438 9.6875 17.8438 8.90625C17.8438 8.125 17.2188 7.34375 16.2812 7.34375ZM16.2812 7.34375C15.3438 7.34375 14.7188 8.125 14.7188 8.90625C14.7188 9.84375 15.5 10.4688 16.2812 10.4688C17.2188 10.4688 17.8438 9.6875 17.8438 8.90625C17.8438 8.125 17.2188 7.34375 16.2812 7.34375ZM16.2812 7.34375C15.3438 7.34375 14.7188 8.125 14.7188 8.90625C14.7188 9.84375 15.5 10.4688 16.2812 10.4688C17.2188 10.4688 17.8438 9.6875 17.8438 8.90625C17.8438 8.125 17.2188 7.34375 16.2812 7.34375ZM27.8438 7.34375C26.9062 7.34375 26.2812 8.125 26.2812 8.90625C26.2812 9.84375 27.0625 10.4688 27.8438 10.4688C28.7812 10.4688 29.4062 9.6875 29.4062 8.90625C29.4062 8.125 28.7812 7.34375 27.8438 7.34375ZM39.4062 7.34375C38.4688 7.34375 37.8438 8.125 37.8438 8.90625C37.8438 9.84375 38.625 10.4688 39.4062 10.4688C40.3438 10.4688 40.9688 9.6875 40.9688 8.90625C40.9688 8.125 40.3438 7.34375 39.4062 7.34375ZM39.4062 7.34375C38.4688 7.34375 37.8438 8.125 37.8438 8.90625C37.8438 9.84375 38.625 10.4688 39.4062 10.4688C40.3438 10.4688 40.9688 9.6875 40.9688 8.90625C40.9688 8.125 40.3438 7.34375 39.4062 7.34375ZM27.8438 7.34375C26.9062 7.34375 26.2812 8.125 26.2812 8.90625C26.2812 9.84375 27.0625 10.4688 27.8438 10.4688C28.7812 10.4688 29.4062 9.6875 29.4062 8.90625C29.4062 8.125 28.7812 7.34375 27.8438 7.34375ZM16.2812 7.34375C15.3438 7.34375 14.7188 8.125 14.7188 8.90625C14.7188 9.84375 15.5 10.4688 16.2812 10.4688C17.2188 10.4688 17.8438 9.6875 17.8438 8.90625C17.8438 8.125 17.2188 7.34375 16.2812 7.34375ZM16.2812 7.34375C15.3438 7.34375 14.7188 8.125 14.7188 8.90625C14.7188 9.84375 15.5 10.4688 16.2812 10.4688C17.2188 10.4688 17.8438 9.6875 17.8438 8.90625C17.8438 8.125 17.2188 7.34375 16.2812 7.34375ZM27.8438 7.34375C26.9062 7.34375 26.2812 8.125 26.2812 8.90625C26.2812 9.84375 27.0625 10.4688 27.8438 10.4688C28.7812 10.4688 29.4062 9.6875 29.4062 8.90625C29.4062 8.125 28.7812 7.34375 27.8438 7.34375ZM39.4062 7.34375C38.4688 7.34375 37.8438 8.125 37.8438 8.90625C37.8438 9.84375 38.625 10.4688 39.4062 10.4688C40.3438 10.4688 40.9688 9.6875 40.9688 8.90625C40.9688 8.125 40.3438 7.34375 39.4062 7.34375ZM85.8125 7.8125C85.5 7.5 85.1875 7.34375 84.7188 7.34375H63.9375C63.1562 7.34375 62.375 7.96875 62.375 8.90625C62.375 9.6875 63 10.4688 63.9375 10.4688H84.7188C85.6562 10.4688 86.2812 9.84375 86.2812 8.90625C86.2812 8.59375 86.125 8.125 85.8125 7.8125ZM85.8125 7.8125C85.5 7.5 85.1875 7.34375 84.7188 7.34375H63.9375C63.1562 7.34375 62.375 7.96875 62.375 8.90625C62.375 9.6875 63 10.4688 63.9375 10.4688H84.7188C85.6562 10.4688 86.2812 9.84375 86.2812 8.90625C86.2812 8.59375 86.125 8.125 85.8125 7.8125ZM39.4062 7.34375C38.4688 7.34375 37.8438 8.125 37.8438 8.90625C37.8438 9.84375 38.625 10.4688 39.4062 10.4688C40.3438 10.4688 40.9688 9.6875 40.9688 8.90625C40.9688 8.125 40.3438 7.34375 39.4062 7.34375ZM27.8438 7.34375C26.9062 7.34375 26.2812 8.125 26.2812 8.90625C26.2812 9.84375 27.0625 10.4688 27.8438 10.4688C28.7812 10.4688 29.4062 9.6875 29.4062 8.90625C29.4062 8.125 28.7812 7.34375 27.8438 7.34375ZM16.2812 7.34375C15.3438 7.34375 14.7188 8.125 14.7188 8.90625C14.7188 9.84375 15.5 10.4688 16.2812 10.4688C17.2188 10.4688 17.8438 9.6875 17.8438 8.90625C17.8438 8.125 17.2188 7.34375 16.2812 7.34375ZM16.2812 7.34375C15.3438 7.34375 14.7188 8.125 14.7188 8.90625C14.7188 9.84375 15.5 10.4688 16.2812 10.4688C17.2188 10.4688 17.8438 9.6875 17.8438 8.90625C17.8438 8.125 17.2188 7.34375 16.2812 7.34375ZM27.8438 7.34375C26.9062 7.34375 26.2812 8.125 26.2812 8.90625C26.2812 9.84375 27.0625 10.4688 27.8438 10.4688C28.7812 10.4688 29.4062 9.6875 29.4062 8.90625C29.4062 8.125 28.7812 7.34375 27.8438 7.34375ZM39.4062 7.34375C38.4688 7.34375 37.8438 8.125 37.8438 8.90625C37.8438 9.84375 38.625 10.4688 39.4062 10.4688C40.3438 10.4688 40.9688 9.6875 40.9688 8.90625C40.9688 8.125 40.3438 7.34375 39.4062 7.34375ZM85.8125 7.8125C85.5 7.5 85.1875 7.34375 84.7188 7.34375H63.9375C63.1562 7.34375 62.375 7.96875 62.375 8.90625C62.375 9.6875 63 10.4688 63.9375 10.4688H84.7188C85.6562 10.4688 86.2812 9.84375 86.2812 8.90625C86.2812 8.59375 86.125 8.125 85.8125 7.8125ZM85.8125 7.8125C85.5 7.5 85.1875 7.34375 84.7188 7.34375H63.9375C63.1562 7.34375 62.375 7.96875 62.375 8.90625C62.375 9.6875 63 10.4688 63.9375 10.4688H84.7188C85.6562 10.4688 86.2812 9.84375 86.2812 8.90625C86.2812 8.59375 86.125 8.125 85.8125 7.8125ZM39.4062 7.34375C38.4688 7.34375 37.8438 8.125 37.8438 8.90625C37.8438 9.84375 38.625 10.4688 39.4062 10.4688C40.3438 10.4688 40.9688 9.6875 40.9688 8.90625C40.9688 8.125 40.3438 7.34375 39.4062 7.34375ZM27.8438 7.34375C26.9062 7.34375 26.2812 8.125 26.2812 8.90625C26.2812 9.84375 27.0625 10.4688 27.8438 10.4688C28.7812 10.4688 29.4062 9.6875 29.4062 8.90625C29.4062 8.125 28.7812 7.34375 27.8438 7.34375ZM16.2812 7.34375C15.3438 7.34375 14.7188 8.125 14.7188 8.90625C14.7188 9.84375 15.5 10.4688 16.2812 10.4688C17.2188 10.4688 17.8438 9.6875 17.8438 8.90625C17.8438 8.125 17.2188 7.34375 16.2812 7.34375ZM16.2812 7.34375C15.3438 7.34375 14.7188 8.125 14.7188 8.90625C14.7188 9.84375 15.5 10.4688 16.2812 10.4688C17.2188 10.4688 17.8438 9.6875 17.8438 8.90625C17.8438 8.125 17.2188 7.34375 16.2812 7.34375ZM27.8438 7.34375C26.9062 7.34375 26.2812 8.125 26.2812 8.90625C26.2812 9.84375 27.0625 10.4688 27.8438 10.4688C28.7812 10.4688 29.4062 9.6875 29.4062 8.90625C29.4062 8.125 28.7812 7.34375 27.8438 7.34375ZM39.4062 7.34375C38.4688 7.34375 37.8438 8.125 37.8438 8.90625C37.8438 9.84375 38.625 10.4688 39.4062 10.4688C40.3438 10.4688 40.9688 9.6875 40.9688 8.90625C40.9688 8.125 40.3438 7.34375 39.4062 7.34375ZM85.8125 7.8125C85.5 7.5 85.1875 7.34375 84.7188 7.34375H63.9375C63.1562 7.34375 62.375 7.96875 62.375 8.90625C62.375 9.6875 63 10.4688 63.9375 10.4688H84.7188C85.6562 10.4688 86.2812 9.84375 86.2812 8.90625C86.2812 8.59375 86.125 8.125 85.8125 7.8125ZM85.8125 7.8125C85.5 7.5 85.1875 7.34375 84.7188 7.34375H63.9375C63.1562 7.34375 62.375 7.96875 62.375 8.90625C62.375 9.6875 63 10.4688 63.9375 10.4688H84.7188C85.6562 10.4688 86.2812 9.84375 86.2812 8.90625C86.2812 8.59375 86.125 8.125 85.8125 7.8125ZM39.4062 7.34375C38.4688 7.34375 37.8438 8.125 37.8438 8.90625C37.8438 9.84375 38.625 10.4688 39.4062 10.4688C40.3438 10.4688 40.9688 9.6875 40.9688 8.90625C40.9688 8.125 40.3438 7.34375 39.4062 7.34375ZM27.8438 7.34375C26.9062 7.34375 26.2812 8.125 26.2812 8.90625C26.2812 9.84375 27.0625 10.4688 27.8438 10.4688C28.7812 10.4688 29.4062 9.6875 29.4062 8.90625C29.4062 8.125 28.7812 7.34375 27.8438 7.34375ZM16.2812 7.34375C15.3438 7.34375 14.7188 8.125 14.7188 8.90625C14.7188 9.84375 15.5 10.4688 16.2812 10.4688C17.2188 10.4688 17.8438 9.6875 17.8438 8.90625C17.8438 8.125 17.2188 7.34375 16.2812 7.34375ZM16.2812 7.34375C15.3438 7.34375 14.7188 8.125 14.7188 8.90625C14.7188 9.84375 15.5 10.4688 16.2812 10.4688C17.2188 10.4688 17.8438 9.6875 17.8438 8.90625C17.8438 8.125 17.2188 7.34375 16.2812 7.34375ZM27.8438 7.34375C26.9062 7.34375 26.2812 8.125 26.2812 8.90625C26.2812 9.84375 27.0625 10.4688 27.8438 10.4688C28.7812 10.4688 29.4062 9.6875 29.4062 8.90625C29.4062 8.125 28.7812 7.34375 27.8438 7.34375ZM39.4062 7.34375C38.4688 7.34375 37.8438 8.125 37.8438 8.90625C37.8438 9.84375 38.625 10.4688 39.4062 10.4688C40.3438 10.4688 40.9688 9.6875 40.9688 8.90625C40.9688 8.125 40.3438 7.34375 39.4062 7.34375ZM85.8125 7.8125C85.5 7.5 85.1875 7.34375 84.7188 7.34375H63.9375C63.1562 7.34375 62.375 7.96875 62.375 8.90625C62.375 9.6875 63 10.4688 63.9375 10.4688H84.7188C85.6562 10.4688 86.2812 9.84375 86.2812 8.90625C86.2812 8.59375 86.125 8.125 85.8125 7.8125ZM85.8125 7.8125C85.5 7.5 85.1875 7.34375 84.7188 7.34375H63.9375C63.1562 7.34375 62.375 7.96875 62.375 8.90625C62.375 9.6875 63 10.4688 63.9375 10.4688H84.7188C85.6562 10.4688 86.2812 9.84375 86.2812 8.90625C86.2812 8.59375 86.125 8.125 85.8125 7.8125ZM39.4062 7.34375C38.4688 7.34375 37.8438 8.125 37.8438 8.90625C37.8438 9.84375 38.625 10.4688 39.4062 10.4688C40.3438 10.4688 40.9688 9.6875 40.9688 8.90625C40.9688 8.125 40.3438 7.34375 39.4062 7.34375ZM27.8438 7.34375C26.9062 7.34375 26.2812 8.125 26.2812 8.90625C26.2812 9.84375 27.0625 10.4688 27.8438 10.4688C28.7812 10.4688 29.4062 9.6875 29.4062 8.90625C29.4062 8.125 28.7812 7.34375 27.8438 7.34375ZM16.2812 7.34375C15.3438 7.34375 14.7188 8.125 14.7188 8.90625C14.7188 9.84375 15.5 10.4688 16.2812 10.4688C17.2188 10.4688 17.8438 9.6875 17.8438 8.90625C17.8438 8.125 17.2188 7.34375 16.2812 7.34375ZM89.7188 0H11.2812C9.40625 0 7.84375 1.5625 7.84375 3.4375V14.5312C7.84375 16.4062 9.40625 17.9688 11.2812 17.9688H89.5625C91.4375 17.9688 93 16.4062 93 14.5312V3.4375C93.1562 1.5625 91.5938 0 89.7188 0ZM16.2812 13.75C13.625 13.75 11.4375 11.5625 11.4375 8.90625C11.4375 6.25 13.625 4.0625 16.2812 4.0625C18.9375 4.0625 21.125 6.25 21.125 8.90625C21.125 11.5625 18.9375 13.75 16.2812 13.75ZM27.8438 13.75C25.1875 13.75 23 11.5625 23 8.90625C23 6.25 25.1875 4.0625 27.8438 4.0625C30.5 4.0625 32.6875 6.25 32.6875 8.90625C32.6875 11.5625 30.5 13.75 27.8438 13.75ZM39.4062 13.75C36.75 13.75 34.5625 11.5625 34.5625 8.90625C34.5625 6.25 36.75 4.0625 39.4062 4.0625C42.0625 4.21875 44.25 6.25 44.25 8.90625C44.25 11.5625 42.0625 13.75 39.4062 13.75ZM84.7188 13.75H63.9375C61.2812 13.75 59.0938 11.5625 59.0938 8.90625C59.0938 6.25 61.2812 4.0625 63.9375 4.0625H84.7188C85.9688 4.0625 87.2188 4.53125 88.1562 5.46875C89.0938 6.40625 89.5625 7.65625 89.5625 8.90625C89.5625 11.5625 87.375 13.75 84.7188 13.75ZM84.7188 7.34375H63.9375C63.1562 7.34375 62.375 7.96875 62.375 8.90625C62.375 9.6875 63 10.4688 63.9375 10.4688H84.7188C85.6562 10.4688 86.2812 9.84375 86.2812 8.90625C86.2812 8.4375 86.125 8.125 85.8125 7.8125C85.5 7.5 85.1875 7.34375 84.7188 7.34375ZM39.4062 7.34375C38.4688 7.34375 37.8438 8.125 37.8438 8.90625C37.8438 9.84375 38.625 10.4688 39.4062 10.4688C40.3438 10.4688 40.9688 9.6875 40.9688 8.90625C40.9688 8.125 40.3438 7.34375 39.4062 7.34375ZM27.8438 7.34375C26.9062 7.34375 26.2812 8.125 26.2812 8.90625C26.2812 9.84375 27.0625 10.4688 27.8438 10.4688C28.7812 10.4688 29.4062 9.6875 29.4062 8.90625C29.4062 8.125 28.7812 7.34375 27.8438 7.34375ZM16.2812 7.34375C15.3438 7.34375 14.7188 8.125 14.7188 8.90625C14.7188 9.84375 15.5 10.4688 16.2812 10.4688C17.2188 10.4688 17.8438 9.6875 17.8438 8.90625C17.8438 8.125 17.2188 7.34375 16.2812 7.34375ZM16.2812 7.34375C15.3438 7.34375 14.7188 8.125 14.7188 8.90625C14.7188 9.84375 15.5 10.4688 16.2812 10.4688C17.2188 10.4688 17.8438 9.6875 17.8438 8.90625C17.8438 8.125 17.2188 7.34375 16.2812 7.34375ZM27.8438 7.34375C26.9062 7.34375 26.2812 8.125 26.2812 8.90625C26.2812 9.84375 27.0625 10.4688 27.8438 10.4688C28.7812 10.4688 29.4062 9.6875 29.4062 8.90625C29.4062 8.125 28.7812 7.34375 27.8438 7.34375ZM39.4062 7.34375C38.4688 7.34375 37.8438 8.125 37.8438 8.90625C37.8438 9.84375 38.625 10.4688 39.4062 10.4688C40.3438 10.4688 40.9688 9.6875 40.9688 8.90625C40.9688 8.125 40.3438 7.34375 39.4062 7.34375ZM85.8125 7.8125C85.5 7.5 85.1875 7.34375 84.7188 7.34375H63.9375C63.1562 7.34375 62.375 7.96875 62.375 8.90625C62.375 9.6875 63 10.4688 63.9375 10.4688H84.7188C85.6562 10.4688 86.2812 9.84375 86.2812 8.90625C86.2812 8.59375 86.125 8.125 85.8125 7.8125ZM85.8125 7.8125C85.5 7.5 85.1875 7.34375 84.7188 7.34375H63.9375C63.1562 7.34375 62.375 7.96875 62.375 8.90625C62.375 9.6875 63 10.4688 63.9375 10.4688H84.7188C85.6562 10.4688 86.2812 9.84375 86.2812 8.90625C86.2812 8.59375 86.125 8.125 85.8125 7.8125ZM39.4062 7.34375C38.4688 7.34375 37.8438 8.125 37.8438 8.90625C37.8438 9.84375 38.625 10.4688 39.4062 10.4688C40.3438 10.4688 40.9688 9.6875 40.9688 8.90625C40.9688 8.125 40.3438 7.34375 39.4062 7.34375ZM27.8438 7.34375C26.9062 7.34375 26.2812 8.125 26.2812 8.90625C26.2812 9.84375 27.0625 10.4688 27.8438 10.4688C28.7812 10.4688 29.4062 9.6875 29.4062 8.90625C29.4062 8.125 28.7812 7.34375 27.8438 7.34375ZM16.2812 7.34375C15.3438 7.34375 14.7188 8.125 14.7188 8.90625C14.7188 9.84375 15.5 10.4688 16.2812 10.4688C17.2188 10.4688 17.8438 9.6875 17.8438 8.90625C17.8438 8.125 17.2188 7.34375 16.2812 7.34375ZM16.2812 7.34375C15.3438 7.34375 14.7188 8.125 14.7188 8.90625C14.7188 9.84375 15.5 10.4688 16.2812 10.4688C17.2188 10.4688 17.8438 9.6875 17.8438 8.90625C17.8438 8.125 17.2188 7.34375 16.2812 7.34375ZM27.8438 7.34375C26.9062 7.34375 26.2812 8.125 26.2812 8.90625C26.2812 9.84375 27.0625 10.4688 27.8438 10.4688C28.7812 10.4688 29.4062 9.6875 29.4062 8.90625C29.4062 8.125 28.7812 7.34375 27.8438 7.34375ZM39.4062 7.34375C38.4688 7.34375 37.8438 8.125 37.8438 8.90625C37.8438 9.84375 38.625 10.4688 39.4062 10.4688C40.3438 10.4688 40.9688 9.6875 40.9688 8.90625C40.9688 8.125 40.3438 7.34375 39.4062 7.34375ZM85.8125 7.8125C85.5 7.5 85.1875 7.34375 84.7188 7.34375H63.9375C63.1562 7.34375 62.375 7.96875 62.375 8.90625C62.375 9.6875 63 10.4688 63.9375 10.4688H84.7188C85.6562 10.4688 86.2812 9.84375 86.2812 8.90625C86.2812 8.59375 86.125 8.125 85.8125 7.8125ZM85.8125 7.8125C85.5 7.5 85.1875 7.34375 84.7188 7.34375H63.9375C63.1562 7.34375 62.375 7.96875 62.375 8.90625C62.375 9.6875 63 10.4688 63.9375 10.4688H84.7188C85.6562 10.4688 86.2812 9.84375 86.2812 8.90625C86.2812 8.59375 86.125 8.125 85.8125 7.8125ZM39.4062 7.34375C38.4688 7.34375 37.8438 8.125 37.8438 8.90625C37.8438 9.84375 38.625 10.4688 39.4062 10.4688C40.3438 10.4688 40.9688 9.6875 40.9688 8.90625C40.9688 8.125 40.3438 7.34375 39.4062 7.34375ZM27.8438 7.34375C26.9062 7.34375 26.2812 8.125 26.2812 8.90625C26.2812 9.84375 27.0625 10.4688 27.8438 10.4688C28.7812 10.4688 29.4062 9.6875 29.4062 8.90625C29.4062 8.125 28.7812 7.34375 27.8438 7.34375ZM16.2812 7.34375C15.3438 7.34375 14.7188 8.125 14.7188 8.90625C14.7188 9.84375 15.5 10.4688 16.2812 10.4688C17.2188 10.4688 17.8438 9.6875 17.8438 8.90625C17.8438 8.125 17.2188 7.34375 16.2812 7.34375ZM16.2812 7.34375C15.3438 7.34375 14.7188 8.125 14.7188 8.90625C14.7188 9.84375 15.5 10.4688 16.2812 10.4688C17.2188 10.4688 17.8438 9.6875 17.8438 8.90625C17.8438 8.125 17.2188 7.34375 16.2812 7.34375ZM27.8438 7.34375C26.9062 7.34375 26.2812 8.125 26.2812 8.90625C26.2812 9.84375 27.0625 10.4688 27.8438 10.4688C28.7812 10.4688 29.4062 9.6875 29.4062 8.90625C29.4062 8.125 28.7812 7.34375 27.8438 7.34375ZM39.4062 7.34375C38.4688 7.34375 37.8438 8.125 37.8438 8.90625C37.8438 9.84375 38.625 10.4688 39.4062 10.4688C40.3438 10.4688 40.9688 9.6875 40.9688 8.90625C40.9688 8.125 40.3438 7.34375 39.4062 7.34375ZM85.8125 7.8125C85.5 7.5 85.1875 7.34375 84.7188 7.34375H63.9375C63.1562 7.34375 62.375 7.96875 62.375 8.90625C62.375 9.6875 63 10.4688 63.9375 10.4688H84.7188C85.6562 10.4688 86.2812 9.84375 86.2812 8.90625C86.2812 8.59375 86.125 8.125 85.8125 7.8125ZM85.8125 7.8125C85.5 7.5 85.1875 7.34375 84.7188 7.34375H63.9375C63.1562 7.34375 62.375 7.96875 62.375 8.90625C62.375 9.6875 63 10.4688 63.9375 10.4688H84.7188C85.6562 10.4688 86.2812 9.84375 86.2812 8.90625C86.2812 8.59375 86.125 8.125 85.8125 7.8125ZM39.4062 7.34375C38.4688 7.34375 37.8438 8.125 37.8438 8.90625C37.8438 9.84375 38.625 10.4688 39.4062 10.4688C40.3438 10.4688 40.9688 9.6875 40.9688 8.90625C40.9688 8.125 40.3438 7.34375 39.4062 7.34375ZM27.8438 7.34375C26.9062 7.34375 26.2812 8.125 26.2812 8.90625C26.2812 9.84375 27.0625 10.4688 27.8438 10.4688C28.7812 10.4688 29.4062 9.6875 29.4062 8.90625C29.4062 8.125 28.7812 7.34375 27.8438 7.34375ZM16.2812 7.34375C15.3438 7.34375 14.7188 8.125 14.7188 8.90625C14.7188 9.84375 15.5 10.4688 16.2812 10.4688C17.2188 10.4688 17.8438 9.6875 17.8438 8.90625C17.8438 8.125 17.2188 7.34375 16.2812 7.34375ZM16.2812 7.34375C15.3438 7.34375 14.7188 8.125 14.7188 8.90625C14.7188 9.84375 15.5 10.4688 16.2812 10.4688C17.2188 10.4688 17.8438 9.6875 17.8438 8.90625C17.8438 8.125 17.2188 7.34375 16.2812 7.34375ZM27.8438 7.34375C26.9062 7.34375 26.2812 8.125 26.2812 8.90625C26.2812 9.84375 27.0625 10.4688 27.8438 10.4688C28.7812 10.4688 29.4062 9.6875 29.4062 8.90625C29.4062 8.125 28.7812 7.34375 27.8438 7.34375ZM39.4062 7.34375C38.4688 7.34375 37.8438 8.125 37.8438 8.90625C37.8438 9.84375 38.625 10.4688 39.4062 10.4688C40.3438 10.4688 40.9688 9.6875 40.9688 8.90625C40.9688 8.125 40.3438 7.34375 39.4062 7.34375ZM85.8125 7.8125C85.5 7.5 85.1875 7.34375 84.7188 7.34375H63.9375C63.1562 7.34375 62.375 7.96875 62.375 8.90625C62.375 9.6875 63 10.4688 63.9375 10.4688H84.7188C85.6562 10.4688 86.2812 9.84375 86.2812 8.90625C86.2812 8.59375 86.125 8.125 85.8125 7.8125ZM85.8125 7.8125C85.5 7.5 85.1875 7.34375 84.7188 7.34375H63.9375C63.1562 7.34375 62.375 7.96875 62.375 8.90625C62.375 9.6875 63 10.4688 63.9375 10.4688H84.7188C85.6562 10.4688 86.2812 9.84375 86.2812 8.90625C86.2812 8.59375 86.125 8.125 85.8125 7.8125ZM39.4062 7.34375C38.4688 7.34375 37.8438 8.125 37.8438 8.90625C37.8438 9.84375 38.625 10.4688 39.4062 10.4688C40.3438 10.4688 40.9688 9.6875 40.9688 8.90625C40.9688 8.125 40.3438 7.34375 39.4062 7.34375ZM27.8438 7.34375C26.9062 7.34375 26.2812 8.125 26.2812 8.90625C26.2812 9.84375 27.0625 10.4688 27.8438 10.4688C28.7812 10.4688 29.4062 9.6875 29.4062 8.90625C29.4062 8.125 28.7812 7.34375 27.8438 7.34375ZM16.2812 7.34375C15.3438 7.34375 14.7188 8.125 14.7188 8.90625C14.7188 9.84375 15.5 10.4688 16.2812 10.4688C17.2188 10.4688 17.8438 9.6875 17.8438 8.90625C17.8438 8.125 17.2188 7.34375 16.2812 7.34375ZM16.2812 7.34375C15.3438 7.34375 14.7188 8.125 14.7188 8.90625C14.7188 9.84375 15.5 10.4688 16.2812 10.4688C17.2188 10.4688 17.8438 9.6875 17.8438 8.90625C17.8438 8.125 17.2188 7.34375 16.2812 7.34375ZM27.8438 7.34375C26.9062 7.34375 26.2812 8.125 26.2812 8.90625C26.2812 9.84375 27.0625 10.4688 27.8438 10.4688C28.7812 10.4688 29.4062 9.6875 29.4062 8.90625C29.4062 8.125 28.7812 7.34375 27.8438 7.34375ZM27.8438 7.34375C26.9062 7.34375 26.2812 8.125 26.2812 8.90625C26.2812 9.84375 27.0625 10.4688 27.8438 10.4688C28.7812 10.4688 29.4062 9.6875 29.4062 8.90625C29.4062 8.125 28.7812 7.34375 27.8438 7.34375ZM16.2812 7.34375C15.3438 7.34375 14.7188 8.125 14.7188 8.90625C14.7188 9.84375 15.5 10.4688 16.2812 10.4688C17.2188 10.4688 17.8438 9.6875 17.8438 8.90625C17.8438 8.125 17.2188 7.34375 16.2812 7.34375ZM16.2812 65.4688C15.3438 65.4688 14.7188 66.25 14.7188 67.0312C14.7188 67.8125 15.5 68.5938 16.2812 68.5938C17.2188 68.5938 17.8438 67.8125 17.8438 67.0312C17.8438 66.25 17.2188 65.4688 16.2812 65.4688ZM16.2812 65.4688C15.3438 65.4688 14.7188 66.25 14.7188 67.0312C14.7188 67.8125 15.5 68.5938 16.2812 68.5938C17.2188 68.5938 17.8438 67.8125 17.8438 67.0312C17.8438 66.25 17.2188 65.4688 16.2812 65.4688ZM16.2812 65.4688C15.3438 65.4688 14.7188 66.25 14.7188 67.0312C14.7188 67.8125 15.5 68.5938 16.2812 68.5938C17.2188 68.5938 17.8438 67.8125 17.8438 67.0312C17.8438 66.25 17.2188 65.4688 16.2812 65.4688ZM27.8438 65.4688C26.9062 65.4688 26.2812 66.25 26.2812 67.0312C26.2812 67.8125 27.0625 68.5938 27.8438 68.5938C28.7812 68.5938 29.4062 67.8125 29.4062 67.0312C29.4062 66.25 28.7812 65.4688 27.8438 65.4688ZM39.4062 65.4688C38.4688 65.4688 37.8438 66.25 37.8438 67.0312C37.8438 67.8125 38.625 68.5938 39.4062 68.5938C40.3438 68.5938 40.9688 67.8125 40.9688 67.0312C40.9688 66.25 40.3438 65.4688 39.4062 65.4688ZM39.4062 65.4688C38.4688 65.4688 37.8438 66.25 37.8438 67.0312C37.8438 67.8125 38.625 68.5938 39.4062 68.5938C40.3438 68.5938 40.9688 67.8125 40.9688 67.0312C40.9688 66.25 40.3438 65.4688 39.4062 65.4688ZM27.8438 65.4688C26.9062 65.4688 26.2812 66.25 26.2812 67.0312C26.2812 67.8125 27.0625 68.5938 27.8438 68.5938C28.7812 68.5938 29.4062 67.8125 29.4062 67.0312C29.4062 66.25 28.7812 65.4688 27.8438 65.4688ZM16.2812 65.4688C15.3438 65.4688 14.7188 66.25 14.7188 67.0312C14.7188 67.8125 15.5 68.5938 16.2812 68.5938C17.2188 68.5938 17.8438 67.8125 17.8438 67.0312C17.8438 66.25 17.2188 65.4688 16.2812 65.4688ZM89.7188 57.9687H11.2812C9.40625 57.9687 7.84375 59.5312 7.84375 61.4062V72.5C7.84375 74.375 9.40625 75.9375 11.2812 75.9375H89.5625C91.4375 75.9375 93 74.375 93 72.5V61.4062C93.1562 59.5312 91.5938 57.9687 89.7188 57.9687ZM16.2812 71.875C13.625 71.875 11.4375 69.6875 11.4375 67.0312C11.4375 64.375 13.625 62.1875 16.2812 62.1875C18.9375 62.1875 21.125 64.375 21.125 67.0312C21.125 69.6875 18.9375 71.875 16.2812 71.875ZM27.8438 71.875C25.1875 71.875 23 69.6875 23 67.0312C23 64.375 25.1875 62.1875 27.8438 62.1875C30.5 62.1875 32.6875 64.375 32.6875 67.0312C32.6875 69.6875 30.5 71.875 27.8438 71.875ZM39.4062 71.875C36.75 71.875 34.5625 69.6875 34.5625 67.0312C34.5625 64.375 36.75 62.1875 39.4062 62.1875C42.0625 62.1875 44.25 64.375 44.25 67.0312C44.25 69.6875 42.0625 71.875 39.4062 71.875ZM84.7188 71.7188H63.9375C61.2812 71.7188 59.0938 69.5312 59.0938 66.875C59.0938 64.2188 61.2812 62.0312 63.9375 62.0312H84.7188C85.9688 62.0312 87.2188 62.5 88.1562 63.4375C89.0938 64.2188 89.5625 65.4688 89.5625 66.875C89.5625 69.6875 87.375 71.7188 84.7188 71.7188ZM84.7188 65.4688H63.9375C63.1562 65.4688 62.375 66.0938 62.375 67.0312C62.375 67.8125 63 68.5938 63.9375 68.5938H84.7188C85.6562 68.5938 86.2812 67.9688 86.2812 67.0312C86.2812 66.5625 86.125 66.25 85.8125 65.9375C85.5 65.625 85.1875 65.4688 84.7188 65.4688ZM39.4062 65.4688C38.4688 65.4688 37.8438 66.25 37.8438 67.0312C37.8438 67.8125 38.625 68.5938 39.4062 68.5938C40.3438 68.5938 40.9688 67.8125 40.9688 67.0312C40.9688 66.25 40.3438 65.4688 39.4062 65.4688ZM27.8438 65.4688C26.9062 65.4688 26.2812 66.25 26.2812 67.0312C26.2812 67.8125 27.0625 68.5938 27.8438 68.5938C28.7812 68.5938 29.4062 67.8125 29.4062 67.0312C29.4062 66.25 28.7812 65.4688 27.8438 65.4688ZM16.2812 65.4688C15.3438 65.4688 14.7188 66.25 14.7188 67.0312C14.7188 67.8125 15.5 68.5938 16.2812 68.5938C17.2188 68.5938 17.8438 67.8125 17.8438 67.0312C17.8438 66.25 17.2188 65.4688 16.2812 65.4688ZM16.2812 65.4688C15.3438 65.4688 14.7188 66.25 14.7188 67.0312C14.7188 67.8125 15.5 68.5938 16.2812 68.5938C17.2188 68.5938 17.8438 67.8125 17.8438 67.0312C17.8438 66.25 17.2188 65.4688 16.2812 65.4688ZM27.8438 65.4688C26.9062 65.4688 26.2812 66.25 26.2812 67.0312C26.2812 67.8125 27.0625 68.5938 27.8438 68.5938C28.7812 68.5938 29.4062 67.8125 29.4062 67.0312C29.4062 66.25 28.7812 65.4688 27.8438 65.4688ZM27.8438 65.4688C26.9062 65.4688 26.2812 66.25 26.2812 67.0312C26.2812 67.8125 27.0625 68.5938 27.8438 68.5938C28.7812 68.5938 29.4062 67.8125 29.4062 67.0312C29.4062 66.25 28.7812 65.4688 27.8438 65.4688ZM16.2812 65.4688C15.3438 65.4688 14.7188 66.25 14.7188 67.0312C14.7188 67.8125 15.5 68.5938 16.2812 68.5938C17.2188 68.5938 17.8438 67.8125 17.8438 67.0312C17.8438 66.25 17.2188 65.4688 16.2812 65.4688ZM21.125 50.1562V54.8437H80.0312V50.1562H21.125ZM85.8125 36.875C85.5 36.5625 85.1875 36.4062 84.7188 36.4062H63.9375C63.1562 36.4062 62.375 37.1875 62.375 37.9688C62.375 38.75 63 39.5312 63.9375 39.5312H84.7188C85.6562 39.5312 86.2812 38.9062 86.2812 37.9688C86.2812 37.5 86.125 37.1875 85.8125 36.875ZM85.8125 36.875C85.5 36.5625 85.1875 36.4062 84.7188 36.4062H63.9375C63.1562 36.4062 62.375 37.1875 62.375 37.9688C62.375 38.75 63 39.5312 63.9375 39.5312H84.7188C85.6562 39.5312 86.2812 38.9062 86.2812 37.9688C86.2812 37.5 86.125 37.1875 85.8125 36.875ZM27.8438 36.4062C26.9062 36.4062 26.2812 37.1875 26.2812 37.9688C26.2812 38.75 27.0625 39.5312 27.8438 39.5312C28.7812 39.5312 29.4062 38.75 29.4062 37.9688C29.4062 37.1875 28.7812 36.4062 27.8438 36.4062ZM39.4062 36.4062C38.4688 36.4062 37.8438 37.1875 37.8438 37.9688C37.8438 38.75 38.625 39.5312 39.4062 39.5312C40.3438 39.5312 40.9688 38.75 40.9688 37.9688C40.9688 37.1875 40.3438 36.4062 39.4062 36.4062ZM85.8125 36.875C85.5 36.5625 85.1875 36.4062 84.7188 36.4062H63.9375C63.1562 36.4062 62.375 37.1875 62.375 37.9688C62.375 38.75 63 39.5312 63.9375 39.5312H84.7188C85.6562 39.5312 86.2812 38.9062 86.2812 37.9688C86.2812 37.5 86.125 37.1875 85.8125 36.875ZM85.8125 36.875C85.5 36.5625 85.1875 36.4062 84.7188 36.4062H63.9375C63.1562 36.4062 62.375 37.1875 62.375 37.9688C62.375 38.75 63 39.5312 63.9375 39.5312H84.7188C85.6562 39.5312 86.2812 38.9062 86.2812 37.9688C86.2812 37.5 86.125 37.1875 85.8125 36.875ZM39.4062 36.4062C38.4688 36.4062 37.8438 37.1875 37.8438 37.9688C37.8438 38.75 38.625 39.5312 39.4062 39.5312C40.3438 39.5312 40.9688 38.75 40.9688 37.9688C40.9688 37.1875 40.3438 36.4062 39.4062 36.4062ZM27.8438 36.4062C26.9062 36.4062 26.2812 37.1875 26.2812 37.9688C26.2812 38.75 27.0625 39.5312 27.8438 39.5312C28.7812 39.5312 29.4062 38.75 29.4062 37.9688C29.4062 37.1875 28.7812 36.4062 27.8438 36.4062ZM16.2812 36.4062C15.3438 36.4062 14.7188 37.1875 14.7188 37.9688C14.7188 38.75 15.5 39.5312 16.2812 39.5312C17.2188 39.5312 17.8438 38.75 17.8438 37.9688C17.8438 37.1875 17.2188 36.4062 16.2812 36.4062ZM27.8438 36.4062C26.9062 36.4062 26.2812 37.1875 26.2812 37.9688C26.2812 38.75 27.0625 39.5312 27.8438 39.5312C28.7812 39.5312 29.4062 38.75 29.4062 37.9688C29.4062 37.1875 28.7812 36.4062 27.8438 36.4062ZM39.4062 36.4062C38.4688 36.4062 37.8438 37.1875 37.8438 37.9688C37.8438 38.75 38.625 39.5312 39.4062 39.5312C40.3438 39.5312 40.9688 38.75 40.9688 37.9688C40.9688 37.1875 40.3438 36.4062 39.4062 36.4062ZM85.8125 36.875C85.5 36.5625 85.1875 36.4062 84.7188 36.4062H63.9375C63.1562 36.4062 62.375 37.1875 62.375 37.9688C62.375 38.75 63 39.5312 63.9375 39.5312H84.7188C85.6562 39.5312 86.2812 38.9062 86.2812 37.9688C86.2812 37.5 86.125 37.1875 85.8125 36.875ZM85.8125 36.875C85.5 36.5625 85.1875 36.4062 84.7188 36.4062H63.9375C63.1562 36.4062 62.375 37.1875 62.375 37.9688C62.375 38.75 63 39.5312 63.9375 39.5312H84.7188C85.6562 39.5312 86.2812 38.9062 86.2812 37.9688C86.2812 37.5 86.125 37.1875 85.8125 36.875ZM39.4062 36.4062C38.4688 36.4062 37.8438 37.1875 37.8438 37.9688C37.8438 38.75 38.625 39.5312 39.4062 39.5312C40.3438 39.5312 40.9688 38.75 40.9688 37.9688C40.9688 37.1875 40.3438 36.4062 39.4062 36.4062ZM27.8438 36.4062C26.9062 36.4062 26.2812 37.1875 26.2812 37.9688C26.2812 38.75 27.0625 39.5312 27.8438 39.5312C28.7812 39.5312 29.4062 38.75 29.4062 37.9688C29.4062 37.1875 28.7812 36.4062 27.8438 36.4062ZM16.2812 36.4062C15.3438 36.4062 14.7188 37.1875 14.7188 37.9688C14.7188 38.75 15.5 39.5312 16.2812 39.5312C17.2188 39.5312 17.8438 38.75 17.8438 37.9688C17.8438 37.1875 17.2188 36.4062 16.2812 36.4062ZM16.2812 36.4062C15.3438 36.4062 14.7188 37.1875 14.7188 37.9688C14.7188 38.75 15.5 39.5312 16.2812 39.5312C17.2188 39.5312 17.8438 38.75 17.8438 37.9688C17.8438 37.1875 17.2188 36.4062 16.2812 36.4062ZM27.8438 36.4062C26.9062 36.4062 26.2812 37.1875 26.2812 37.9688C26.2812 38.75 27.0625 39.5312 27.8438 39.5312C28.7812 39.5312 29.4062 38.75 29.4062 37.9688C29.4062 37.1875 28.7812 36.4062 27.8438 36.4062ZM39.4062 36.4062C38.4688 36.4062 37.8438 37.1875 37.8438 37.9688C37.8438 38.75 38.625 39.5312 39.4062 39.5312C40.3438 39.5312 40.9688 38.75 40.9688 37.9688C40.9688 37.1875 40.3438 36.4062 39.4062 36.4062ZM85.8125 36.875C85.5 36.5625 85.1875 36.4062 84.7188 36.4062H63.9375C63.1562 36.4062 62.375 37.1875 62.375 37.9688C62.375 38.75 63 39.5312 63.9375 39.5312H84.7188C85.6562 39.5312 86.2812 38.9062 86.2812 37.9688C86.2812 37.5 86.125 37.1875 85.8125 36.875ZM85.8125 36.875C85.5 36.5625 85.1875 36.4062 84.7188 36.4062H63.9375C63.1562 36.4062 62.375 37.1875 62.375 37.9688C62.375 38.75 63 39.5312 63.9375 39.5312H84.7188C85.6562 39.5312 86.2812 38.9062 86.2812 37.9688C86.2812 37.5 86.125 37.1875 85.8125 36.875ZM39.4062 36.4062C38.4688 36.4062 37.8438 37.1875 37.8438 37.9688C37.8438 38.75 38.625 39.5312 39.4062 39.5312C40.3438 39.5312 40.9688 38.75 40.9688 37.9688C40.9688 37.1875 40.3438 36.4062 39.4062 36.4062ZM27.8438 36.4062C26.9062 36.4062 26.2812 37.1875 26.2812 37.9688C26.2812 38.75 27.0625 39.5312 27.8438 39.5312C28.7812 39.5312 29.4062 38.75 29.4062 37.9688C29.4062 37.1875 28.7812 36.4062 27.8438 36.4062ZM16.2812 36.4062C15.3438 36.4062 14.7188 37.1875 14.7188 37.9688C14.7188 38.75 15.5 39.5312 16.2812 39.5312C17.2188 39.5312 17.8438 38.75 17.8438 37.9688C17.8438 37.1875 17.2188 36.4062 16.2812 36.4062ZM89.7188 29.0625H11.2812C9.40625 29.0625 7.84375 30.625 7.84375 32.5V43.5938C7.84375 45.4688 9.40625 47.0312 11.2812 47.0312H89.5625C91.4375 47.0312 93 45.4688 93 43.5938V32.5C93.1562 30.625 91.5938 29.0625 89.7188 29.0625ZM16.2812 42.8125C13.625 42.8125 11.4375 40.625 11.4375 37.9688C11.4375 35.3125 13.625 33.125 16.2812 33.125C18.9375 33.125 21.125 35.3125 21.125 37.9688C21.125 40.625 18.9375 42.8125 16.2812 42.8125ZM27.8438 42.8125C25.1875 42.8125 23 40.625 23 37.9688C23 35.3125 25.1875 33.125 27.8438 33.125C30.5 33.125 32.6875 35.3125 32.6875 37.9688C32.6875 40.625 30.5 42.8125 27.8438 42.8125ZM39.4062 42.8125C36.75 42.8125 34.5625 40.625 34.5625 37.9688C34.5625 35.3125 36.75 33.125 39.4062 33.125C42.0625 33.125 44.25 35.3125 44.25 37.9688C44.25 40.625 42.0625 42.8125 39.4062 42.8125ZM84.7188 42.8125H63.9375C61.2812 42.8125 59.0938 40.625 59.0938 37.9688C59.0938 35.3125 61.2812 33.125 63.9375 33.125H84.7188C85.9688 33.125 87.2188 33.5938 88.1562 34.5312C89.0938 35.4688 89.5625 36.5625 89.5625 37.9688C89.5625 40.625 87.375 42.8125 84.7188 42.8125ZM84.7188 36.4062H63.9375C63.1562 36.4062 62.375 37.1875 62.375 37.9688C62.375 38.75 63 39.5312 63.9375 39.5312H84.7188C85.6562 39.5312 86.2812 38.9062 86.2812 37.9688C86.2812 37.5 86.125 37.1875 85.8125 36.875C85.5 36.5625 85.1875 36.4062 84.7188 36.4062ZM39.4062 36.4062C38.4688 36.4062 37.8438 37.1875 37.8438 37.9688C37.8438 38.75 38.625 39.5312 39.4062 39.5312C40.3438 39.5312 40.9688 38.75 40.9688 37.9688C40.9688 37.1875 40.3438 36.4062 39.4062 36.4062ZM27.8438 36.4062C26.9062 36.4062 26.2812 37.1875 26.2812 37.9688C26.2812 38.75 27.0625 39.5312 27.8438 39.5312C28.7812 39.5312 29.4062 38.75 29.4062 37.9688C29.4062 37.1875 28.7812 36.4062 27.8438 36.4062ZM16.2812 36.4062C15.3438 36.4062 14.7188 37.1875 14.7188 37.9688C14.7188 38.75 15.5 39.5312 16.2812 39.5312C17.2188 39.5312 17.8438 38.75 17.8438 37.9688C17.8438 37.1875 17.2188 36.4062 16.2812 36.4062ZM16.2812 36.4062C15.3438 36.4062 14.7188 37.1875 14.7188 37.9688C14.7188 38.75 15.5 39.5312 16.2812 39.5312C17.2188 39.5312 17.8438 38.75 17.8438 37.9688C17.8438 37.1875 17.2188 36.4062 16.2812 36.4062ZM27.8438 36.4062C26.9062 36.4062 26.2812 37.1875 26.2812 37.9688C26.2812 38.75 27.0625 39.5312 27.8438 39.5312C28.7812 39.5312 29.4062 38.75 29.4062 37.9688C29.4062 37.1875 28.7812 36.4062 27.8438 36.4062ZM39.4062 36.4062C38.4688 36.4062 37.8438 37.1875 37.8438 37.9688C37.8438 38.75 38.625 39.5312 39.4062 39.5312C40.3438 39.5312 40.9688 38.75 40.9688 37.9688C40.9688 37.1875 40.3438 36.4062 39.4062 36.4062ZM85.8125 36.875C85.5 36.5625 85.1875 36.4062 84.7188 36.4062H63.9375C63.1562 36.4062 62.375 37.1875 62.375 37.9688C62.375 38.75 63 39.5312 63.9375 39.5312H84.7188C85.6562 39.5312 86.2812 38.9062 86.2812 37.9688C86.2812 37.5 86.125 37.1875 85.8125 36.875ZM85.8125 36.875C85.5 36.5625 85.1875 36.4062 84.7188 36.4062H63.9375C63.1562 36.4062 62.375 37.1875 62.375 37.9688C62.375 38.75 63 39.5312 63.9375 39.5312H84.7188C85.6562 39.5312 86.2812 38.9062 86.2812 37.9688C86.2812 37.5 86.125 37.1875 85.8125 36.875ZM39.4062 36.4062C38.4688 36.4062 37.8438 37.1875 37.8438 37.9688C37.8438 38.75 38.625 39.5312 39.4062 39.5312C40.3438 39.5312 40.9688 38.75 40.9688 37.9688C40.9688 37.1875 40.3438 36.4062 39.4062 36.4062ZM27.8438 36.4062C26.9062 36.4062 26.2812 37.1875 26.2812 37.9688C26.2812 38.75 27.0625 39.5312 27.8438 39.5312C28.7812 39.5312 29.4062 38.75 29.4062 37.9688C29.4062 37.1875 28.7812 36.4062 27.8438 36.4062ZM16.2812 36.4062C15.3438 36.4062 14.7188 37.1875 14.7188 37.9688C14.7188 38.75 15.5 39.5312 16.2812 39.5312C17.2188 39.5312 17.8438 38.75 17.8438 37.9688C17.8438 37.1875 17.2188 36.4062 16.2812 36.4062ZM16.2812 36.4062C15.3438 36.4062 14.7188 37.1875 14.7188 37.9688C14.7188 38.75 15.5 39.5312 16.2812 39.5312C17.2188 39.5312 17.8438 38.75 17.8438 37.9688C17.8438 37.1875 17.2188 36.4062 16.2812 36.4062ZM27.8438 36.4062C26.9062 36.4062 26.2812 37.1875 26.2812 37.9688C26.2812 38.75 27.0625 39.5312 27.8438 39.5312C28.7812 39.5312 29.4062 38.75 29.4062 37.9688C29.4062 37.1875 28.7812 36.4062 27.8438 36.4062ZM39.4062 36.4062C38.4688 36.4062 37.8438 37.1875 37.8438 37.9688C37.8438 38.75 38.625 39.5312 39.4062 39.5312C40.3438 39.5312 40.9688 38.75 40.9688 37.9688C40.9688 37.1875 40.3438 36.4062 39.4062 36.4062ZM85.8125 36.875C85.5 36.5625 85.1875 36.4062 84.7188 36.4062H63.9375C63.1562 36.4062 62.375 37.1875 62.375 37.9688C62.375 38.75 63 39.5312 63.9375 39.5312H84.7188C85.6562 39.5312 86.2812 38.9062 86.2812 37.9688C86.2812 37.5 86.125 37.1875 85.8125 36.875ZM85.8125 36.875C85.5 36.5625 85.1875 36.4062 84.7188 36.4062H63.9375C63.1562 36.4062 62.375 37.1875 62.375 37.9688C62.375 38.75 63 39.5312 63.9375 39.5312H84.7188C85.6562 39.5312 86.2812 38.9062 86.2812 37.9688C86.2812 37.5 86.125 37.1875 85.8125 36.875ZM39.4062 36.4062C38.4688 36.4062 37.8438 37.1875 37.8438 37.9688C37.8438 38.75 38.625 39.5312 39.4062 39.5312C40.3438 39.5312 40.9688 38.75 40.9688 37.9688C40.9688 37.1875 40.3438 36.4062 39.4062 36.4062ZM27.8438 36.4062C26.9062 36.4062 26.2812 37.1875 26.2812 37.9688C26.2812 38.75 27.0625 39.5312 27.8438 39.5312C28.7812 39.5312 29.4062 38.75 29.4062 37.9688C29.4062 37.1875 28.7812 36.4062 27.8438 36.4062ZM16.2812 36.4062C15.3438 36.4062 14.7188 37.1875 14.7188 37.9688C14.7188 38.75 15.5 39.5312 16.2812 39.5312C17.2188 39.5312 17.8438 38.75 17.8438 37.9688C17.8438 37.1875 17.2188 36.4062 16.2812 36.4062ZM39.4062 36.4062C38.4688 36.4062 37.8438 37.1875 37.8438 37.9688C37.8438 38.75 38.625 39.5312 39.4062 39.5312C40.3438 39.5312 40.9688 38.75 40.9688 37.9688C40.9688 37.1875 40.3438 36.4062 39.4062 36.4062ZM85.8125 36.875C85.5 36.5625 85.1875 36.4062 84.7188 36.4062H63.9375C63.1562 36.4062 62.375 37.1875 62.375 37.9688C62.375 38.75 63 39.5312 63.9375 39.5312H84.7188C85.6562 39.5312 86.2812 38.9062 86.2812 37.9688C86.2812 37.5 86.125 37.1875 85.8125 36.875ZM85.8125 36.875C85.5 36.5625 85.1875 36.4062 84.7188 36.4062H63.9375C63.1562 36.4062 62.375 37.1875 62.375 37.9688C62.375 38.75 63 39.5312 63.9375 39.5312H84.7188C85.6562 39.5312 86.2812 38.9062 86.2812 37.9688C86.2812 37.5 86.125 37.1875 85.8125 36.875ZM39.4062 36.4062C38.4688 36.4062 37.8438 37.1875 37.8438 37.9688C37.8438 38.75 38.625 39.5312 39.4062 39.5312C40.3438 39.5312 40.9688 38.75 40.9688 37.9688C40.9688 37.1875 40.3438 36.4062 39.4062 36.4062ZM21.125 21.25V25.9375H80.0312V21.25H21.125Z" fill="#222222"/>
</svg>
