<svg width="28" height="28" viewBox="0 0 28 28" fill="none" xmlns="http://www.w3.org/2000/svg">
<path d="M14.0911 20.8198C10.3734 20.8198 7.34844 17.7948 7.34844 14.0771C7.34844 10.3594 10.3734 7.33447 14.0911 7.33447C17.8088 7.33447 20.8337 10.3594 20.8337 14.0771C20.8337 17.7956 17.8088 20.8198 14.0911 20.8198ZM14.0911 10.1367C11.9185 10.1367 10.1507 11.9046 10.1507 14.0771C10.1507 16.2497 11.9185 18.0175 14.0911 18.0175C16.2636 18.0175 18.0315 16.2497 18.0315 14.0771C18.0315 11.9046 16.2636 10.1367 14.0911 10.1367Z" fill="url(#paint0_linear_2454_53)"/>
<path d="M20.7506 8.92954C21.6269 8.92954 22.3372 8.2192 22.3372 7.34294C22.3372 6.46669 21.6269 5.75635 20.7506 5.75635C19.8744 5.75635 19.164 6.46669 19.164 7.34294C19.164 8.2192 19.8744 8.92954 20.7506 8.92954Z" fill="url(#paint1_linear_2454_53)"/>
<path d="M19.6479 27.2H8.3513C4.18745 27.2 0.799997 23.8125 0.799997 19.6487V8.35129C0.799997 4.18744 4.18745 0.799988 8.3513 0.799988H19.6487C23.8125 0.799988 27.2 4.18744 27.2 8.35129V19.6487C27.2 23.8118 23.8118 27.2 19.6479 27.2ZM8.3513 3.60149C5.73257 3.60149 3.60227 5.7318 3.60227 8.35053V19.6479C3.60227 22.2666 5.73257 24.397 8.3513 24.397H19.6487C22.2674 24.397 24.3977 22.2666 24.3977 19.6479V8.35129C24.3977 5.73256 22.2674 3.60226 19.6487 3.60226H8.3513V3.60149Z" fill="url(#paint2_linear_2454_53)"/>
<defs>
<linearGradient id="paint0_linear_2454_53" x1="2.70715" y1="25.4613" x2="23.4758" y2="4.69271" gradientUnits="userSpaceOnUse">
<stop stop-color="#FEE411"/>
<stop offset="0.052" stop-color="#FEDB16"/>
<stop offset="0.138" stop-color="#FEC125"/>
<stop offset="0.248" stop-color="#FE983D"/>
<stop offset="0.376" stop-color="#FE5F5E"/>
<stop offset="0.5" stop-color="#FE2181"/>
<stop offset="1" stop-color="#9000DC"/>
</linearGradient>
<linearGradient id="paint1_linear_2454_53" x1="2.66959" y1="25.4239" x2="23.4382" y2="4.65532" gradientUnits="userSpaceOnUse">
<stop stop-color="#FEE411"/>
<stop offset="0.052" stop-color="#FEDB16"/>
<stop offset="0.138" stop-color="#FEC125"/>
<stop offset="0.248" stop-color="#FE983D"/>
<stop offset="0.376" stop-color="#FE5F5E"/>
<stop offset="0.5" stop-color="#FE2181"/>
<stop offset="1" stop-color="#9000DC"/>
</linearGradient>
<linearGradient id="paint2_linear_2454_53" x1="2.62243" y1="25.3768" x2="23.3911" y2="4.60813" gradientUnits="userSpaceOnUse">
<stop stop-color="#FEE411"/>
<stop offset="0.052" stop-color="#FEDB16"/>
<stop offset="0.138" stop-color="#FEC125"/>
<stop offset="0.248" stop-color="#FE983D"/>
<stop offset="0.376" stop-color="#FE5F5E"/>
<stop offset="0.5" stop-color="#FE2181"/>
<stop offset="1" stop-color="#9000DC"/>
</linearGradient>
</defs>
</svg>
