<svg width="22" height="22" viewBox="0 0 22 22" fill="none" xmlns="http://www.w3.org/2000/svg">
<path d="M6.07895 3.00184C6.07952 3.59637 5.90371 4.17771 5.57377 4.67228C5.24382 5.16684 4.77458 5.55242 4.22542 5.7802C3.67625 6.00798 3.07186 6.06773 2.48873 5.95188C1.9056 5.83603 1.36994 5.5498 0.949546 5.12941C0.529151 4.70901 0.242919 4.17335 0.127073 3.59022C0.0112264 3.00709 0.0709742 2.4027 0.298754 1.85354C0.526535 1.30438 0.912109 0.835129 1.40668 0.505185C1.90125 0.17524 2.48258 -0.000571093 3.07711 1.39368e-06C3.87301 0.000767791 4.6361 0.317278 5.19889 0.880067C5.76167 1.44286 6.07819 2.20594 6.07895 3.00184Z" fill="#0B69C7"/>
<path d="M4.65763 7.25708H1.49658C1.08571 7.25708 0.75263 7.59016 0.75263 8.00103V21.256C0.75263 21.6669 1.08571 22 1.49658 22H4.65763C5.0685 22 5.40158 21.6669 5.40158 21.256V8.00103C5.40158 7.59016 5.0685 7.25708 4.65763 7.25708Z" fill="#0B69C7"/>
<path d="M21.9276 14.8992V21.3168C21.9276 21.498 21.8557 21.6718 21.7275 21.7999C21.5994 21.928 21.4257 22 21.2445 22H17.8518C17.6707 22 17.4969 21.928 17.3688 21.7999C17.2407 21.6718 17.1687 21.498 17.1687 21.3168V15.0989C17.1687 14.1697 17.4379 11.0463 14.7429 11.0463C12.6529 11.0463 12.2274 13.1942 12.1376 14.1581V21.3313C12.1339 21.509 12.061 21.6782 11.9346 21.803C11.8081 21.9279 11.638 21.9985 11.4603 22H8.17763C8.08781 22.0004 7.9988 21.983 7.91574 21.9488C7.83269 21.9146 7.75722 21.8643 7.69371 21.8007C7.6302 21.7372 7.57989 21.6618 7.54569 21.5787C7.5115 21.4956 7.49409 21.4066 7.49447 21.3168V7.94314C7.49409 7.85318 7.51148 7.76403 7.54564 7.68082C7.5798 7.5976 7.63006 7.52194 7.69354 7.4582C7.75701 7.39446 7.83245 7.34387 7.91553 7.30936C7.9986 7.27485 8.08767 7.25708 8.17763 7.25708H11.4603C11.5513 7.25555 11.6418 7.27216 11.7264 7.30595C11.8109 7.33973 11.8879 7.39003 11.9529 7.45388C12.0178 7.51774 12.0694 7.59389 12.1046 7.67789C12.1398 7.76189 12.1579 7.85206 12.1579 7.94314V9.10103C12.9337 7.94314 14.0858 7.03998 16.5376 7.03998C21.9595 7.03708 21.9276 12.1116 21.9276 14.8992Z" fill="#0B69C7"/>
</svg>
