<svg width="401" height="400" viewBox="0 0 401 400" fill="none" xmlns="http://www.w3.org/2000/svg">
<path d="M17.0648 154.25C24.1376 156.953 31.6042 158.329 39.0648 158.329C42.3557 158.329 45.6466 158.062 48.9012 157.523C61.58 155.468 73.2648 149.038 82.6769 138.929C82.7679 138.826 82.8224 138.705 82.9072 138.596C90.3375 140.886 98.5072 144.299 106.222 149.323C106.15 149.517 106.065 149.699 105.986 149.886C77.5436 222.626 94.9678 291.402 107.865 313.317C127.035 345.887 152.998 360.396 177.762 365.602C196.386 376.99 216.313 380.693 233.907 380.693C257.78 380.693 277.319 373.971 283.344 370.79C321.095 350.668 350.913 317.305 367.301 276.838C384.889 233.505 393.059 195.474 392.283 160.583C391.204 114.711 374.647 75.0986 346.841 51.9107C335.834 42.6804 322.034 36.2622 306.901 33.2743C284.768 18.8562 254.95 14.4077 226.725 21.8198C192.18 30.8804 166.919 54.1834 151.816 72.141C134.483 92.7471 120.235 116.183 109.307 141.862C101.168 136.747 91.7315 132.717 81.2648 129.886C71.3072 109.559 52.3254 94.0744 29.5133 87.9835C27.5742 87.4705 25.5456 87.3926 23.5728 87.7555C21.6 88.1183 19.7319 88.9128 18.1021 90.0821C16.4724 91.2515 15.1213 92.7667 14.1457 94.5193C13.17 96.2719 12.594 98.2185 12.4588 100.22L11.5376 113.832C11.1315 119.505 10.4345 124.983 9.7618 130.28C9.34968 133.529 8.93756 136.777 8.57998 140.093C7.91937 146.262 11.4042 152.086 17.0648 154.25ZM368.459 154.814C368.409 154.282 368.466 153.746 368.628 153.238C368.79 152.729 369.053 152.258 369.401 151.854C369.749 151.449 370.175 151.119 370.654 150.882C371.132 150.646 371.654 150.509 372.187 150.479C372.719 150.449 373.253 150.526 373.755 150.707C374.257 150.888 374.718 151.168 375.109 151.531C375.501 151.893 375.815 152.331 376.033 152.818C376.252 153.306 376.37 153.832 376.38 154.365C378.76 196.661 369.463 238.797 349.507 276.165C349.262 276.625 348.928 277.031 348.526 277.361C348.123 277.691 347.659 277.939 347.161 278.09C346.663 278.242 346.139 278.293 345.621 278.242C345.103 278.191 344.6 278.038 344.141 277.793C343.681 277.547 343.275 277.213 342.945 276.811C342.614 276.408 342.367 275.945 342.215 275.446C342.064 274.948 342.013 274.425 342.064 273.906C342.115 273.388 342.268 272.885 342.513 272.426C361.778 236.341 370.758 195.654 368.459 154.814ZM333.016 290.596L334.738 288.529C335.071 288.129 335.479 287.798 335.94 287.555C336.401 287.313 336.905 287.164 337.424 287.116C337.942 287.069 338.465 287.124 338.963 287.278C339.46 287.433 339.922 287.684 340.322 288.017C340.723 288.35 341.053 288.759 341.296 289.22C341.538 289.68 341.688 290.185 341.735 290.703C341.783 291.222 341.728 291.745 341.573 292.242C341.419 292.739 341.168 293.201 340.834 293.602L339.113 295.662C338.781 296.065 338.373 296.397 337.912 296.642C337.452 296.886 336.947 297.036 336.428 297.085C335.908 297.133 335.385 297.078 334.887 296.924C334.389 296.769 333.926 296.518 333.525 296.184C333.125 295.85 332.793 295.441 332.551 294.98C332.308 294.519 332.159 294.014 332.112 293.495C332.065 292.976 332.12 292.453 332.275 291.955C332.431 291.458 332.682 290.996 333.016 290.596ZM157.889 77.2441C172.253 60.1713 196.21 38.0198 228.738 29.4865C237.037 27.3065 245.581 26.2005 254.162 26.1956C272.034 26.1956 289.234 31.0683 303.041 40.2259L303.138 40.3107C303.804 40.735 304.501 41.2501 305.198 41.741C306.192 42.4501 307.162 43.1834 308.113 43.941C308.586 44.3107 309.022 44.638 309.507 45.038C331.138 63.0744 345.477 91.9713 350.319 126.19C351.307 133.19 351.925 140.39 352.095 147.79C352.786 178.293 346.253 211.517 332.313 248.929C330.835 252.941 329.3 256.931 327.707 260.899C318.451 283.781 304.569 304.504 286.931 321.771C275.192 333.282 261.87 343.057 247.368 350.802C246.944 351.026 246.465 351.262 245.925 351.511C241.38 353.523 230.713 357.093 216.95 358.814C186.841 362.377 142.622 356.723 114.707 309.28C102.525 288.596 86.2345 223.662 112.865 154.165C114.956 155.899 116.998 157.729 118.913 159.765C117.263 160.933 115.703 162.223 114.247 163.626C110.198 167.541 107.689 171.717 106.798 176.032C105.598 181.862 107.689 187.911 112.004 191.093C115.501 193.674 120.059 194.147 124.513 192.39C129.913 190.256 134.053 185.365 135.059 179.935C136.095 174.329 134.671 168.311 130.919 162.256C135.403 160.529 140.201 159.771 144.998 160.032C144.531 161.165 144.041 162.286 143.592 163.432C124.222 212.953 136.138 259.88 144.95 274.844C162.471 304.62 188.283 312.396 209.404 312.396C225.071 312.396 238.15 308.117 243.325 305.365C269.077 291.668 289.41 268.923 300.586 241.323C312.519 211.868 318.059 186.032 317.525 162.335C316.81 131.032 305.477 103.947 286.416 88.0319C270.871 75.038 247.689 70.5228 225.95 76.2259C202.301 82.4259 185.047 98.3471 174.738 110.602C164.121 123.294 155.245 137.345 148.344 152.383C140.723 151.437 132.988 152.596 125.98 155.735C122.941 152.347 119.595 149.247 115.986 146.474C126.677 120.929 140.725 97.6441 157.889 77.2441ZM119.768 169.335C121.043 168.103 122.417 166.978 123.877 165.971C126.295 169.705 128.059 174.129 127.259 178.493C126.756 181.214 124.428 183.886 121.598 185.014C120.265 185.535 118.344 185.911 116.707 184.711C114.871 183.353 113.992 180.444 114.574 177.638C115.131 174.911 116.877 172.123 119.762 169.335H119.768ZM150.98 166.323C151.61 164.723 152.283 163.153 152.944 161.583C158.653 163.396 163.847 166.674 167.853 171.099C167.236 171.324 166.628 171.57 166.028 171.838C158.289 175.262 153.004 182.293 152.562 189.747C152.295 194.214 154.059 198.887 157.271 202.25C160.138 205.256 163.81 206.905 167.628 206.905H167.798C174.362 206.82 180.628 201.711 182.707 194.759C184.283 189.499 183.689 183.402 181.01 177.117C182.592 177.159 184.271 177.299 186.035 177.517C187.398 177.699 188.762 177.941 190.119 178.196C189.877 178.777 189.592 179.335 189.362 179.923C181.344 200.438 185.55 220.317 190.089 228.026C197.847 241.22 209.307 244.674 218.695 244.674C225.701 244.674 231.556 242.753 233.871 241.523C245.105 235.485 253.862 225.693 258.61 213.856C263.671 201.371 266.016 190.39 265.786 180.268C265.483 166.65 260.489 154.814 252.089 147.808C245.089 141.953 234.707 139.911 224.998 142.456C216.792 144.608 209.053 149.79 202.628 157.426C199.175 161.575 196.159 166.069 193.628 170.838C191.447 170.353 189.253 169.929 187.041 169.65C183.571 169.175 180.062 169.053 176.568 169.286C171.482 162.313 164.381 157.065 156.222 154.25C162.727 140.4 170.991 127.446 180.81 115.711C190.38 104.329 206.331 89.5713 227.962 83.8986C233.544 82.438 239.222 81.7168 244.804 81.7168C258.525 81.7168 271.653 86.038 281.331 94.1228C298.628 108.577 308.931 133.511 309.592 162.517C310.101 185.105 304.75 209.911 293.234 238.341C282.75 264.22 263.701 285.529 239.598 298.353C230.628 303.129 179.277 317.541 151.792 270.82C143.622 256.941 132.671 213.129 150.98 166.323ZM169.241 179.086C170.301 178.62 171.422 178.238 172.622 177.935C172.986 178.626 173.325 179.329 173.635 180.05C175.035 183.28 176.422 188.05 175.107 192.486C174.016 196.141 170.828 198.929 167.695 198.971C165.598 198.911 163.804 197.608 163.01 196.771C161.313 194.996 160.344 192.486 160.483 190.226C160.75 185.765 164.271 181.293 169.241 179.086ZM226.156 186.905C218.865 180.77 210.485 176.061 201.453 173.026C203.58 169.293 205.986 165.771 208.701 162.541C212.441 158.086 218.653 152.323 227.01 150.135C229.097 149.586 231.246 149.307 233.404 149.305C238.531 149.305 243.416 150.899 247.004 153.893C253.641 159.444 257.598 169.123 257.853 180.45C258.059 189.462 255.901 199.42 251.259 210.874C247.207 220.984 239.734 229.35 230.144 234.511C229.931 234.626 208.422 243.541 196.931 224.002C193.865 218.796 189.568 201.196 196.756 182.814C197.107 181.929 197.513 181.08 197.895 180.208C206.365 182.903 214.225 187.233 221.028 192.953C221.426 193.29 221.886 193.546 222.382 193.705C222.879 193.864 223.401 193.924 223.921 193.881C224.44 193.839 224.946 193.694 225.41 193.456C225.873 193.217 226.285 192.89 226.622 192.493C226.959 192.095 227.215 191.635 227.374 191.139C227.533 190.642 227.593 190.12 227.551 189.6C227.508 189.081 227.363 188.575 227.125 188.111C226.887 187.648 226.559 187.236 226.162 186.899L226.156 186.905ZM19.1073 139.002C19.8345 136.941 22.0951 135.85 24.1739 136.577C34.6962 140.265 46.1281 140.457 56.7679 137.123C57.7508 136.876 58.7909 137.014 59.6755 137.508C60.5602 138.003 61.2227 138.816 61.5275 139.783C61.8324 140.749 61.7567 141.796 61.3159 142.708C60.875 143.621 60.1024 144.331 59.1557 144.693C53.3748 146.511 47.3493 147.433 41.2891 147.426C34.5604 147.43 27.8797 146.293 21.5315 144.062C20.5393 143.712 19.7266 142.983 19.272 142.034C18.8174 141.085 18.7582 139.994 19.1073 139.002Z" fill="black"/>
<path d="M171.01 91.8683C171.615 91.8687 172.212 91.7307 172.755 91.4649C173.298 91.1991 173.773 90.8126 174.144 90.335C186.992 73.8502 206.204 62.5168 226.859 59.2623C227.898 59.0983 228.83 58.5283 229.448 57.6776C230.067 56.8268 230.323 55.7651 230.159 54.7259C229.995 53.6868 229.425 52.7553 228.574 52.1364C227.723 51.5175 226.662 51.262 225.623 51.4259C202.787 55.1214 182.177 67.2687 167.883 85.4562C167.426 86.0424 167.142 86.7452 167.064 87.4847C166.987 88.2241 167.119 88.9705 167.445 89.6388C167.77 90.3071 168.278 90.8704 168.908 91.2646C169.538 91.6587 170.267 91.8679 171.01 91.8683ZM243.271 58.1774H243.707C244.76 58.1774 245.77 57.7592 246.514 57.0147C247.259 56.2703 247.677 55.2606 247.677 54.2077C247.677 53.1549 247.259 52.1452 246.514 51.4007C245.77 50.6563 244.76 50.238 243.707 50.238H243.271C242.218 50.238 241.208 50.6563 240.464 51.4007C239.72 52.1452 239.301 53.1549 239.301 54.2077C239.301 55.2606 239.72 56.2703 240.464 57.0147C241.208 57.7592 242.218 58.1774 243.271 58.1774ZM209.295 328.82C185.168 334.05 158.465 324.729 142.841 305.608C142.167 304.816 141.21 304.32 140.175 304.227C139.14 304.133 138.109 304.449 137.305 305.107C136.5 305.765 135.986 306.712 135.872 307.745C135.758 308.778 136.053 309.815 136.695 310.632C150.919 328.038 173.362 338.177 195.768 338.177C200.871 338.177 205.974 337.656 210.98 336.565C211.507 336.474 212.011 336.276 212.46 335.985C212.909 335.693 213.294 335.314 213.593 334.87C213.892 334.426 214.098 333.926 214.198 333.401C214.299 332.875 214.292 332.334 214.178 331.811C214.065 331.288 213.846 330.794 213.537 330.357C213.227 329.921 212.832 329.551 212.376 329.271C211.92 328.991 211.412 328.806 210.882 328.728C210.353 328.649 209.813 328.684 209.295 328.82Z" fill="black"/>
</svg>
