<svg width="101" height="100" viewBox="0 0 101 100" fill="none" xmlns="http://www.w3.org/2000/svg">
<path d="M22.1797 83.2031H78.8203V16.7969H22.1797V83.2031ZM68.0781 71.4844H32.9219C32.6629 71.4844 32.4145 71.3815 32.2313 71.1983C32.0482 71.0152 31.9453 70.7668 31.9453 70.5078C31.9453 70.2488 32.0482 70.0004 32.2313 69.8173C32.4145 69.6341 32.6629 69.5312 32.9219 69.5312H68.0781C68.3371 69.5312 68.5855 69.6341 68.7687 69.8173C68.9518 70.0004 69.0547 70.2488 69.0547 70.5078C69.0547 70.7668 68.9518 71.0152 68.7687 71.1983C68.5855 71.3815 68.3371 71.4844 68.0781 71.4844ZM69.0547 62.6953C69.0547 62.9543 68.9518 63.2027 68.7687 63.3858C68.5855 63.569 68.3371 63.6719 68.0781 63.6719H32.9219C32.6629 63.6719 32.4145 63.569 32.2313 63.3858C32.0482 63.2027 31.9453 62.9543 31.9453 62.6953C31.9453 62.4363 32.0482 62.1879 32.2313 62.0048C32.4145 61.8216 32.6629 61.7188 32.9219 61.7188H68.0781C68.3371 61.7188 68.5855 61.8216 68.7687 62.0048C68.9518 62.1879 69.0547 62.4363 69.0547 62.6953ZM32.9219 53.9062H56.3594C56.6184 53.9062 56.8668 54.0091 57.0499 54.1923C57.233 54.3754 57.3359 54.6238 57.3359 54.8828C57.3359 55.1418 57.233 55.3902 57.0499 55.5733C56.8668 55.7565 56.6184 55.8594 56.3594 55.8594H32.9219C32.6629 55.8594 32.4145 55.7565 32.2313 55.5733C32.0482 55.3902 31.9453 55.1418 31.9453 54.8828C31.9453 54.6238 32.0482 54.3754 32.2313 54.1923C32.4145 54.0091 32.6629 53.9062 32.9219 53.9062ZM31.9453 47.0703C31.9453 46.8113 32.0482 46.5629 32.2313 46.3798C32.4145 46.1966 32.6629 46.0938 32.9219 46.0938H56.3594C56.6184 46.0938 56.8668 46.1966 57.0499 46.3798C57.233 46.5629 57.3359 46.8113 57.3359 47.0703C57.3359 47.3293 57.233 47.5777 57.0499 47.7608C56.8668 47.944 56.6184 48.0469 56.3594 48.0469H32.9219C32.6629 48.0469 32.4145 47.944 32.2313 47.7608C32.0482 47.5777 31.9453 47.3293 31.9453 47.0703ZM51.7625 26.2764C51.6699 26.1861 51.5962 26.0784 51.5456 25.9594C51.495 25.8404 51.4685 25.7126 51.4677 25.5833C51.4669 25.454 51.4918 25.3259 51.5409 25.2063C51.59 25.0867 51.6624 24.978 51.7538 24.8866C51.8452 24.7952 51.9539 24.7228 52.0735 24.6738C52.1931 24.6247 52.3212 24.5998 52.4505 24.6006C52.5798 24.6015 52.7076 24.628 52.8266 24.6786C52.9456 24.7292 53.0533 24.8029 53.1436 24.8955L57.0498 28.8018C57.1405 28.8924 57.2125 29 57.2615 29.1185C57.3106 29.237 57.3359 29.364 57.3359 29.4922C57.3359 29.6204 57.3106 29.7474 57.2615 29.8659C57.2125 29.9843 57.1405 30.092 57.0498 30.1826L53.1436 34.0889C52.9529 34.2797 52.7031 34.375 52.4531 34.375C52.2031 34.375 51.9533 34.2797 51.7625 34.0889C51.6718 33.9982 51.5999 33.8906 51.5508 33.7721C51.5017 33.6536 51.4764 33.5267 51.4764 33.3984C51.4764 33.2702 51.5017 33.1432 51.5508 33.0248C51.5999 32.9063 51.6718 32.7987 51.7625 32.708L54.9783 29.4922L51.7625 26.2764ZM39.8609 34.9148L45.7203 23.1961C45.7776 23.0813 45.8569 22.979 45.9538 22.8949C46.0507 22.8108 46.1632 22.7467 46.2849 22.7061C46.4066 22.6656 46.535 22.6494 46.663 22.6586C46.7909 22.6678 46.9158 22.7021 47.0305 22.7596C47.2621 22.8754 47.4383 23.0785 47.5202 23.3242C47.6021 23.5699 47.583 23.8381 47.4672 24.0697L41.6078 35.7885C41.5504 35.9032 41.4711 36.0055 41.3742 36.0895C41.2773 36.1735 41.1648 36.2376 41.0431 36.2781C40.9214 36.3187 40.793 36.3349 40.6651 36.3258C40.5371 36.3167 40.4123 36.2825 40.2976 36.2251C40.1829 36.1677 40.0806 36.0883 39.9966 35.9914C39.9125 35.8946 39.8484 35.7821 39.8079 35.6604C39.7673 35.5387 39.7512 35.4103 39.7603 35.2823C39.7694 35.1544 39.8036 35.0295 39.8609 34.9148ZM30.2781 28.8018L34.1844 24.8955C34.2746 24.8029 34.3824 24.7292 34.5013 24.6786C34.6203 24.628 34.7481 24.6015 34.8774 24.6006C35.0067 24.5998 35.1348 24.6247 35.2544 24.6738C35.374 24.7228 35.4827 24.7952 35.5741 24.8866C35.6656 24.978 35.7379 25.0867 35.787 25.2063C35.8361 25.3259 35.861 25.454 35.8602 25.5833C35.8594 25.7126 35.8329 25.8404 35.7823 25.9594C35.7317 26.0784 35.658 26.1861 35.5654 26.2764L32.3498 29.4922L35.5654 32.708C35.6561 32.7987 35.7281 32.9063 35.7772 33.0248C35.8263 33.1432 35.8515 33.2702 35.8515 33.3984C35.8515 33.5267 35.8263 33.6536 35.7772 33.7721C35.7281 33.8906 35.6561 33.9982 35.5654 34.0889C35.3748 34.2797 35.125 34.375 34.875 34.375C34.625 34.375 34.3752 34.2797 34.1844 34.0889L30.2781 30.1826C30.095 29.9995 29.9922 29.7511 29.9922 29.4922C29.9922 29.2332 30.095 28.9849 30.2781 28.8018ZM70.6281 3.125H30.3719C25.8547 3.125 22.1797 6.7998 22.1797 11.317V14.8438H78.8203V11.317C78.8203 6.7998 75.1453 3.125 70.6281 3.125ZM22.1797 88.683C22.1797 93.2002 25.8547 96.875 30.3719 96.875H70.6281C75.1453 96.875 78.8203 93.2002 78.8203 88.683V85.1562H22.1797V88.683Z" fill="#222222"/>
<path d="M94.4453 17.7734C96.0633 17.7734 97.375 16.4618 97.375 14.8438C97.375 13.2257 96.0633 11.9141 94.4453 11.9141C92.8273 11.9141 91.5156 13.2257 91.5156 14.8438C91.5156 16.4618 92.8273 17.7734 94.4453 17.7734Z" fill="#222222"/>
<path d="M10.4609 80.2734C12.079 80.2734 13.3906 78.9618 13.3906 77.3438C13.3906 75.7257 12.079 74.4141 10.4609 74.4141C8.84292 74.4141 7.53125 75.7257 7.53125 77.3438C7.53125 78.9618 8.84292 80.2734 10.4609 80.2734Z" fill="#222222"/>
<path d="M5.57812 41.2109C6.65681 41.2109 7.53125 40.3365 7.53125 39.2578C7.53125 38.1791 6.65681 37.3047 5.57812 37.3047C4.49944 37.3047 3.625 38.1791 3.625 39.2578C3.625 40.3365 4.49944 41.2109 5.57812 41.2109Z" fill="#222222"/>
<path d="M89.5625 43.1641C90.6412 43.1641 91.5156 42.2896 91.5156 41.2109C91.5156 40.1323 90.6412 39.2578 89.5625 39.2578C88.4838 39.2578 87.6094 40.1323 87.6094 41.2109C87.6094 42.2896 88.4838 43.1641 89.5625 43.1641Z" fill="#222222"/>
<path d="M15.3438 19.7266C16.4224 19.7266 17.2969 18.8521 17.2969 17.7734C17.2969 16.6948 16.4224 15.8203 15.3438 15.8203C14.2651 15.8203 13.3906 16.6948 13.3906 17.7734C13.3906 18.8521 14.2651 19.7266 15.3438 19.7266Z" fill="#222222"/>
<path d="M91.5156 84.1797C92.5943 84.1797 93.4688 83.3052 93.4688 82.2266C93.4688 81.1479 92.5943 80.2734 91.5156 80.2734C90.4369 80.2734 89.5625 81.1479 89.5625 82.2266C89.5625 83.3052 90.4369 84.1797 91.5156 84.1797Z" fill="#222222"/>
</svg>
