<svg width="60" height="60" viewBox="0 0 60 60" fill="none" xmlns="http://www.w3.org/2000/svg">
<path d="M26.055 7.7813C23.5521 7.29049 20.9669 7.42193 18.5267 8.16407C16.0864 8.90621 13.8658 10.2363 12.06 12.0375C10.1338 13.9552 8.74619 16.346 8.0366 18.9698C7.32701 21.5936 7.32042 24.3579 8.01748 26.985C8.71536 26.3827 9.55494 25.9676 10.4573 25.7789C11.3597 25.5902 12.2952 25.634 13.176 25.9062C14.0568 26.1785 14.8539 26.6701 15.4924 27.3351C16.131 28.0001 16.5899 28.8165 16.8262 29.7075C17.5626 29.6011 18.313 29.6472 19.0307 29.843C19.7485 30.0388 20.4184 30.3801 20.9987 30.8458C21.5789 31.3114 22.0573 31.8914 22.4039 32.5497C22.7506 33.208 22.9581 33.9306 23.0137 34.6725C24.3111 34.7646 25.532 35.3209 26.4527 36.2396C27.3735 37.1583 27.9325 38.3779 28.0275 39.675C29.063 39.7478 30.0556 40.1169 30.8872 40.7382C31.7187 41.3595 32.354 42.2069 32.7172 43.1793C33.0805 44.1517 33.1564 45.208 32.9359 46.2223C32.7154 47.2367 32.2079 48.1662 31.4737 48.9L30.5925 49.7775L33.1837 52.2263C33.5297 52.5539 33.99 52.7334 34.4664 52.7264C34.9428 52.7194 35.3976 52.5265 35.7337 52.1888C36.0446 51.8762 36.233 51.4624 36.2646 51.0227C36.2963 50.583 36.1691 50.1465 35.9062 49.7925L35.7637 49.65C35.7003 49.5868 35.6414 49.5191 35.5875 49.4475L35.2087 49.065C34.8568 48.7122 34.6591 48.2341 34.6591 47.7357C34.6591 47.2373 34.8568 46.7592 35.2087 46.4063C35.3822 46.2325 35.5882 46.0946 35.8151 46.0005C36.0419 45.9064 36.285 45.858 36.5306 45.858C36.7762 45.858 37.0193 45.9064 37.2462 46.0005C37.473 46.0946 37.679 46.2325 37.8525 46.4063L38.3775 46.9313C38.49 47.0438 38.595 47.1563 38.6925 47.2763L38.9737 47.5613C39.1383 47.7271 39.334 47.8586 39.5496 47.9484C39.7652 48.0382 39.9964 48.0844 40.23 48.0844C40.4635 48.0844 40.6948 48.0382 40.9104 47.9484C41.126 47.8586 41.3217 47.7271 41.4862 47.5613C41.8199 47.2261 42.0072 46.7724 42.0072 46.2994C42.0072 45.8265 41.8199 45.3728 41.4862 45.0375L40.9237 44.475C40.7438 44.2948 40.6025 44.0799 40.5083 43.8433C40.4142 43.6067 40.3693 43.3534 40.3762 43.0988C40.3756 42.7284 40.4846 42.366 40.6897 42.0575C40.8947 41.749 41.1866 41.5082 41.5283 41.3654C41.8701 41.2226 42.2466 41.1842 42.6101 41.2551C42.9737 41.326 43.3082 41.503 43.5712 41.7638L43.995 42.1913C44.1776 42.3749 44.3947 42.5205 44.6337 42.6199C44.8728 42.7193 45.1292 42.7705 45.3881 42.7705C45.647 42.7705 45.9034 42.7193 46.1425 42.6199C46.3816 42.5205 46.5986 42.3749 46.7812 42.1913C47.1497 41.8198 47.3564 41.3177 47.3564 40.7944C47.3564 40.2712 47.1497 39.7691 46.7812 39.3975L46.6875 39.3C46.5701 39.1977 46.4563 39.0914 46.3462 38.9813L43.44 36.0638C43.0892 35.7111 42.8922 35.2338 42.8922 34.7363C42.8922 34.2388 43.0892 33.7615 43.44 33.4088C43.6135 33.2344 43.8198 33.096 44.047 33.0016C44.2741 32.9072 44.5177 32.8586 44.7637 32.8586C45.0098 32.8586 45.2533 32.9072 45.4805 33.0016C45.7077 33.096 45.914 33.2344 46.0875 33.4088L48.8175 36.1463C48.8823 36.1972 48.9436 36.2524 49.0012 36.3113L49.2262 36.5363C49.8072 37.0096 50.5433 37.2502 51.2917 37.2114C52.04 37.1725 52.7473 36.8571 53.2762 36.3263C53.8448 35.755 54.164 34.9817 54.164 34.1757C54.164 33.3696 53.8448 32.5964 53.2762 32.025L50.5087 29.2463C50.4712 29.214 50.4349 29.1802 50.4 29.145L39.18 17.7375H36.3075L29.8875 22.62C26.7825 24.9825 22.35 24.3825 19.9837 21.2775C19.4208 20.5399 19.0088 19.6985 18.7713 18.8015C18.5339 17.9045 18.4757 16.9695 18.6001 16.0499C18.7244 15.1304 19.0289 14.2444 19.496 13.4426C19.9632 12.6409 20.5838 11.9391 21.3225 11.3775L26.055 7.7813ZM39.9675 13.9875C40.2162 13.9881 40.4623 14.0381 40.6915 14.1347C40.9207 14.2312 41.1284 14.3724 41.3025 14.55L51.4125 24.825C52.1328 23.4006 52.5573 21.8451 52.6603 20.2523C52.7633 18.6594 52.5427 17.0622 52.0119 15.5569C51.481 14.0516 50.6509 12.6694 49.5714 11.4935C48.492 10.3176 47.1857 9.37249 45.7312 8.71505C44.4797 7.99661 43.0606 7.62146 41.6175 7.62755H32.43C32.3721 7.68265 32.3107 7.734 32.2462 7.7813L23.595 14.3625C23.2482 14.6256 22.9568 14.9545 22.7373 15.3303C22.5179 15.7062 22.3748 16.1217 22.3163 16.553C22.2578 16.9843 22.2849 17.4229 22.3963 17.8437C22.5076 18.2645 22.7008 18.6591 22.965 19.005C23.4989 19.7053 24.2889 20.165 25.1615 20.2831C26.0341 20.4013 26.9179 20.1682 27.6187 19.635L34.5412 14.37C34.8669 14.1224 35.2646 13.9881 35.6737 13.9875H39.9675ZM23.8012 41.2463L21.3375 43.7025C21.0239 44.0154 20.5991 44.191 20.1562 44.191C19.7133 44.191 19.2885 44.0154 18.975 43.7025C18.6692 43.3986 18.4935 42.9877 18.4851 42.5567C18.4768 42.1256 18.6363 41.7082 18.93 41.3925L18.9787 41.3438L21.4387 38.8875L21.4837 38.8463C21.801 38.5534 22.219 38.3941 22.6508 38.4018C23.0825 38.4095 23.4946 38.5835 23.8012 38.8875C23.9569 39.042 24.0805 39.2257 24.1648 39.4281C24.2491 39.6305 24.2925 39.8476 24.2925 40.0669C24.2925 40.2862 24.2491 40.5033 24.1648 40.7057C24.0805 40.9081 23.9569 41.0919 23.8012 41.2463ZM23.9925 48.705C24.306 49.0179 24.7308 49.1935 25.1737 49.1935C25.6166 49.1935 26.0414 49.0179 26.355 48.705L28.8187 46.2488C28.9942 46.0743 29.1285 45.8628 29.2118 45.6298C29.2951 45.3967 29.3253 45.148 29.3001 44.9018C29.275 44.6556 29.1951 44.4182 29.0664 44.2068C28.9377 43.9954 28.7634 43.8154 28.5562 43.68C28.235 43.4689 27.8507 43.3749 27.4683 43.4138C27.0858 43.4527 26.7284 43.6222 26.4562 43.8938L23.9925 46.35C23.8374 46.5044 23.7143 46.6879 23.6303 46.89C23.5463 47.092 23.5031 47.3087 23.5031 47.5275C23.5031 47.7464 23.5463 47.9631 23.6303 48.1651C23.7143 48.3672 23.8374 48.5507 23.9925 48.705ZM12.7987 32.2163L10.3387 34.6725C10.0252 34.9854 9.60038 35.161 9.15748 35.161C8.71459 35.161 8.28978 34.9854 7.97624 34.6725C7.67045 34.3686 7.4948 33.9577 7.4864 33.5266C7.478 33.0956 7.63752 32.6782 7.93123 32.3625L7.97998 32.3138L10.44 29.8575L10.485 29.8163C10.8021 29.5241 11.2198 29.3656 11.6509 29.374C12.082 29.3824 12.4932 29.557 12.7987 29.8613C12.9538 30.0157 13.0769 30.1991 13.1609 30.4012C13.2449 30.6033 13.2881 30.82 13.2881 31.0388C13.2881 31.2576 13.2449 31.4743 13.1609 31.6764C13.0769 31.8784 12.9538 32.0619 12.7987 32.2163ZM18.3375 36.39L15.8775 38.8425C15.5639 39.1554 15.1391 39.331 14.6962 39.331C14.2533 39.331 13.8285 39.1554 13.515 38.8425C13.2103 38.5388 13.0354 38.1287 13.027 37.6985C13.0186 37.2684 13.1774 36.8517 13.47 36.5363L13.5187 36.4875L15.9787 34.0313L16.0237 33.9863C16.3408 33.6941 16.7585 33.5356 17.1896 33.544C17.6208 33.5524 18.032 33.727 18.3375 34.0313C18.4932 34.1857 18.6167 34.3694 18.701 34.5719C18.7854 34.7743 18.8288 34.9914 18.8288 35.2107C18.8288 35.4299 18.7854 35.6471 18.701 35.8495C18.6167 36.0519 18.4932 36.2356 18.3375 36.39Z" fill="white"/>
</svg>
