<svg width="32" height="32" viewBox="0 0 32 32" fill="none" xmlns="http://www.w3.org/2000/svg">
<path d="M23.9998 17.3337H17.3332V24.0003C17.3332 24.7337 16.7332 25.3337 15.9998 25.3337C15.2665 25.3337 14.6665 24.7337 14.6665 24.0003V17.3337H7.99984C7.2665 17.3337 6.6665 16.7337 6.6665 16.0003C6.6665 15.267 7.2665 14.667 7.99984 14.667H14.6665V8.00033C14.6665 7.26699 15.2665 6.66699 15.9998 6.66699C16.7332 6.66699 17.3332 7.26699 17.3332 8.00033V14.667H23.9998C24.7332 14.667 25.3332 15.267 25.3332 16.0003C25.3332 16.7337 24.7332 17.3337 23.9998 17.3337Z" fill="#222222"/>
</svg>
