<svg width="40" height="40" viewBox="0 0 40 40" fill="none" xmlns="http://www.w3.org/2000/svg">
<path d="M19.995 11.875C19.995 11.3777 20.1925 10.9008 20.5442 10.5492C20.8958 10.1975 21.3727 10 21.87 10H35.62C36.1173 10 36.5942 10.1975 36.9458 10.5492C37.2975 10.9008 37.495 11.3777 37.495 11.875V25.625C37.495 26.1223 37.2975 26.5992 36.9458 26.9508C36.5942 27.3025 36.1173 27.5 35.62 27.5C35.1227 27.5 34.6458 27.3025 34.2942 26.9508C33.9425 26.5992 33.745 26.1223 33.745 25.625V16.4025L19.45 30.7025C19.0984 31.0536 18.6219 31.2509 18.125 31.2509C17.6281 31.2509 17.1516 31.0536 16.8 30.7025L3.05 16.9525C2.87083 16.7796 2.7279 16.5728 2.62952 16.3441C2.53115 16.1154 2.47931 15.8694 2.47703 15.6204C2.47475 15.3714 2.52208 15.1245 2.61624 14.894C2.71041 14.6636 2.84954 14.4542 3.0255 14.278C3.20147 14.1019 3.41075 13.9626 3.64113 13.8682C3.87152 13.7738 4.11839 13.7262 4.36736 13.7283C4.61632 13.7303 4.86238 13.7819 5.09118 13.8801C5.31998 13.9783 5.52695 14.121 5.69999 14.3L18.125 26.725L31.095 13.75H21.87C21.3727 13.75 20.8958 13.5525 20.5442 13.2008C20.1925 12.8492 19.995 12.3723 19.995 11.875Z" fill="white"/>
</svg>
