<svg width="101" height="100" viewBox="0 0 101 100" fill="none" xmlns="http://www.w3.org/2000/svg">
<path d="M73.1416 72.9245C71.3208 72.9245 69.5378 72.7094 67.8152 72.3188L67.268 89.1981V89.3943C67.274 90.9468 67.8959 92.4334 68.9972 93.5276C70.0985 94.6218 71.5891 95.2342 73.1416 95.2302C73.9254 95.2297 74.7011 95.0721 75.4229 94.7666C76.1447 94.461 76.7978 94.0138 77.3437 93.4514C77.8896 92.889 78.3171 92.2228 78.601 91.4922C78.8848 90.7616 79.0193 89.9815 78.9963 89.1981L78.4284 72.3188C76.7246 72.7094 74.9623 72.9245 73.1416 72.9245ZM92.7227 49.4151C92.7227 38.5886 83.9491 29.8169 73.1416 29.8169C62.3133 29.8169 53.5416 38.5886 53.5416 49.4169C53.5416 60.2245 62.3152 69.0169 73.1416 69.0169C83.951 69.0169 92.7227 60.2226 92.7227 49.4151ZM69.6548 58.0264C69.14 58.0278 68.6301 57.927 68.1546 57.7297C67.6791 57.5325 67.2476 57.2427 66.885 56.8773L62.9963 52.9886C62.8069 52.8086 62.6555 52.5925 62.551 52.353C62.4464 52.1136 62.3908 51.8556 62.3875 51.5943C62.3842 51.3331 62.4331 51.0738 62.5315 50.8317C62.6299 50.5897 62.7758 50.3698 62.9605 50.1849C63.1452 50.0001 63.365 49.8541 63.607 49.7555C63.849 49.657 64.1082 49.6078 64.3695 49.611C64.6308 49.6141 64.8888 49.6695 65.1283 49.7739C65.3678 49.8783 65.584 50.0296 65.7642 50.2188L69.6548 54.1094L80.5001 43.2641C80.6819 43.0822 80.8978 42.938 81.1355 42.8396C81.3731 42.7411 81.6278 42.6905 81.885 42.6905C82.1422 42.6905 82.3969 42.7411 82.6345 42.8396C82.8721 42.938 83.088 43.0822 83.2699 43.2641C83.4517 43.446 83.596 43.6619 83.6944 43.8995C83.7929 44.1371 83.8435 44.3918 83.8435 44.649C83.8435 44.9062 83.7929 45.1609 83.6944 45.3985C83.596 45.6362 83.4517 45.8521 83.2699 46.0339L72.4246 56.8792C72.0617 57.2441 71.6301 57.5334 71.1546 57.7303C70.6792 57.9272 70.1694 58.0279 69.6548 58.0264ZM37.1019 4.76978H9.33402C8.24244 4.77077 7.19585 5.20485 6.42398 5.97672C5.65211 6.74858 5.21804 7.79517 5.21704 8.88676V17.849H37.1038L37.1019 4.76978ZM13.517 13.3622H12.7019C12.156 13.3622 11.6324 13.1454 11.2464 12.7593C10.8603 12.3733 10.6435 11.8497 10.6435 11.3037C10.6435 10.7578 10.8603 10.2342 11.2464 9.84817C11.6324 9.46212 12.156 9.24525 12.7019 9.24525H13.5189C14.0649 9.24525 14.5885 9.46212 14.9745 9.84817C15.3605 10.2342 15.5774 10.7578 15.5774 11.3037C15.5774 11.8497 15.3605 12.3733 14.9745 12.7593C14.5885 13.1454 14.063 13.3622 13.517 13.3622ZM21.5661 13.3622H20.751C20.2051 13.3622 19.6815 13.1454 19.2954 12.7593C18.9094 12.3733 18.6925 11.8497 18.6925 11.3037C18.6925 10.7578 18.9094 10.2342 19.2954 9.84817C19.6815 9.46212 20.2051 9.24525 20.751 9.24525H21.5661C22.112 9.24525 22.6356 9.46212 23.0217 9.84817C23.4077 10.2342 23.6246 10.7578 23.6246 11.3037C23.6246 11.8497 23.4077 12.3733 23.0217 12.7593C22.6356 13.1454 22.112 13.3622 21.5661 13.3622ZM29.6152 13.3622H28.8001C28.2541 13.3622 27.7305 13.1454 27.3445 12.7593C26.9584 12.3733 26.7416 11.8497 26.7416 11.3037C26.7416 10.7578 26.9584 10.2342 27.3445 9.84817C27.7305 9.46212 28.2541 9.24525 28.8001 9.24525H29.6152C30.1611 9.24525 30.6847 9.46212 31.0707 9.84817C31.4568 10.2342 31.6736 10.7578 31.6736 11.3037C31.6736 11.8497 31.4568 12.3733 31.0707 12.7593C30.6847 13.1454 30.1611 13.3622 29.6152 13.3622ZM95.7718 8.87355C95.772 8.33456 95.666 7.80081 95.4599 7.30281C95.2537 6.8048 94.9515 6.35231 94.5704 5.97119C94.1892 5.59007 93.7367 5.2878 93.2387 5.08165C92.7407 4.87551 92.207 4.76953 91.668 4.76978H41.217V17.849H95.7699L95.7718 8.87355ZM86.0623 13.3641H50.9265C50.3803 13.3641 49.8565 13.1471 49.4702 12.7609C49.084 12.3747 48.867 11.8509 48.867 11.3047C48.867 10.7585 49.084 10.2347 49.4702 9.84844C49.8565 9.46222 50.3803 9.24525 50.9265 9.24525H86.0623C86.6083 9.24525 87.1319 9.46212 87.5179 9.84817C87.9039 10.2342 88.1208 10.7578 88.1208 11.3037C88.1208 11.8497 87.9039 12.3733 87.5179 12.7593C87.1319 13.1454 86.6083 13.3622 86.0623 13.3622V13.3641ZM13.451 47.7868H19.5038V53.8188H13.451V47.7868ZM13.451 30.2113H19.5038V36.2434H13.451V30.2113ZM13.451 65.3641H19.5038V71.3962H13.451V65.3641ZM82.5076 71.1717L82.7944 79.632H91.6661C93.9303 79.632 95.7831 77.7792 95.7831 75.5151V56.3962C94.7732 59.6742 93.063 62.6935 90.7707 65.2451C88.4785 67.7966 85.659 69.8176 82.5076 71.1717Z" fill="#222222"/>
<path d="M5.21704 21.9584V75.515C5.21704 77.7792 7.06987 79.632 9.33402 79.632H63.4661L63.7359 71.1716C55.317 67.5301 49.4303 59.132 49.4303 49.4169C49.4303 36.3452 60.0718 25.7037 73.1416 25.7037C83.7831 25.7037 92.7982 32.7641 95.7831 42.4396V21.9565L5.21704 21.9584ZM30.4925 28.4207H44.4699C45.602 28.4207 46.5265 29.3471 46.5265 30.4792C46.5265 31.6113 45.602 32.5377 44.4699 32.5377H30.4925C29.3604 32.5377 28.4359 31.6131 28.4359 30.4811C28.4359 29.349 29.3604 28.4207 30.4925 28.4207ZM30.4925 36.2433H42.1642C43.2963 36.2433 44.2208 37.1679 44.2208 38.2999C44.2208 39.432 43.2963 40.3584 42.1642 40.3584H30.4925C29.3604 40.3584 28.4359 39.4339 28.4359 38.3018C28.4359 37.1697 29.3604 36.2433 30.4925 36.2433ZM30.4925 45.9981H40.2095C41.3416 45.9981 42.2661 46.9245 42.2661 48.0565C42.2661 49.1886 41.3416 50.115 40.2095 50.115H30.4925C29.3604 50.115 28.4359 49.1905 28.4359 48.0584C28.4359 46.9264 29.3604 45.9981 30.4925 45.9981ZM30.4925 53.8207H41.0944C42.2265 53.8207 43.151 54.7452 43.151 55.8792C43.151 57.0113 42.2265 57.9358 41.0944 57.9358H30.4925C29.3604 57.9358 28.4359 57.0113 28.4359 55.8792C28.4359 54.7471 29.3604 53.8207 30.4925 53.8207ZM30.4925 63.5754H44.4699C45.602 63.5754 46.5265 64.5037 46.5265 65.6358C46.5265 66.7679 45.602 67.6924 44.4699 67.6924H30.4925C29.3604 67.6924 28.4359 66.7679 28.4359 65.6358C28.4359 64.5037 29.3604 63.5754 30.4925 63.5754ZM23.6189 71.3981C23.6189 73.6622 21.7661 75.515 19.5019 75.515H13.451C11.1869 75.515 9.33402 73.6622 9.33402 71.3981V65.3679C9.33402 63.1037 11.1869 61.2509 13.451 61.2509H19.5019C21.7661 61.2509 23.6189 63.1037 23.6189 65.3679V71.3981ZM23.6189 53.8207C23.6189 56.0848 21.7661 57.9377 19.5019 57.9377H13.451C11.1869 57.9377 9.33402 56.0848 9.33402 53.8207V47.7905C9.33402 45.5264 11.1869 43.6735 13.451 43.6735H19.5019C21.7661 43.6735 23.6189 45.5264 23.6189 47.7905V53.8207ZM23.6189 36.2433C23.6189 38.5075 21.7661 40.3584 19.5019 40.3584H13.451C11.1869 40.3584 9.33402 38.5075 9.33402 36.2433V30.2113C9.33402 27.9471 11.1869 26.0943 13.451 26.0943H19.5019C21.7661 26.0943 23.6189 27.9471 23.6189 30.2113V36.2433ZM52.1661 71.3981C53.2982 71.3981 54.2265 72.3245 54.2265 73.4565C54.2265 74.5886 53.3001 75.515 52.168 75.515H30.4925C29.3604 75.515 28.4359 74.5905 28.4359 73.4584C28.4359 72.3264 29.3604 71.3981 30.4925 71.3981H52.1661Z" fill="#222222"/>
</svg>
