<svg width="100" height="100" viewBox="0 0 100 100" fill="none" xmlns="http://www.w3.org/2000/svg">
<g opacity="0.1" clip-path="url(#clip0_2343_736)">
<mask id="mask0_2343_736" style="mask-type:luminance" maskUnits="userSpaceOnUse" x="0" y="0" width="100" height="100">
<path d="M0 0H100V100H0V0Z" fill="white"/>
</mask>
<g mask="url(#mask0_2343_736)">
<path fill-rule="evenodd" clip-rule="evenodd" d="M22.4312 60.4375C18.704 59.5134 15.3935 57.3682 13.0272 54.3439C10.6609 51.3195 9.37522 47.5901 9.375 43.75V42.1875C9.375 37.6291 11.1858 33.2574 14.4091 30.0341C17.6324 26.8108 22.0041 25 26.5625 25H28.125C32.5837 24.996 36.8691 26.7267 40.0745 29.826C43.2799 32.9252 45.1539 37.1499 45.3 41.6063V41.625H45.3125V43.75C45.3125 44.5688 45.25 45.375 45.1437 46.1625C45.0187 47.7938 44.8312 49.4 44.5812 50.975C43.9203 55.1007 42.7467 59.1277 41.0875 62.9625C38.1078 69.83 33.4637 75.8467 27.575 80.4688C27.3722 80.6289 27.1681 80.7872 26.9625 80.9438C26.7043 81.142 26.388 81.2496 26.0625 81.25C25.7942 81.2472 25.5312 81.1757 25.2984 81.0423C25.0657 80.9089 24.871 80.718 24.7331 80.4879C24.5952 80.2578 24.5186 79.9962 24.5106 79.728C24.5026 79.4599 24.5635 79.1942 24.6875 78.9563C26.1705 76.1352 27.5261 73.249 28.75 70.3063C29.9812 67.3438 31.225 63.975 32.2313 60.4438C30.8878 60.7753 29.5088 60.9412 28.125 60.9375H26.5625C25.1375 60.9375 23.75 60.7625 22.4312 60.4375ZM19 69.2188C13.512 67.5867 8.69787 64.226 5.2743 59.6368C1.85072 55.0476 0.000815317 49.4755 0 43.75L0 42.1875C0 35.1427 2.79854 28.3864 7.77998 23.405C12.7614 18.4235 19.5177 15.625 26.5625 15.625H28.125C37.2 15.625 45.2062 20.175 50 27.1125C52.4408 23.5668 55.7076 20.6683 59.5186 18.6669C63.3297 16.6656 67.5704 15.6216 71.875 15.625H73.4375C80.3902 15.6236 87.0662 18.3482 92.0325 23.214C96.9988 28.0798 99.8593 34.6988 100 41.65V43.75C100 44.8938 99.925 46.0313 99.7812 47.1438C98.4875 63.5188 91.2938 78.1813 77.9813 88.3875C76.085 89.8393 73.7632 90.6257 71.375 90.625C62.9938 90.625 57.9625 81.7188 61.7 74.6C62.3937 73.2813 63.325 71.425 64.3125 69.225C59.4468 67.7754 55.0983 64.9624 51.7812 61.1188C48.3951 71.9717 41.7154 81.5019 32.6688 88.3875C30.7725 89.8393 28.4507 90.6257 26.0625 90.625C17.6813 90.625 12.65 81.7188 16.3875 74.6C17.0812 73.2813 18.0125 71.425 19 69.225V69.2188ZM67.75 60.4375C69.0687 60.7625 70.4563 60.9375 71.8813 60.9375H73.4438C74.8274 60.9382 76.206 60.7724 77.55 60.4438C76.4031 64.4223 74.983 68.3169 73.3 72.1C72.28 74.422 71.1814 76.7088 70.0062 78.9563C69.8823 79.1942 69.8213 79.4599 69.8293 79.728C69.8373 79.9962 69.9139 80.2578 70.0519 80.4879C70.1898 80.718 70.3844 80.9089 70.6172 81.0423C70.8499 81.1757 71.113 81.2472 71.3812 81.25C71.7067 81.2491 72.0228 81.1415 72.2812 80.9438L72.8938 80.4688C79.0348 75.65 83.8183 69.3181 86.775 62.0938C88.2412 58.5202 89.2898 54.7892 89.9 50.975C90.1565 49.3797 90.3441 47.774 90.4625 46.1625C90.5757 45.3633 90.6321 44.5572 90.6313 43.75V41.6313H90.625V41.6063C90.4789 37.1478 88.6031 32.9212 85.395 29.8216C82.1869 26.722 77.8984 24.9927 73.4375 25H71.8687C67.3103 25 62.9386 26.8108 59.7154 30.0341C56.4921 33.2574 54.6812 37.6291 54.6812 42.1875V43.75C54.6812 51.8125 60.2438 58.5875 67.7375 60.4375H67.75Z" fill="#ED632B"/>
</g>
</g>
<defs>
<clipPath id="clip0_2343_736">
<rect width="100" height="100" fill="white"/>
</clipPath>
</defs>
</svg>
