<svg width="60" height="60" viewBox="0 0 60 60" fill="none" xmlns="http://www.w3.org/2000/svg">
<path d="M19.5211 24.4968C18.9797 23.9519 18.641 23.2007 18.641 22.371C18.641 21.5437 18.9797 20.7937 19.5211 20.2487C20.066 19.7038 20.8172 19.3687 21.6434 19.3687C22.4742 19.3687 23.2242 19.7038 23.7691 20.2487C24.3105 20.7937 24.6492 21.5448 24.6492 22.371C24.6492 23.2019 24.3105 23.9519 23.7691 24.4968C23.491 24.7751 23.1607 24.9958 22.7971 25.1462C22.4335 25.2966 22.0439 25.3738 21.6504 25.3733H21.6398C20.8137 25.3733 20.0625 25.0382 19.5211 24.4968ZM25.0617 36.5718C25.0617 35.2065 25.6137 33.9702 26.5066 33.0772C26.577 33.0105 26.6461 32.9448 26.7164 32.8815V30.3339C26.7164 29.53 26.3273 28.7894 25.7027 28.2444C25.0383 27.6702 24.1113 27.3104 23.0813 27.3104H20.2078C19.6699 27.3104 19.1613 27.4101 18.7031 27.5858C18.4477 27.6819 18.2086 27.805 17.9895 27.9444C18.1453 28.4261 18.2285 28.9382 18.2285 29.469C18.2285 30.7851 17.7164 31.9769 16.8797 32.8605C17.5277 33.1065 18.1125 33.4546 18.6105 33.8835C19.65 34.787 20.298 36.0433 20.298 37.4308V47.0343L22.9922 49.7284V44.53C22.9922 43.1413 23.6402 41.8862 24.6797 40.9827C25.1777 40.5538 25.7625 40.2058 26.4105 39.9597C25.5738 39.0761 25.0617 37.8831 25.0617 36.5718ZM34.0582 42.444C33.3937 41.8663 32.4668 41.5077 31.4402 41.5077H28.5633C27.5332 41.5077 26.6098 41.8663 25.9418 42.444C25.3172 42.9855 24.9281 43.7261 24.9281 44.53V51.6655L26.0344 52.7718C28.2164 54.9538 31.7812 54.9538 33.9633 52.7718L35.073 51.6655V44.53C35.0742 43.7261 34.6816 42.9855 34.0582 42.444ZM15.4148 31.5948C15.9771 31.0303 16.2924 30.2658 16.2914 29.469C16.2914 28.6417 15.9562 27.8917 15.4148 27.3468C14.8699 26.8054 14.1187 26.4667 13.2891 26.4667C12.4617 26.4667 11.7117 26.8054 11.1668 27.3468C10.6219 27.8917 10.2867 28.6417 10.2867 29.469C10.2867 30.2999 10.6219 31.0499 11.1668 31.5948C11.7117 32.1362 12.4629 32.4749 13.2891 32.4749C14.1199 32.4761 14.8711 32.1362 15.4148 31.5948ZM17.3484 35.3425C16.6805 34.7683 15.757 34.4085 14.727 34.4085H11.85C11.2617 34.4085 10.7074 34.5245 10.2223 34.7308C9.72422 34.9405 9.28828 35.2487 8.94961 35.6214L8.91914 35.6577L18.3598 45.0983V37.4319C18.3621 36.628 17.973 35.8874 17.3484 35.3425ZM41.7715 29.469C41.7715 28.937 41.8582 28.4261 42.0141 27.9444C41.7883 27.7999 41.5479 27.6797 41.2969 27.5858C40.8387 27.4101 40.3301 27.3104 39.7957 27.3104H36.9188C35.8922 27.3104 34.9652 27.669 34.3008 28.2444C33.6727 28.7894 33.2848 29.53 33.2848 30.3339V32.8815C33.3566 32.9447 33.4266 33.0099 33.4945 33.0772C33.9538 33.5358 34.3179 34.0806 34.5658 34.6803C34.8138 35.28 34.9408 35.9228 34.9394 36.5718C34.9394 37.8843 34.4273 39.0761 33.5906 39.9597C34.2387 40.2058 34.8258 40.5538 35.3215 40.9827C36.3645 41.8862 37.009 43.1425 37.009 44.53V49.7284L39.7066 47.0343V37.4308C39.7066 36.0421 40.3512 34.787 41.3941 33.8835C41.8887 33.4546 42.4734 33.1065 43.1215 32.8605C42.2859 31.9769 41.7715 30.7851 41.7715 29.469ZM48.8332 31.5948C49.1128 31.316 49.3344 30.9846 49.4855 30.6198C49.6365 30.255 49.7139 29.8639 49.7133 29.469C49.7133 28.6417 49.3781 27.8917 48.8332 27.3468C48.2918 26.8054 47.5406 26.4667 46.7109 26.4667C45.8812 26.4667 45.1301 26.8054 44.5887 27.3468C44.0437 27.8917 43.7086 28.6417 43.7086 29.469C43.7086 30.2999 44.0437 31.0499 44.5887 31.5948C45.1301 32.1362 45.8812 32.4749 46.7109 32.4749C47.5406 32.4749 48.2918 32.1362 48.8332 31.5948ZM55.6395 9.95381C49.8234 4.13779 40.309 4.13779 34.493 9.95381L30.0023 14.4479L25.5082 9.95381C19.6922 4.13779 10.1777 4.13779 4.36172 9.95381C-1.45195 15.7675 -1.45195 25.2843 4.36172 31.0979L7.55391 34.2901C8.06836 33.7323 8.72695 33.2741 9.47344 32.9542C9.54961 32.9237 9.62578 32.8944 9.70313 32.864C8.86641 31.9769 8.3543 30.7851 8.3543 29.469C8.3543 28.1073 8.90625 26.871 9.79922 25.978C10.6934 25.0839 11.9285 24.5331 13.2902 24.5331C14.6555 24.5331 15.8918 25.0851 16.7848 25.978C16.875 26.0683 16.9605 26.1644 17.0438 26.2604C17.3496 26.0706 17.6754 25.9089 18.0176 25.7788L18.0574 25.7624C17.1891 24.847 16.7061 23.6327 16.7086 22.371C16.7086 21.0093 17.2605 19.7729 18.1535 18.88C19.0477 17.9858 20.2828 17.4351 21.6445 17.4351C23.0098 17.4351 24.2461 17.987 25.1391 18.88C26.0332 19.7741 26.584 21.0093 26.584 22.371C26.584 23.687 26.0719 24.8788 25.2352 25.7624C25.8832 26.0085 26.4703 26.3565 26.966 26.7854C28.0055 27.689 28.6535 28.9452 28.6535 30.3327V31.8175C29.0824 31.6944 29.5336 31.6312 30.0023 31.6312C30.4676 31.6312 30.9187 31.6944 31.3477 31.8175V30.3327C31.3477 28.944 31.9957 27.689 33.0387 26.7854C33.5332 26.3565 34.118 26.0085 34.766 25.7624C33.8977 24.847 33.4147 23.6327 33.4172 22.371C33.4172 21.0093 33.9691 19.7729 34.8656 18.88C35.7598 17.9858 36.9914 17.4351 38.3566 17.4351C39.7184 17.4351 40.9547 17.987 41.8477 18.88C42.7418 19.7741 43.2961 21.0093 43.2961 22.371C43.2961 23.687 42.7816 24.8788 41.9473 25.7624L41.9836 25.7788C42.3258 25.9089 42.6551 26.0706 42.9574 26.2604C43.0406 26.1644 43.1297 26.0683 43.2199 25.978C44.1141 25.0839 45.3457 24.5331 46.7109 24.5331C48.0762 24.5331 49.309 25.0851 50.202 25.978C51.0961 26.8722 51.6504 28.1073 51.6504 29.469C51.6504 30.7851 51.1359 31.9769 50.298 32.864C50.3742 32.8944 50.4504 32.9237 50.5277 32.9542C51.2754 33.2729 51.9328 33.7312 52.4473 34.2901L55.6395 31.0979C61.4531 25.2843 61.4531 15.7663 55.6395 9.95381ZM32.1246 38.694C32.6695 38.1491 33.0047 37.3991 33.0047 36.5718C33.0047 35.7409 32.6695 34.9909 32.1246 34.446C32.0121 34.3358 31.8926 34.2339 31.766 34.1401C31.7566 34.1331 31.7461 34.1272 31.7355 34.1202C31.2469 33.771 30.6457 33.5659 30.0012 33.5659C29.3531 33.5659 28.7555 33.7722 28.2633 34.1202C28.2539 34.1272 28.2434 34.1331 28.2328 34.1401C28.1063 34.2327 27.9867 34.3358 27.8742 34.446C27.3328 34.9909 26.9977 35.7409 26.9977 36.5718C26.9977 37.3991 27.3328 38.1491 27.8742 38.694C28.4191 39.2355 29.1703 39.5741 30 39.5741C30.8285 39.5741 31.5797 39.2355 32.1246 38.694ZM38.3625 25.3733C39.1898 25.3733 39.9375 25.0382 40.4789 24.4968C40.7585 24.2179 40.9802 23.8866 41.1312 23.5218C41.2822 23.1569 41.3596 22.7658 41.359 22.371C41.359 21.5437 41.0238 20.7937 40.4789 20.2487C40.201 19.9689 39.8703 19.7471 39.506 19.596C39.1417 19.4449 38.751 19.3677 38.3566 19.3687C37.5258 19.3687 36.7758 19.7038 36.2309 20.2487C35.6895 20.7937 35.3543 21.5448 35.3543 22.371C35.3543 23.2019 35.6895 23.9519 36.2309 24.4968C36.7758 25.0382 37.5234 25.3733 38.3496 25.3733H38.3625ZM49.7801 34.7308C49.2914 34.5245 48.7406 34.4085 48.1488 34.4085H45.2719C44.2453 34.4085 43.3184 34.7671 42.6539 35.3425C42.0258 35.8874 41.6379 36.628 41.6379 37.4319V45.0983L51.082 35.6577L51.0516 35.6214C50.7105 35.2487 50.2746 34.9405 49.7801 34.7308Z" fill="#ED632B"/>
</svg>
