<svg width="63" height="60" viewBox="0 0 63 60" fill="none" xmlns="http://www.w3.org/2000/svg">
<g clip-path="url(#clip0_118_902)">
<path d="M20.1133 35.1462H15.834C13.519 35.1462 11.6249 36.9501 11.6249 39.1549V55.9913C11.6249 58.2184 13.519 60 15.834 60H20.1133V35.1462ZM51.6115 42.4509L47.7298 55.7686C47.3809 56.9845 46.622 58.0574 45.5698 58.8221C44.5176 59.5867 43.2306 60.0006 41.9072 60H23.6209V35.1462L31.3376 24.7459C31.9352 23.9459 32.81 23.3723 33.808 23.1261C34.806 22.8799 35.8632 22.9769 36.7935 23.3999C37.7238 23.823 38.4676 24.545 38.8939 25.4389C39.3203 26.3328 39.4019 27.3413 39.1245 28.2869L37.0901 35.1462H45.7889C49.7876 35.1462 52.6872 38.7763 51.6115 42.4509ZM8.54289 9.51065L10.299 12.898C10.3805 13.0554 10.5011 13.1916 10.6502 13.2948C10.7993 13.398 10.9725 13.4651 11.1549 13.4904L15.081 14.0338C15.2904 14.0632 15.4869 14.1478 15.6485 14.2779C15.8101 14.4079 15.9304 14.5784 15.9958 14.7701C16.0611 14.9617 16.069 15.167 16.0186 15.3627C15.9681 15.5584 15.8613 15.7368 15.7101 15.8778L12.8689 18.5146C12.7371 18.6371 12.6385 18.7882 12.5814 18.955C12.5244 19.1218 12.5107 19.2993 12.5415 19.4722L13.2127 23.1958C13.2483 23.3948 13.2248 23.5993 13.1448 23.7862C13.0649 23.9731 12.9317 24.135 12.7602 24.2536C12.5887 24.3722 12.3859 24.4427 12.1745 24.4573C11.9632 24.4719 11.7517 24.4299 11.5641 24.3361L8.05182 22.579C7.88871 22.4978 7.70739 22.4554 7.52335 22.4554C7.3393 22.4554 7.15799 22.4978 6.99487 22.579L3.48259 24.3361C3.29497 24.4299 3.08354 24.4719 2.87218 24.4573C2.66083 24.4427 2.45796 24.3722 2.2865 24.2536C2.11503 24.135 1.9818 23.9731 1.90185 23.7862C1.82189 23.5993 1.7984 23.3948 1.83402 23.1958L2.50514 19.4722C2.53636 19.2993 2.52286 19.1217 2.46582 18.9548C2.40878 18.788 2.30991 18.6369 2.17777 18.5146L-0.658708 15.8778C-0.809883 15.7368 -0.916722 15.5584 -0.967195 15.3627C-1.01767 15.167 -1.00977 14.9617 -0.94439 14.7701C-0.879011 14.5784 -0.758747 14.4079 -0.59714 14.2779C-0.435533 14.1478 -0.239003 14.0632 -0.0296798 14.0338L3.89649 13.4904C4.07876 13.4648 4.25182 13.3975 4.40086 13.2944C4.5499 13.1912 4.6705 13.0552 4.75234 12.898L6.50848 9.51065C6.6021 9.32982 6.74699 9.17756 6.92675 9.07108C7.10652 8.96461 7.31399 8.90818 7.52568 8.90818C7.73738 8.90818 7.94485 8.96461 8.12462 9.07108C8.30438 9.17756 8.44927 9.32982 8.54289 9.51065ZM32.7523 0.602469L34.5085 3.98981C34.59 4.14725 34.7105 4.28344 34.8596 4.38664C35.0087 4.48984 35.1819 4.55696 35.3643 4.5822L39.2905 5.1256C39.4998 5.15506 39.6963 5.23959 39.8579 5.36968C40.0196 5.49976 40.1398 5.67023 40.2052 5.86189C40.2706 6.05355 40.2785 6.25879 40.228 6.45449C40.1775 6.65019 40.0707 6.82859 39.9195 6.96959L37.0784 9.60641C36.9465 9.72893 36.8479 9.88006 36.7909 10.0468C36.7339 10.2136 36.7202 10.3911 36.751 10.564L37.4221 14.2877C37.4577 14.4866 37.4342 14.6911 37.3543 14.878C37.2743 15.0649 37.1411 15.2268 36.9696 15.3454C36.7982 15.464 36.5953 15.5345 36.3839 15.5491C36.1726 15.5637 35.9612 15.5217 35.7735 15.4279L32.2613 13.6708C32.0981 13.5896 31.9168 13.5472 31.7328 13.5472C31.5487 13.5472 31.3674 13.5896 31.2043 13.6708L27.692 15.4279C27.5044 15.5217 27.293 15.5637 27.0816 15.5491C26.8703 15.5345 26.6674 15.464 26.4959 15.3454C26.3245 15.2268 26.1912 15.0649 26.1113 14.878C26.0313 14.6911 26.0078 14.4866 26.0435 14.2877L26.7146 10.564C26.7458 10.3911 26.7323 10.2135 26.6753 10.0467C26.6182 9.87981 26.5193 9.7287 26.3872 9.60641L23.5507 6.96959C23.3996 6.82859 23.2927 6.65019 23.2422 6.45449C23.1918 6.25879 23.1997 6.05355 23.265 5.86189C23.3304 5.67023 23.4507 5.49976 23.6123 5.36968C23.7739 5.23959 23.9704 5.15506 24.1798 5.1256L28.1059 4.5822C28.2883 4.55696 28.4615 4.48984 28.6106 4.38664C28.7598 4.28344 28.8803 4.14725 28.9618 3.98981L30.7179 0.602469C30.8115 0.42164 30.9564 0.269374 31.1362 0.162902C31.316 0.0564292 31.5234 0 31.7351 0C31.9468 0 32.1543 0.0564292 32.334 0.162902C32.5138 0.269374 32.6587 0.42164 32.7523 0.602469ZM56.9618 9.51065L58.7179 12.898C58.7994 13.0554 58.9199 13.1916 59.069 13.2948C59.2181 13.398 59.3913 13.4651 59.5737 13.4904L63.4999 14.0338C63.7092 14.0632 63.9058 14.1478 64.0674 14.2779C64.229 14.4079 64.3493 14.5784 64.4146 14.7701C64.48 14.9617 64.4879 15.167 64.4374 15.3627C64.387 15.5584 64.2801 15.7368 64.1289 15.8778L61.2878 18.5146C61.156 18.6371 61.0573 18.7882 61.0003 18.955C60.9433 19.1218 60.9296 19.2993 60.9604 19.4722L61.6315 23.1958C61.6672 23.3948 61.6437 23.5993 61.5637 23.7862C61.4838 23.9731 61.3505 24.135 61.1791 24.2536C61.0076 24.3722 60.8047 24.4427 60.5934 24.4573C60.382 24.4719 60.1706 24.4299 59.983 24.3361L56.4707 22.579C56.3076 22.4978 56.1263 22.4554 55.9422 22.4554C55.7582 22.4554 55.5769 22.4978 55.4137 22.579L51.9015 24.3361C51.7138 24.4299 51.5024 24.4719 51.2911 24.4573C51.0797 24.4427 50.8768 24.3722 50.7054 24.2536C50.5339 24.135 50.4007 23.9731 50.3207 23.7862C50.2408 23.5993 50.2173 23.3948 50.2529 23.1958L50.924 19.4722C50.9552 19.2993 50.9417 19.1217 50.8847 18.9548C50.8276 18.788 50.7288 18.6369 50.5966 18.5146L47.7555 15.8778C47.6043 15.7368 47.4975 15.5584 47.447 15.3627C47.3965 15.167 47.4044 14.9617 47.4698 14.7701C47.5352 14.5784 47.6554 14.4079 47.8171 14.2779C47.9787 14.1478 48.1752 14.0632 48.3845 14.0338L52.3107 13.4904C52.4931 13.4651 52.6663 13.398 52.8154 13.2948C52.9645 13.1916 53.085 13.0554 53.1665 12.898L54.9227 9.51065C55.0164 9.32933 55.1616 9.17663 55.3418 9.06985C55.522 8.96307 55.73 8.90647 55.9422 8.90647C56.1544 8.90647 56.3624 8.96307 56.5426 9.06985C56.7228 9.17663 56.868 9.32933 56.9618 9.51065Z" fill="#ED632B"/>
</g>
<defs>
<clipPath id="clip0_118_902">
<rect width="63" height="60" fill="white"/>
</clipPath>
</defs>
</svg>
