<svg width="101" height="100" viewBox="0 0 101 100" fill="none" xmlns="http://www.w3.org/2000/svg">
<g clip-path="url(#clip0_20_413)">
<path d="M15.3438 46.875C17.709 46.875 19.8574 45.9344 21.4389 44.4092L30.0615 48.7205C30.016 49.0801 29.9929 49.4422 29.9922 49.8047C29.9922 54.651 33.9352 58.5938 38.7812 58.5938C43.6273 58.5938 47.5703 54.6508 47.5703 49.8047C47.5716 48.4939 47.278 47.1996 46.7113 46.0176L58.4314 34.2973C59.6135 34.864 60.9079 35.1576 62.2188 35.1562C67.065 35.1562 71.0078 31.2133 71.0078 26.3672C71.0078 25.4516 70.8666 24.5689 70.6057 23.7389L80.7879 16.1025C82.2284 17.0665 83.923 17.5801 85.6562 17.5781C90.5025 17.5781 94.4453 13.6352 94.4453 8.78906C94.4453 3.94297 90.5023 0 85.6562 0C80.8102 0 76.8672 3.94297 76.8672 8.78906C76.8672 9.70469 77.0084 10.5873 77.2693 11.4174L67.0871 19.0537C65.6466 18.0898 63.952 17.5761 62.2188 17.5781C57.3725 17.5781 53.4297 21.5211 53.4297 26.3672C53.4284 27.678 53.722 28.9723 54.2887 30.1543L42.5686 41.8746C41.3865 41.3079 40.0921 41.0143 38.7812 41.0156C36.416 41.0156 34.2676 41.9562 32.6861 43.4814L24.0635 39.1701C24.109 38.8105 24.1321 38.4484 24.1328 38.0859C24.1328 33.2396 20.1898 29.2969 15.3438 29.2969C10.4977 29.2969 6.55469 33.2398 6.55469 38.0859C6.55469 42.932 10.4977 46.875 15.3438 46.875ZM85.6562 5.85938C87.2715 5.85938 88.5859 7.17383 88.5859 8.78906C88.5859 10.4043 87.2715 11.7188 85.6562 11.7188C84.041 11.7188 82.7266 10.4043 82.7266 8.78906C82.7266 7.17383 84.041 5.85938 85.6562 5.85938ZM62.2188 23.4375C63.834 23.4375 65.1484 24.752 65.1484 26.3672C65.1484 27.9824 63.834 29.2969 62.2188 29.2969C60.6035 29.2969 59.2891 27.9824 59.2891 26.3672C59.2891 24.752 60.6035 23.4375 62.2188 23.4375ZM38.7812 46.875C40.3965 46.875 41.7109 48.1895 41.7109 49.8047C41.7109 51.4199 40.3965 52.7344 38.7812 52.7344C37.166 52.7344 35.8516 51.4199 35.8516 49.8047C35.8516 48.1895 37.166 46.875 38.7812 46.875ZM15.3438 35.1562C16.959 35.1562 18.2734 36.4707 18.2734 38.0859C18.2734 39.7012 16.959 41.0156 15.3438 41.0156C13.7285 41.0156 12.4141 39.7012 12.4141 38.0859C12.4141 36.4707 13.7285 35.1562 15.3438 35.1562Z" fill="#222222"/>
<path d="M97.5703 94.1406H94.4453V32.2266C94.4453 30.6084 93.1338 29.2969 91.5156 29.2969H79.7969C78.1787 29.2969 76.8672 30.6084 76.8672 32.2266V94.1406H71.0078V49.8047C71.0078 48.1865 69.6963 46.875 68.0781 46.875H56.3594C54.7412 46.875 53.4297 48.1865 53.4297 49.8047V94.1406H47.5703V73.2422C47.5703 71.624 46.2588 70.3125 44.6406 70.3125H32.9219C31.3037 70.3125 29.9922 71.624 29.9922 73.2422V94.1406H24.1328V61.5234C24.1328 59.9053 22.8213 58.5938 21.2031 58.5938H9.48438C7.86621 58.5938 6.55469 59.9053 6.55469 61.5234V94.1406H3.42969C1.81152 94.1406 0.5 95.4521 0.5 97.0703C0.5 98.6885 1.81152 100 3.42969 100H97.5703C99.1885 100 100.5 98.6885 100.5 97.0703C100.5 95.4521 99.1885 94.1406 97.5703 94.1406ZM82.7266 35.1562H88.5859V94.1406H82.7266V35.1562ZM59.2891 52.7344H65.1484V94.1406H59.2891V52.7344ZM35.8516 76.1719H41.7109V94.1406H35.8516V76.1719ZM12.4141 64.4531H18.2734V94.1406H12.4141V64.4531Z" fill="#222222"/>
</g>
<defs>
<clipPath id="clip0_20_413">
<rect width="100" height="100" fill="white" transform="translate(0.5)"/>
</clipPath>
</defs>
</svg>
