<svg width="60" height="60" viewBox="0 0 60 60" fill="none" xmlns="http://www.w3.org/2000/svg">
<g clip-path="url(#clip0_353_1336)">
<path d="M15 22.5C16.9891 22.5 18.8968 21.7098 20.3033 20.3033C21.7098 18.8968 22.5 16.9891 22.5 15M15 22.5C13.0109 22.5 11.1032 21.7098 9.6967 20.3033C8.29018 18.8968 7.5 16.9891 7.5 15M15 22.5V30M22.5 15C22.5 13.0109 21.7098 11.1032 20.3033 9.6967C18.8968 8.29018 16.9891 7.5 15 7.5M22.5 15H30M15 7.5C13.0109 7.5 11.1032 8.29018 9.6967 9.6967C8.29018 11.1032 7.5 13.0109 7.5 15M15 7.5V0M7.5 15H0M5 5L10 10M20 20L25 25M25 5L20 10M10 20L5 25M45 30C46.9891 30 48.8968 29.2098 50.3033 27.8033C51.7098 26.3968 52.5 24.4891 52.5 22.5M45 30C43.0109 30 41.1032 29.2098 39.6967 27.8033C38.2902 26.3968 37.5 24.4891 37.5 22.5M45 30V37.5M52.5 22.5C52.5 20.5109 51.7098 18.6032 50.3033 17.1967C48.8968 15.7902 46.9891 15 45 15M52.5 22.5H60M45 15C43.0109 15 41.1032 15.7902 39.6967 17.1967C38.2902 18.6032 37.5 20.5109 37.5 22.5M45 15V7.5M37.5 22.5H30M35 12.5L40 17.5M50 27.5L55 32.5M55 12.5L50 17.5M40 27.5L35 32.5M22.5 52.5C24.4891 52.5 26.3968 51.7098 27.8033 50.3033C29.2098 48.8968 30 46.9891 30 45M22.5 52.5C20.5109 52.5 18.6032 51.7098 17.1967 50.3033C15.7902 48.8968 15 46.9891 15 45M22.5 52.5V60M30 45C30 43.0109 29.2098 41.1032 27.8033 39.6967C26.3968 38.2902 24.4891 37.5 22.5 37.5M30 45H37.5M22.5 37.5C20.5109 37.5 18.6032 38.2902 17.1967 39.6967C15.7902 41.1032 15 43.0109 15 45M22.5 37.5V30M15 45H7.5M12.5 35L17.5 40M27.5 50L32.5 55M32.5 35L27.5 40M17.5 50L12.5 55" stroke="#ED632B" stroke-width="5"/>
</g>
<defs>
<clipPath id="clip0_353_1336">
<rect width="60" height="60" fill="white"/>
</clipPath>
</defs>
</svg>
