<svg width="24" height="24" viewBox="0 0 24 24" fill="none" xmlns="http://www.w3.org/2000/svg">
<path d="M22.89 14.4461C24.5661 6.91976 17.969 0.0766016 10.2255 1.38792C6.01948 -1.22024 0.421055 1.7266 0.421055 6.73161C0.418686 7.85182 0.718711 8.95191 1.28948 9.91582C-0.267892 17.4624 6.38422 24.2042 14.1219 22.8003C19.6016 25.7008 25.6487 19.9316 22.89 14.4461ZM15.5287 18.985C13.5024 19.8216 10.1503 19.8274 8.12685 18.7679C5.23211 17.2279 4.72843 13.7629 7.2179 13.7629C9.09369 13.7629 8.50027 15.9513 10.4021 16.8429C11.2705 17.2453 13.1405 17.2858 14.2261 16.5535C15.3116 15.8211 15.1842 14.7066 14.6053 14.1653C13.0595 12.7382 8.63922 13.2969 6.6158 10.8074C6.1443 10.1728 5.89285 9.40173 5.89964 8.61121C5.90643 7.8207 6.1711 7.05401 6.65343 6.42766C8.53501 4.00476 14.0553 3.85713 16.4319 5.6866C18.6232 7.38292 18.0326 9.63503 16.2611 9.63503C14.1334 9.63503 15.2537 6.85029 11.8176 6.85029C9.32817 6.85029 8.34396 8.62187 10.1011 9.4845C12.4863 10.6656 18.5421 10.2632 18.5421 14.8948C18.5421 16.814 17.3611 18.2469 15.5287 18.9937V18.985Z" fill="#03A9F4"/>
</svg>
