<svg width="55" height="43" viewBox="0 0 55 43" fill="none" xmlns="http://www.w3.org/2000/svg">
<path fill-rule="evenodd" clip-rule="evenodd" d="M44.0759 9.85558C44.0759 7.82964 42.8356 6.01183 40.9503 5.27214L29.36 0.731831C28.2107 0.281444 26.9341 0.279435 25.7834 0.726205L14.0647 5.27589C13.1396 5.63476 12.3446 6.26496 11.7841 7.08378C11.2236 7.90259 10.9238 8.87175 10.9241 9.86402V23.379C10.9241 32.9265 17.8859 41.0471 27.3209 42.5068C27.4391 42.5256 27.5 42.5209 27.5 42.5209C27.5 42.5209 27.5609 42.5256 27.6791 42.5068C37.1141 41.0471 44.0759 32.9265 44.0759 23.379V9.85558ZM28.55 12.3484C28.4425 12.1908 28.2981 12.0619 28.1294 11.9728C27.9607 11.8836 27.7728 11.8371 27.582 11.8371C27.3913 11.8371 27.2034 11.8836 27.0347 11.9728C26.866 12.0619 26.7216 12.1908 26.6141 12.3484L24.0303 16.135L19.6306 17.4221C19.4477 17.4759 19.2806 17.5735 19.1438 17.7064C19.0071 17.8394 18.9049 18.0036 18.8459 18.185C18.787 18.3664 18.7732 18.5594 18.8057 18.7473C18.8382 18.9352 18.9161 19.1124 19.0325 19.2634L21.8356 22.8906L21.6997 27.4731C21.6944 27.6637 21.7356 27.8527 21.8199 28.0238C21.9041 28.1948 22.0288 28.3428 22.1831 28.4548C22.3374 28.5668 22.5167 28.6395 22.7054 28.6666C22.8942 28.6937 23.0867 28.6744 23.2663 28.6103L27.5816 27.0653L31.8978 28.6103C32.0774 28.6753 32.2702 28.6954 32.4593 28.6687C32.6484 28.642 32.8281 28.5694 32.9827 28.4571C33.1373 28.3449 33.262 28.1966 33.346 28.025C33.4299 27.8535 33.4706 27.664 33.4644 27.4731L33.3284 22.8906L36.1316 19.2634C36.2478 19.1123 36.3254 18.9351 36.3578 18.7473C36.3902 18.5594 36.3764 18.3665 36.3175 18.1852C36.2586 18.0039 36.1564 17.8397 36.0198 17.7067C35.8832 17.5738 35.7163 17.4761 35.5334 17.4221L31.1338 16.135L28.55 12.3484ZM27.5816 15.0878L29.4341 17.8028C29.5869 18.0268 29.8128 18.1909 30.0725 18.2668L33.2263 19.1893L31.2172 21.789C31.0513 22.0038 30.9651 22.2696 30.9734 22.5409L31.0709 25.825L27.9772 24.7178C27.7218 24.6259 27.4423 24.6259 27.1869 24.7178L24.0931 25.825L24.1906 22.5409C24.1981 22.2697 24.1121 22.0042 23.9469 21.789L21.9369 19.1893L25.0906 18.2668C25.3513 18.1909 25.5772 18.0268 25.73 17.8028L27.5816 15.0878Z" fill="#ED632B"/>
<path fill-rule="evenodd" clip-rule="evenodd" d="M11.3338 31.8766C10.5378 32.1822 9.79439 32.5872 9.12596 33.0306C7.07002 34.3956 5.73783 36.1047 5.73783 36.1047C5.57612 36.3108 5.48822 36.5651 5.48822 36.827C5.48822 37.089 5.57612 37.3433 5.73783 37.5494C5.73783 37.5494 7.07002 39.2594 9.12596 40.6244C10.5641 41.5788 12.3453 42.3522 14.2635 42.3522C16.0288 42.3522 17.6788 41.6875 19.0485 40.8438C15.664 38.6635 12.9842 35.5487 11.3338 31.8766ZM43.6663 31.8766C42.0158 35.5487 39.3361 38.6635 35.9516 40.8438C37.3213 41.6875 38.9713 42.3522 40.7366 42.3522C42.6547 42.3522 44.436 41.5788 45.8741 40.6244C47.93 39.2594 49.2622 37.5494 49.2622 37.5494C49.4239 37.3433 49.5118 37.089 49.5118 36.827C49.5118 36.5651 49.4239 36.3108 49.2622 36.1047C49.2622 36.1047 47.93 34.3956 45.8741 33.0306C45.1823 32.5668 44.442 32.1798 43.6663 31.8766ZM45.4063 25.165C45.2482 27.0148 44.8417 28.8349 44.1978 30.5763C45.0819 30.9185 45.9078 31.3656 46.6522 31.8597C48.3369 32.9781 49.5781 34.3094 50.0994 34.9131C50.9619 34.3544 51.7147 33.6606 52.3503 32.9406C53.9835 31.09 54.8281 29.0941 54.8281 29.0941C54.9308 28.8531 54.9497 28.5846 54.8819 28.3316C54.8141 28.0786 54.6635 27.8555 54.4541 27.6981C54.4541 27.6981 52.7244 26.3922 50.3853 25.6056C48.876 25.0985 47.1238 24.8163 45.4063 25.165ZM45.4822 18.0278C46.641 17.711 47.8419 17.6435 48.9566 17.7128C51.4194 17.8675 53.4285 18.6813 53.4285 18.6813C53.9281 18.8828 54.2263 19.3985 54.1503 19.9328C54.1503 19.9328 53.7753 22.48 52.4131 24.9025C51.8982 24.6645 51.3709 24.4542 50.8335 24.2725C49.2069 23.726 47.3338 23.425 45.4794 23.7231L45.4822 23.3791V18.0278ZM45.4822 10.0253V16.5794C46.6785 16.301 47.9 16.2381 49.0447 16.3094C50.2231 16.3835 51.3069 16.5963 52.1553 16.8119C52.4085 16.165 52.5931 15.5031 52.7235 14.8591C53.211 12.4394 52.9456 10.2888 52.9456 10.2888C52.914 10.0287 52.7962 9.78678 52.611 9.60156C52.4258 9.41633 52.1838 9.2985 51.9238 9.26689C51.9238 9.26689 49.7722 9.00064 47.3535 9.48908C46.7366 9.61377 46.1038 9.78814 45.4822 10.0253ZM10.8022 30.5763C10.1583 28.8349 9.75187 27.0148 9.59377 25.165C7.87627 24.8163 6.12408 25.0985 4.61471 25.6056C2.27564 26.3922 0.545955 27.6981 0.545955 27.6981C0.336553 27.8555 0.185925 28.0786 0.118122 28.3316C0.0503183 28.5846 0.0692492 28.8531 0.171892 29.0941C0.171892 29.0941 1.01658 31.09 2.6497 32.9406C3.28533 33.6606 4.03814 34.3544 4.90064 34.9131C5.42189 34.3094 6.66314 32.9781 8.34783 31.8597C9.11738 31.3448 9.94028 30.9145 10.8022 30.5763ZM9.52064 23.7231C9.51877 23.6085 9.51783 23.4938 9.51783 23.3791V18.0278C8.35908 17.711 7.15814 17.6435 6.04346 17.7128C3.58064 17.8675 1.57158 18.6813 1.57158 18.6813C1.32871 18.7792 1.12566 18.9557 0.994815 19.1826C0.863972 19.4094 0.812885 19.6735 0.849705 19.9328C0.849705 19.9328 1.2247 22.48 2.58689 24.9025C3.07158 24.6794 3.60314 24.4619 4.16658 24.2725C5.79314 23.726 7.66627 23.425 9.52064 23.7231ZM9.51783 16.5794V10.0253C8.90986 9.79551 8.28399 9.61615 7.64658 9.48908C5.22783 9.00064 3.07627 9.26689 3.07627 9.26689C2.81623 9.2985 2.57429 9.41633 2.38906 9.60156C2.20383 9.78678 2.08601 10.0287 2.05439 10.2888C2.05439 10.2888 1.78908 12.4394 2.27658 14.8591C2.40689 15.5031 2.59158 16.165 2.8447 16.8119C3.69314 16.5963 4.77689 16.3835 5.95533 16.3094C7.10002 16.2381 8.32158 16.301 9.51783 16.5794Z" fill="#ED632B"/>
</svg>
