<svg width="44" height="44" viewBox="0 0 44 44" fill="none" xmlns="http://www.w3.org/2000/svg">
<path d="M14.5875 27.6049L26.9342 15.2581C27.5064 14.686 28.4336 14.686 29.0058 15.2581C29.578 15.8303 29.578 16.7576 29.0058 17.3297L16.6591 29.6765C16.0869 30.2487 15.1597 30.2487 14.5875 29.6765C14.0153 29.1043 14.0153 28.1771 14.5875 27.6049Z" fill="white"/>
<path d="M17.2913 15.1025C17.5432 14.8506 17.8875 14.6894 18.2716 14.6749L28.4535 14.2916C28.6567 14.284 28.8593 14.3187 29.0483 14.3936C29.2373 14.4685 29.4087 14.582 29.5515 14.7267C29.6943 14.8714 29.8054 15.0443 29.8777 15.2343C29.95 15.4244 29.982 15.6274 29.9716 15.8304L29.4433 26.1574C29.4019 26.9653 28.7133 27.5868 27.9054 27.5453C27.0975 27.5039 26.476 26.8153 26.5174 26.0074L26.9641 17.2793L18.3818 17.6025C17.5735 17.6327 16.8932 17.0021 16.8629 16.1938C16.8472 15.7695 17.0129 15.3809 17.2913 15.1025Z" fill="white"/>
</svg>
