<svg width="60" height="60" viewBox="0 0 60 60" fill="none" xmlns="http://www.w3.org/2000/svg">
<g clip-path="url(#clip0_118_905)">
<path d="M7.05527 39.0286L0.0663257 46.0175C-0.0512134 46.1295 -0.00726805 46.3322 0.15656 46.3808L8.5739 48.9377C9.16116 49.1158 9.69543 49.4361 10.1294 49.87C10.5633 50.304 10.8835 50.8382 11.0617 51.4255L13.6186 59.8428C13.6671 60.0066 13.8698 60.0506 13.9819 59.9331L23.3332 50.5817C16.4143 48.8631 10.7023 44.5496 7.05527 39.0286ZM59.9337 46.0175L52.9447 39.0286C49.3237 44.5101 43.6294 48.8522 36.6666 50.5818L46.0179 59.9332C46.1299 60.0507 46.3327 60.0068 46.3812 59.8429L48.9381 51.4256C49.1162 50.8383 49.4365 50.304 49.8704 49.8701C50.3044 49.4362 50.8387 49.1159 51.426 48.9378L59.8433 46.3809C60.0076 46.332 60.051 46.1292 59.9337 46.0175Z" fill="#ED632B"/>
<path d="M53.9374 23.9375C53.9374 10.7391 43.1997 0.000244141 30 0.000244141C16.8004 0.000244141 6.06274 10.7391 6.06274 23.9375C6.06274 35.8713 14.8493 45.8177 26.3216 47.5936C40.8537 49.8542 53.9374 38.543 53.9374 23.9375ZM11.3408 29.771C7.39306 17.1498 16.8963 4.39114 30 4.39114C44.6383 4.39114 54.3136 20.1234 47.1781 33.2619C38.9405 48.3734 16.5254 46.2622 11.3408 29.771Z" fill="#ED632B"/>
<path d="M30.0001 7.90674C21.1609 7.90674 13.968 15.0984 13.968 23.9376C13.968 36.9422 28.7122 44.5261 39.2706 37.0095C41.5327 35.4038 43.3749 33.2087 44.5603 30.644C49.4858 20.0402 41.6339 7.90674 30.0001 7.90674ZM38.0917 21.6889L28.0958 29.1079C27.3923 29.6322 26.3915 29.5619 25.7661 28.8994C21.2922 24.1315 21.6501 24.5122 21.5428 24.3995C20.791 23.599 20.9479 22.3042 21.8885 21.709C21.8897 21.7078 21.8908 21.7066 21.892 21.7066C22.5904 21.2683 23.5221 21.3703 24.1068 21.9937C25.0529 23.002 24.4161 22.3234 27.2579 25.351C27.5642 25.1226 31.1687 22.4487 36.1276 18.7687C36.9069 18.1898 38.0084 18.3527 38.5861 19.132C39.1155 19.8426 39.1136 20.9317 38.0917 21.6889Z" fill="#ED632B"/>
</g>
<defs>
<clipPath id="clip0_118_905">
<rect width="60" height="60" fill="white"/>
</clipPath>
</defs>
</svg>
