<svg width="101" height="100" viewBox="0 0 101 100" fill="none" xmlns="http://www.w3.org/2000/svg">
<g clip-path="url(#clip0_20_359)">
<path fill-rule="evenodd" clip-rule="evenodd" d="M40.0431 69.4787C37.7583 69.4787 36.2938 67.4869 37.5826 65.3194L48.889 46.1044C49.2991 45.3428 50.4121 45.3428 50.8808 46.1044L62.1872 65.3194C63.7103 67.9556 61.2499 70.1231 58.4965 69.2444L49.8849 66.6082C49.2991 66.6082 41.5662 69.4787 40.0431 69.4787ZM49.8849 44.054C43.3823 44.054 43.3823 34.1536 49.8849 34.1536C56.3875 34.1536 56.3875 44.054 49.8849 44.054Z" fill="#222222"/>
<path fill-rule="evenodd" clip-rule="evenodd" d="M51.3494 38.9573C51.408 37.8443 52.1696 36.7898 53.6342 36.7898H71.9704C75.0753 36.7898 75.0753 41.4764 71.9704 41.4764H64.4133C70.0372 45.46 73.9622 51.6697 74.841 58.8167C75.0167 60.1641 73.9036 61.4529 72.4977 61.4529C71.326 61.4529 70.3301 60.5742 70.1544 59.4026C69.0413 50.4981 62.07 43.2338 53.2241 41.7107C52.4039 41.5935 51.7009 41.0663 51.4666 40.2462C51.2909 39.8361 51.2909 39.3674 51.3494 38.9573ZM35.2979 41.4764H28.7953C25.6904 41.4764 25.6904 36.7898 28.7953 36.7898H46.077C47.5416 36.7898 48.3617 37.8443 48.4203 38.9573C48.6547 40.1876 47.8931 41.4764 46.4871 41.7107C37.6412 43.2338 30.7285 50.4981 29.5568 59.4026C29.4397 60.5742 28.4438 61.4529 27.2721 61.4529C25.8661 61.4529 24.7531 60.1641 24.9288 58.8167C25.8076 51.6697 29.7326 45.46 35.2979 41.4764Z" fill="#222222"/>
<path fill-rule="evenodd" clip-rule="evenodd" d="M24.9874 44.054C18.4848 44.054 18.4848 34.1536 24.9874 34.1536C31.5486 34.1536 31.5486 44.054 24.9874 44.054ZM75.7783 44.054C69.2171 44.054 69.2171 34.1536 75.7783 34.1536C82.2809 34.1536 82.2809 44.054 75.7783 44.054ZM29.9669 67.8384C21.0038 67.8384 22.0583 68.9515 22.0583 59.9884C22.0583 58.8753 22.9956 57.938 24.1673 57.938C33.0718 57.938 32.0173 56.8249 32.0173 65.788C32.0173 66.9011 31.08 67.8384 29.9669 67.8384ZM75.544 67.8384C66.6394 67.8384 67.6939 68.9515 67.6939 59.9884C67.6939 58.8753 68.6312 57.938 69.8029 57.938C78.7074 57.938 77.6529 56.8249 77.6529 65.788C77.6529 66.9011 76.7156 67.8384 75.544 67.8384ZM86.8503 79.1448H14.1497C11.0448 79.1448 11.0448 74.4582 14.1497 74.4582H86.8503C89.8966 74.4582 89.9552 79.1448 86.8503 79.1448ZM86.8503 87.7564H14.1497C11.0448 87.7564 11.0448 83.0698 14.1497 83.0698H86.8503C89.8966 83.0698 89.9552 87.7564 86.8503 87.7564Z" fill="#222222"/>
<path fill-rule="evenodd" clip-rule="evenodd" d="M92.0641 95.372H8.93585C4.30785 95.372 0.5 91.5642 0.5 86.9362V13.0639C0.5 8.4359 4.30785 4.62805 8.93585 4.62805H47.9517V28.3539H5.06942V86.9362C5.06942 89.0452 6.82689 90.8026 8.93585 90.8026H92.0641C94.1731 90.8026 95.872 89.0452 95.872 86.9362V28.3539H50.2364V4.62805H92.0641C96.6922 4.62805 100.5 8.4359 100.5 13.0639V86.9362C100.5 91.5642 96.6922 95.372 92.0641 95.372ZM15.2042 17.2818H8.87727C7.41271 17.2818 7.41271 14.9971 8.87727 14.9971H15.2042C16.7273 14.9971 16.7273 17.2818 15.2042 17.2818ZM28.3852 17.2818H22.0583C20.5937 17.2818 20.5937 14.9971 22.0583 14.9971H28.3852C29.9083 14.9971 29.9083 17.2818 28.3852 17.2818ZM41.5662 17.2818H35.2393C33.7162 17.2818 33.7162 14.9971 35.2393 14.9971H41.5662C43.0893 14.9971 43.0893 17.2818 41.5662 17.2818ZM90.1895 23.9016H55.626C53.9856 23.9016 52.6383 22.5542 52.6383 20.9139V13.2397C52.6383 11.5408 53.9856 10.252 55.626 10.252H90.1895C91.8884 10.252 93.2358 11.5408 93.2358 13.2397V20.9139C93.2358 22.5542 91.8884 23.9016 90.1895 23.9016ZM55.626 12.4781C55.2745 12.4781 54.923 12.8296 54.923 13.2397V20.9139C54.923 21.324 55.2745 21.6169 55.626 21.6169H90.1895C90.5996 21.6169 90.9511 21.324 90.9511 20.9139V13.2397C90.9511 12.8296 90.5996 12.4781 90.1895 12.4781H55.626ZM86.3817 18.2191H59.4924C58.0278 18.2191 58.0278 15.9344 59.4924 15.9344H86.3231C87.8462 15.9344 87.8462 18.2191 86.3817 18.2191Z" fill="#222222"/>
</g>
<defs>
<clipPath id="clip0_20_359">
<rect width="100" height="100" fill="white" transform="translate(0.5)"/>
</clipPath>
</defs>
</svg>
