<svg width="401" height="400" viewBox="0 0 401 400" fill="none" xmlns="http://www.w3.org/2000/svg">
<g clip-path="url(#clip0_113_524)">
<path d="M246.517 234.404C237.205 265.628 262.403 297.947 297.461 297.399C344.57 296.851 364.29 239.882 328.137 211.397C323.207 207.563 317.181 203.728 309.512 201.537C283.766 196.059 254.734 208.111 246.517 234.404ZM325.398 278.774C308.416 293.564 278.836 293.017 262.403 273.844C253.638 263.984 250.9 249.194 254.734 237.143C261.307 215.232 286.505 205.372 308.416 210.302C313.894 211.397 318.276 214.684 323.754 218.518C344.57 234.404 342.927 263.436 325.398 278.774ZM52.0553 233.308C42.1952 265.08 67.9409 299.042 104.642 297.947C153.395 297.399 173.662 238.786 136.413 209.754C130.388 204.824 124.91 201.537 117.789 199.894C90.3999 193.868 60.272 205.919 52.0553 233.308ZM104.094 289.73C73.4187 290.278 51.5075 262.341 59.7242 235.5C66.2976 213.041 92.591 202.633 115.598 207.563C121.623 208.658 126.006 211.945 131.483 215.78C162.159 240.43 145.178 289.182 104.094 289.73ZM184.07 202.085C180.784 208.111 182.427 216.875 187.905 221.257C193.383 225.64 202.147 225.64 207.077 221.257C212.007 216.875 214.198 208.658 210.912 202.085C205.434 190.582 189.548 191.129 184.07 202.085Z" fill="black"/>
<path d="M316.086 265.628C325.946 256.863 328.137 240.978 321.016 230.022C319.92 228.379 317.181 227.831 315.538 228.926C313.895 230.022 313.347 232.761 314.443 234.404C319.373 242.073 317.729 253.577 311.156 259.054C309.512 260.698 309.513 262.889 310.608 265.08C311.704 266.723 313.895 267.271 316.086 265.628ZM89.8525 263.437C78.8969 258.507 75.0624 244.812 82.1836 234.952C83.2791 233.309 82.7314 230.57 81.088 229.474C79.4447 228.379 76.7058 228.926 75.6102 230.57C65.7502 244.812 71.228 263.984 86.5658 271.106C88.757 272.201 90.9481 271.106 92.0436 268.914C93.1392 266.723 92.0436 263.984 89.8525 263.437ZM98.0692 271.106C95.3303 273.844 96.9737 278.227 100.808 278.227C102.999 278.227 104.095 276.583 104.643 276.036L101.904 273.297L98.0692 271.106Z" fill="black"/>
<path d="M27.4052 267.271C33.9785 291.921 53.6986 312.737 77.801 321.501C101.903 329.718 129.84 325.883 151.204 311.093C172.567 296.303 184.618 272.749 185.714 245.908C194.478 246.455 204.886 246.455 213.651 246.455C215.842 256.315 217.485 266.175 222.963 277.131C246.517 322.597 298.009 336.839 336.353 317.119C361.003 304.52 377.985 277.131 376.889 249.194C376.341 234.404 370.316 220.162 361.003 209.206C361.003 208.658 361.003 208.111 360.456 207.563C352.787 194.416 344.022 181.269 336.353 168.123C310.06 126.491 313.894 128.682 304.034 124.848C297.461 108.415 290.34 93.0768 277.741 85.9556C264.594 79.3822 246.517 83.7645 237.753 90.8856C234.466 93.6245 232.823 93.0768 229.536 93.0768C227.345 81.0256 213.103 75 200.504 75C184.618 75.5478 172.567 83.2167 170.924 94.7201C164.35 95.8157 163.255 96.3634 155.586 90.3379C153.395 88.6945 150.656 87.0512 148.465 85.9556C129.292 77.1911 111.216 83.7645 101.356 103.485C97.5211 110.606 95.3299 118.822 93.6866 125.944C89.8521 127.039 86.5655 128.682 84.3743 131.969C67.3931 153.88 50.4119 185.104 35.6219 210.302C35.6219 210.85 35.0741 211.397 35.0741 211.397C32.3352 215.78 30.6919 220.71 29.0485 225.64C24.6663 237.143 23.5707 254.124 27.4052 267.271ZM339.64 199.346C354.43 210.85 362.647 226.187 364.29 244.264C365.933 263.984 357.717 284.252 342.927 296.851C314.442 321.501 267.333 318.762 242.135 288.634C228.441 272.201 223.511 249.194 229.536 229.474C239.944 194.416 279.932 178.531 315.538 186.199C324.85 188.391 331.971 192.773 339.64 199.346ZM221.319 227.283C220.224 230.57 219.676 233.856 219.128 237.143C205.434 234.404 191.192 234.404 178.045 237.143C175.306 219.614 166.541 204.824 152.299 192.773C180.784 178.531 216.389 178.531 244.874 193.321C233.918 202.085 225.702 213.588 221.319 227.283ZM146.274 198.251C193.93 236.047 168.733 311.641 104.642 312.737C82.731 313.285 61.9153 303.972 48.7686 287.539C35.0741 271.105 30.1441 248.099 36.1697 228.379C47.1253 193.321 87.1132 177.435 122.171 185.104C130.936 187.295 138.057 192.225 146.274 198.251ZM255.282 91.4334C276.097 86.5034 285.41 101.293 293.626 121.014C274.454 116.084 254.734 119.37 237.205 129.778V100.198C243.778 98.0068 243.231 94.1723 255.282 91.4334ZM200.504 83.2167C208.173 83.2167 218.033 85.4078 220.772 92.529C207.077 91.9812 193.383 91.9812 179.14 93.6245C181.879 87.5989 189.548 83.7645 200.504 83.2167ZM192.287 100.746C191.739 108.962 192.835 114.44 192.287 121.561C192.287 123.752 193.93 125.944 196.669 125.944C198.86 125.944 200.504 124.3 200.504 122.109C201.052 113.892 199.956 108.415 200.504 100.198C209.816 100.198 219.676 100.198 228.988 100.746V134.708C219.128 143.473 228.441 140.186 195.574 142.377C187.357 142.925 179.14 143.473 172.019 143.473C170.376 143.473 169.28 142.925 167.637 141.829C165.446 140.186 163.255 138.543 161.064 137.447C161.064 136.899 161.064 136.899 161.611 136.351C162.159 126.491 164.35 116.084 165.446 104.032C165.446 103.485 173.115 101.841 192.287 100.746ZM144.63 93.6245C147.369 94.7201 152.847 99.6501 157.229 101.841C156.681 112.249 154.49 122.109 153.395 133.613C138.057 125.944 120.528 123.205 101.903 125.396C103.547 119.37 105.19 113.345 107.929 107.867C115.598 91.9812 128.745 86.5034 144.63 93.6245ZM89.8521 137.447C90.9477 135.804 93.1388 134.708 94.7822 134.16C119.98 129.23 144.082 134.16 162.159 148.403C164.898 150.594 168.185 151.689 171.471 151.689C186.262 151.689 205.434 150.046 219.676 149.498C223.511 149.498 226.797 147.855 229.536 145.664C251.447 127.039 278.836 122.109 302.939 133.613C304.582 134.16 305.678 135.256 306.773 136.899C317.181 153.88 327.041 169.218 339.64 189.486C332.519 184.556 325.945 180.722 317.181 178.531C293.626 173.053 270.072 177.983 252.543 188.391C219.676 170.314 178.045 169.766 145.178 187.843C138.605 183.461 132.031 179.626 123.815 177.983C99.1644 172.505 74.5143 177.435 56.9853 188.938C66.8454 170.862 78.3487 151.689 89.8521 137.447ZM66.2976 113.892L49.8642 108.962C47.673 108.415 45.4819 109.51 44.9341 111.701C44.3864 113.892 45.4819 116.084 47.673 116.631L64.1065 121.561C66.2976 122.109 68.4887 121.014 69.0365 118.822C69.5843 117.179 68.4887 114.988 66.2976 113.892ZM75.0621 102.937L63.0109 87.5989C61.3676 85.9556 59.1764 85.4078 56.9853 87.0512C55.342 88.6945 54.7942 90.8856 56.4375 93.0768L68.4887 108.415C69.0365 109.51 70.6798 110.058 71.7754 110.058C75.0621 109.51 77.2532 105.676 75.0621 102.937ZM76.7054 82.6689V94.7201C76.7054 96.9112 78.3488 99.1023 81.0877 99.1023C83.8266 99.1023 85.4699 97.459 85.4699 94.7201V82.6689C85.4699 80.4778 83.8266 78.2867 81.0877 78.2867C78.3488 78.2867 76.7054 80.4778 76.7054 82.6689Z" fill="black"/>
</g>
<defs>
<clipPath id="clip0_113_524">
<rect width="400" height="250.775" fill="white" transform="translate(1 75)"/>
</clipPath>
</defs>
</svg>
