<svg width="101" height="100" viewBox="0 0 101 100" fill="none" xmlns="http://www.w3.org/2000/svg">
<path d="M68.5625 89.9219C67.6875 91.3437 66.1719 92.1875 64.4844 92.1875H36.5156C34.8281 92.1875 33.3125 91.3437 32.4375 89.9219C31.5938 88.5312 31.5156 86.8438 32.2656 85.3906L35.1719 79.6875H65.8281L68.7344 85.3906C69.4844 86.8438 69.4063 88.5312 68.5625 89.9219Z" fill="#222222"/>
<path d="M48.9375 15.625H14.5625C12.8366 15.625 11.4375 17.0241 11.4375 18.75V34.375C11.4375 36.1009 12.8366 37.5 14.5625 37.5H48.9375C50.6634 37.5 52.0625 36.1009 52.0625 34.375V18.75C52.0625 17.0241 50.6634 15.625 48.9375 15.625Z" fill="#222222"/>
<path d="M27.0625 40.625H14.5625C12.8366 40.625 11.4375 42.0241 11.4375 43.75V56.25C11.4375 57.9759 12.8366 59.375 14.5625 59.375H27.0625C28.7884 59.375 30.1875 57.9759 30.1875 56.25V43.75C30.1875 42.0241 28.7884 40.625 27.0625 40.625Z" fill="#222222"/>
<path d="M48.9375 40.625H36.4375C34.7116 40.625 33.3125 42.0241 33.3125 43.75V56.25C33.3125 57.9759 34.7116 59.375 36.4375 59.375H48.9375C50.6634 59.375 52.0625 57.9759 52.0625 56.25V43.75C52.0625 42.0241 50.6634 40.625 48.9375 40.625Z" fill="#222222"/>
<path d="M88 59.375H64.5625C63.7031 59.375 63 58.6719 63 57.8125C63 56.9531 63.7031 56.25 64.5625 56.25H88C88.8594 56.25 89.5625 56.9531 89.5625 57.8125C89.5625 58.6719 88.8594 59.375 88 59.375ZM88 51.5625H64.5625C63.7031 51.5625 63 50.8594 63 50C63 49.1406 63.7031 48.4375 64.5625 48.4375H88C88.8594 48.4375 89.5625 49.1406 89.5625 50C89.5625 50.8594 88.8594 51.5625 88 51.5625ZM88 43.75H64.5625C63.7031 43.75 63 43.0469 63 42.1875C63 41.3281 63.7031 40.625 64.5625 40.625H88C88.8594 40.625 89.5625 41.3281 89.5625 42.1875C89.5625 43.0469 88.8594 43.75 88 43.75Z" fill="#222222"/>
<path d="M89.5625 7.8125H11.4375C7.125 7.8125 3.625 11.3125 3.625 15.625V68.75C3.625 73.0625 7.125 76.5625 11.4375 76.5625H89.5625C93.875 76.5625 97.375 73.0625 97.375 68.75V15.625C97.375 11.3125 93.875 7.8125 89.5625 7.8125ZM6.75 64.0625V15.625C6.75 13.0469 8.85938 10.9375 11.4375 10.9375H55.1875V64.0625H6.75ZM94.25 64.0625H58.3125V10.9375H89.5625C92.1406 10.9375 94.25 13.0469 94.25 15.625V64.0625Z" fill="#222222"/>
<path d="M83.3125 32.8125C82.9844 32.8125 82.6562 32.7032 82.375 32.5C81.6875 31.9844 81.5469 31 82.0625 30.3125L86.0469 25L82.0625 19.6875C81.5469 19 81.6875 18.0157 82.375 17.5C83.0625 16.9844 84.0469 17.125 84.5625 17.8125L89.25 24.0625C89.6719 24.625 89.6719 25.375 89.25 25.9375L84.5625 32.1875C84.25 32.5938 83.7812 32.8125 83.3125 32.8125ZM67.6875 32.8125C67.2187 32.8125 66.75 32.5938 66.4375 32.1875L61.75 25.9375C61.5447 25.6681 61.4335 25.3388 61.4335 25C61.4335 24.6613 61.5447 24.332 61.75 24.0625L66.4375 17.8125C66.9531 17.125 67.9375 16.9844 68.625 17.5C69.3125 18.0157 69.4531 19 68.9375 19.6875L64.9531 25L68.9375 30.3125C69.4531 31 69.3125 31.9844 68.625 32.5C68.3437 32.7032 68.0156 32.8125 67.6875 32.8125ZM73.9375 32.8125C73.8125 32.8125 73.6875 32.8125 73.5625 32.7657C73.1607 32.6659 72.8149 32.4108 72.601 32.0563C72.3872 31.7019 72.3227 31.277 72.4219 30.875L75.5469 18.375C75.659 17.987 75.917 17.6574 76.2669 17.4555C76.6167 17.2536 77.0311 17.195 77.4232 17.292C77.8153 17.389 78.1546 17.6341 78.37 17.9759C78.5853 18.3176 78.6599 18.7295 78.5781 19.125L75.4531 31.625C75.2812 32.3438 74.6406 32.8125 73.9375 32.8125Z" fill="#222222"/>
</svg>
